<svg xmlns="http://www.w3.org/2000/svg" xmlns:xlink="http://www.w3.org/1999/xlink" contentStyleType="text/css" data-diagram-type="DESCRIPTION" height="761px" preserveAspectRatio="none" style="width:460px;height:761px;background:#FFFFFF;" version="1.1" viewBox="0 0 460 761" width="460px" zoomAndPan="magnify"><defs><filter height="1" id="bclr4fr9viyr0" width="1" x="0" y="0"><feFlood flood-color="#E8F5E9" result="flood"/><feComposite in="SourceGraphic" in2="flood" operator="over"/></filter><filter height="1" id="bclr4fr9viyr1" width="1" x="0" y="0"><feFlood flood-color="#E3F2FD" result="flood"/><feComposite in="SourceGraphic" in2="flood" operator="over"/></filter><filter height="1" id="bclr4fr9viyr2" width="1" x="0" y="0"><feFlood flood-color="#FFF3E0" result="flood"/><feComposite in="SourceGraphic" in2="flood" operator="over"/></filter><filter height="1" id="bclr4fr9viyr3" width="1" x="0" y="0"><feFlood flood-color="#F3E5F5" result="flood"/><feComposite in="SourceGraphic" in2="flood" operator="over"/></filter></defs><g><!--cluster core--><g class="cluster" data-entity="core" data-source-line="30" data-uid="ent0002" id="cluster_core"><rect fill="#E8F5E9" height="199.69" rx="2.5" ry="2.5" style="stroke:#424242;stroke-width:2;" width="187" x="129" y="358.03"/><text fill="#000000" font-family="Arial" font-size="12" font-weight="bold" lengthAdjust="spacing" textLength="39.2103" x="202.8949" y="372.8581">&#171;core&#187;</text><text fill="#000000" font-family="Arial" font-size="12" font-weight="bold" lengthAdjust="spacing" textLength="26.2442" x="209.3779" y="389.2022">core</text></g><!--cluster persistence--><g class="cluster" data-entity="persistence" data-source-line="38" data-uid="ent0007" id="cluster_persistence"><rect fill="#E3F2FD" height="230.69" rx="2.5" ry="2.5" style="stroke:#424242;stroke-width:2;" width="114" x="340" y="230.69"/><text fill="#000000" font-family="Arial" font-size="12" font-weight="bold" lengthAdjust="spacing" textLength="81.8316" x="356.0842" y="245.5181">&#171;persistence&#187;</text><text fill="#000000" font-family="Arial" font-size="12" font-weight="bold" lengthAdjust="spacing" textLength="68.8655" x="362.5673" y="261.8622">persistence</text></g><!--cluster rest--><g class="cluster" data-entity="rest" data-source-line="44" data-uid="ent0010" id="cluster_rest"><rect fill="#FFF3E0" height="199.69" rx="2.5" ry="2.5" style="stroke:#424242;stroke-width:2;" width="280" x="166" y="7"/><text fill="#000000" font-family="Arial" font-size="12" font-weight="bold" lengthAdjust="spacing" textLength="36.2703" x="287.8649" y="21.8281">&#171;rest&#187;</text><text fill="#000000" font-family="Arial" font-size="12" font-weight="bold" lengthAdjust="spacing" textLength="23.3042" x="294.3479" y="38.1722">rest</text></g><!--cluster ui--><g class="cluster" data-entity="ui" data-source-line="53" data-uid="ent0016" id="cluster_ui"><rect fill="#F3E5F5" height="103.34" rx="2.5" ry="2.5" style="stroke:#424242;stroke-width:2;" width="188" x="7" y="230.69"/><text fill="#000000" font-family="Arial" font-size="12" font-weight="bold" lengthAdjust="spacing" textLength="24.2282" x="88.8859" y="245.5181">&#171;ui&#187;</text><text fill="#000000" font-family="Arial" font-size="12" font-weight="bold" lengthAdjust="spacing" textLength="11.2621" x="95.369" y="261.8622">ui</text></g><!--entity core.dto--><g class="entity" data-entity="core.dto" data-source-line="31" data-uid="ent0003" id="entity_core.dto"><rect fill="#FFFFFF" height="36.3441" rx="2.5" ry="2.5" style="stroke:#424242;stroke-width:2;" width="40.0971" x="150.95" y="505.38"/><text fill="#000000" font-family="Arial" font-size="12" font-weight="bold" lengthAdjust="spacing" textLength="20.0971" x="160.95" y="528.2081">dto</text></g><!--entity core.model--><g class="entity" data-entity="core.model" data-source-line="32" data-uid="ent0004" id="entity_core.model"><rect fill="#FFFFFF" height="36.3441" rx="2.5" ry="2.5" style="stroke:#424242;stroke-width:2;" width="57.5993" x="242.2" y="409.03"/><text fill="#000000" font-family="Arial" font-size="12" font-weight="bold" lengthAdjust="spacing" textLength="37.5993" x="252.2" y="431.8581">model</text></g><!--entity core.service--><g class="entity" data-entity="core.service" data-source-line="33" data-uid="ent0005" id="entity_core.service"><rect fill="#FFFFFF" height="36.3441" rx="2.5" ry="2.5" style="stroke:#424242;stroke-width:2;" width="61.8173" x="145.09" y="409.03"/><text fill="#000000" font-family="Arial" font-size="12" font-weight="bold" lengthAdjust="spacing" textLength="41.8173" x="155.09" y="431.8581">service</text></g><!--entity core.util--><g class="entity" data-entity="core.util" data-source-line="34" data-uid="ent0006" id="entity_core.util"><rect fill="#FFFFFF" height="36.3441" rx="2.5" ry="2.5" style="stroke:#424242;stroke-width:2;" width="39.4401" x="251.28" y="505.38"/><text fill="#000000" font-family="Arial" font-size="12" font-weight="bold" lengthAdjust="spacing" textLength="19.4401" x="261.28" y="528.2081">util</text></g><!--entity persistence.repository--><g class="entity" data-entity="persistence.repository" data-source-line="39" data-uid="ent0008" id="entity_persistence.repository"><rect fill="#FFFFFF" height="36.3441" rx="2.5" ry="2.5" style="stroke:#424242;stroke-width:2;" width="81.6264" x="356.19" y="281.69"/><text fill="#000000" font-family="Arial" font-size="12" font-weight="bold" lengthAdjust="spacing" textLength="61.6264" x="366.19" y="304.5181">repository</text></g><!--entity persistence.util--><g class="entity" data-entity="persistence.util" data-source-line="40" data-uid="ent0009" id="entity_persistence.util"><rect fill="#FFFFFF" height="36.3441" rx="2.5" ry="2.5" style="stroke:#424242;stroke-width:2;" width="39.4401" x="377.28" y="409.03"/><text fill="#000000" font-family="Arial" font-size="12" font-weight="bold" lengthAdjust="spacing" textLength="19.4401" x="387.28" y="431.8581">util</text></g><!--entity rest.app--><g class="entity" data-entity="rest.app" data-source-line="45" data-uid="ent0011" id="entity_rest.app"><rect fill="#FFFFFF" height="36.3441" rx="2.5" ry="2.5" style="stroke:#424242;stroke-width:2;" width="42.6171" x="181.69" y="58"/><text fill="#000000" font-family="Arial" font-size="12" font-weight="bold" lengthAdjust="spacing" textLength="22.6171" x="191.69" y="80.8281">app</text></g><!--entity rest.config--><g class="entity" data-entity="rest.config" data-source-line="46" data-uid="ent0012" id="entity_rest.config"><rect fill="#FFFFFF" height="36.3441" rx="2.5" ry="2.5" style="stroke:#424242;stroke-width:2;" width="57.2903" x="259.35" y="58"/><text fill="#000000" font-family="Arial" font-size="12" font-weight="bold" lengthAdjust="spacing" textLength="37.2903" x="269.35" y="80.8281">config</text></g><!--entity rest.controller--><g class="entity" data-entity="rest.controller" data-source-line="47" data-uid="ent0013" id="entity_rest.controller"><rect fill="#FFFFFF" height="36.3441" rx="2.5" ry="2.5" style="stroke:#424242;stroke-width:2;" width="78.6504" x="351.67" y="58"/><text fill="#000000" font-family="Arial" font-size="12" font-weight="bold" lengthAdjust="spacing" textLength="58.6504" x="361.67" y="80.8281">controller</text></g><!--entity rest.service--><g class="entity" data-entity="rest.service" data-source-line="48" data-uid="ent0014" id="entity_rest.service"><rect fill="#FFFFFF" height="36.3441" rx="2.5" ry="2.5" style="stroke:#424242;stroke-width:2;" width="61.8173" x="293.09" y="154.34"/><text fill="#000000" font-family="Arial" font-size="12" font-weight="bold" lengthAdjust="spacing" textLength="41.8173" x="303.09" y="177.1681">service</text></g><!--entity rest.util--><g class="entity" data-entity="rest.util" data-source-line="49" data-uid="ent0015" id="entity_rest.util"><rect fill="#FFFFFF" height="36.3441" rx="2.5" ry="2.5" style="stroke:#424242;stroke-width:2;" width="39.4401" x="390.28" y="154.34"/><text fill="#000000" font-family="Arial" font-size="12" font-weight="bold" lengthAdjust="spacing" textLength="19.4401" x="400.28" y="177.1681">util</text></g><!--entity ui.app--><g class="entity" data-entity="ui.app" data-source-line="54" data-uid="ent0017" id="entity_ui.app"><rect fill="#FFFFFF" height="36.3441" rx="2.5" ry="2.5" style="stroke:#424242;stroke-width:2;" width="42.6171" x="136.69" y="281.69"/><text fill="#000000" font-family="Arial" font-size="12" font-weight="bold" lengthAdjust="spacing" textLength="22.6171" x="146.69" y="304.5181">app</text></g><!--entity ui.controller--><g class="entity" data-entity="ui.controller" data-source-line="55" data-uid="ent0018" id="entity_ui.controller"><rect fill="#FFFFFF" height="36.3441" rx="2.5" ry="2.5" style="stroke:#424242;stroke-width:2;" width="78.6504" x="22.67" y="281.69"/><text fill="#000000" font-family="Arial" font-size="12" font-weight="bold" lengthAdjust="spacing" textLength="58.6504" x="32.67" y="304.5181">controller</text></g><!--link core.service to core.dto--><g class="link" data-entity-1="core.service" data-entity-2="core.dto" data-source-line="59" data-uid="lnk19" id="link_core.service_core.dto"><path d="M171,445.78 C171,462.84 171,481.99 171,499.03" fill="none" id="core.service-to-core.dto" style="stroke:#424242;stroke-width:2;"/><polygon fill="#424242" points="171,505.03,175,496.03,171,500.03,167,496.03,171,505.03" style="stroke:#424242;stroke-width:2;"/></g><!--link core.model to core.util--><g class="link" data-entity-1="core.model" data-entity-2="core.util" data-source-line="60" data-uid="lnk20" id="link_core.model_core.util"><path d="M277.57,445.78 C277.57,462.84 277.57,481.99 277.57,499.03" fill="none" id="core.model-to-core.util" style="stroke:#424242;stroke-width:2;"/><polygon fill="#424242" points="277.57,505.03,281.57,496.03,277.57,500.03,273.57,496.03,277.57,505.03" style="stroke:#424242;stroke-width:2;"/></g><!--link persistence.repository to core.model--><g class="link" data-entity-1="persistence.repository" data-entity-2="core.model" data-source-line="63" data-uid="lnk21" id="link_persistence.repository_core.model"><path d="M366.73,318.31 C366.73,353.49 366.73,426.72 366.73,426.72 C366.73,426.72 334.4,426.72 306.24,426.72" fill="none" id="persistence.repository-to-core.model" style="stroke:#424242;stroke-width:2;"/><polygon fill="#424242" points="300.24,426.72,309.24,430.72,305.24,426.72,309.24,422.72,300.24,426.72" style="stroke:#424242;stroke-width:2;"/></g><!--link persistence.repository to persistence.util--><g class="link" data-entity-1="persistence.repository" data-entity-2="persistence.util" data-source-line="64" data-uid="lnk22" id="link_persistence.repository_persistence.util"><path d="M397,318.38 C397,342.52 397,378.51 397,402.66" fill="none" id="persistence.repository-to-persistence.util" style="stroke:#424242;stroke-width:2;stroke-dasharray:7,7;"/><polygon fill="#424242" points="397,408.66,401,399.66,397,403.66,393,399.66,397,408.66" style="stroke:#424242;stroke-width:2;"/></g><!--link rest.controller to core.dto--><g class="link" data-entity-1="rest.controller" data-entity-2="core.dto" data-source-line="67" data-uid="lnk23" id="link_rest.controller_core.dto"><path d="M364.71,94.54 C364.71,104.47 364.71,114.72 364.71,114.72 C364.71,114.72 212.71,114.72 212.71,114.72 C212.71,114.72 212.71,517.72 212.71,517.72 C212.71,517.72 207.95,517.72 197.37,517.72" fill="none" id="rest.controller-to-core.dto" style="stroke:#424242;stroke-width:2;"/><polygon fill="#424242" points="191.37,517.72,200.37,521.72,196.37,517.72,200.37,513.72,191.37,517.72" style="stroke:#424242;stroke-width:2;"/></g><!--link rest.controller to core.model--><g class="link" data-entity-1="rest.controller" data-entity-2="core.model" data-source-line="68" data-uid="lnk24" id="link_rest.controller_core.model"><path d="M373.23,94.7 C373.23,111.85 373.23,134.72 373.23,134.72 C373.23,134.72 270.6,134.72 270.6,134.72 C270.6,134.72 270.6,338.88 270.6,402.91" fill="none" id="rest.controller-to-core.model" style="stroke:#424242;stroke-width:2;"/><polygon fill="#424242" points="270.6,408.91,274.6,399.91,270.6,403.91,266.6,399.91,270.6,408.91" style="stroke:#424242;stroke-width:2;"/></g><!--link rest.controller to rest.service--><g class="link" data-entity-1="rest.controller" data-entity-2="rest.service" data-source-line="69" data-uid="lnk25" id="link_rest.controller_rest.service"><path d="M351.21,75.72 C341.66,75.72 334.16,75.72 334.16,75.72 C334.16,75.72 334.16,119.72 334.16,147.85" fill="none" id="rest.controller-to-rest.service" style="stroke:#424242;stroke-width:2;"/><polygon fill="#424242" points="334.16,153.85,338.16,144.85,334.16,148.85,330.16,144.85,334.16,153.85" style="stroke:#424242;stroke-width:2;"/></g><!--link rest.controller to rest.util--><g class="link" data-entity-1="rest.controller" data-entity-2="rest.util" data-source-line="70" data-uid="lnk26" id="link_rest.controller_rest.util"><path d="M410,94.75 C410,111.81 410,130.95 410,148" fill="none" id="rest.controller-to-rest.util" style="stroke:#424242;stroke-width:2;stroke-dasharray:7,7;"/><polygon fill="#424242" points="410,154,414,145,410,149,406,145,410,154" style="stroke:#424242;stroke-width:2;"/></g><!--link rest.service to core.model--><g class="link" data-entity-1="rest.service" data-entity-2="core.model" data-source-line="71" data-uid="lnk27" id="link_rest.service_core.model"><path d="M292.92,172.72 C286.6,172.72 281.85,172.72 281.85,172.72 C281.85,172.72 281.85,344.55 281.85,402.9" fill="none" id="rest.service-to-core.model" style="stroke:#424242;stroke-width:2;"/><polygon fill="#424242" points="281.85,408.9,285.85,399.9,281.85,403.9,277.85,399.9,281.85,408.9" style="stroke:#424242;stroke-width:2;"/></g><!--link rest.service to core.util--><g class="link" data-entity-1="rest.service" data-entity-2="core.util" data-source-line="72" data-uid="lnk28" id="link_rest.service_core.util"><path d="M327.35,190.9 C327.35,263.17 327.35,523.72 327.35,523.72 C327.35,523.72 313.22,523.72 297.03,523.72" fill="none" id="rest.service-to-core.util" style="stroke:#424242;stroke-width:2;"/><polygon fill="#424242" points="291.03,523.72,300.03,527.72,296.03,523.72,300.03,519.72,291.03,523.72" style="stroke:#424242;stroke-width:2;"/></g><!--link rest.service to persistence.repository--><g class="link" data-entity-1="rest.service" data-entity-2="persistence.repository" data-source-line="73" data-uid="lnk29" id="link_rest.service_persistence.repository"><path d="M355.24,172.72 C368.85,172.72 381.76,172.72 381.76,172.72 C381.76,172.72 381.76,240.11 381.76,275.37" fill="none" id="rest.service-to-persistence.repository" style="stroke:#424242;stroke-width:2;"/><polygon fill="#424242" points="381.76,281.37,385.76,272.37,381.76,276.37,377.76,272.37,381.76,281.37" style="stroke:#424242;stroke-width:2;"/></g><!--link rest.util to core.dto--><g class="link" data-entity-1="rest.util" data-entity-2="core.dto" data-source-line="74" data-uid="lnk30" id="link_rest.util_core.dto"><path d="M410,191.14 C410,209.78 410,235.72 410,235.72 C410,235.72 218.51,235.72 218.51,235.72 C218.51,235.72 218.51,529.72 218.51,529.72 C218.51,529.72 210.3,529.72 197.42,529.72" fill="none" id="rest.util-to-core.dto" style="stroke:#424242;stroke-width:2;"/><polygon fill="#424242" points="191.42,529.72,200.42,533.72,196.42,529.72,200.42,525.72,191.42,529.72" style="stroke:#424242;stroke-width:2;"/></g><!--link ui.app to core.service--><g class="link" data-entity-1="ui.app" data-entity-2="core.service" data-source-line="77" data-uid="lnk31" id="link_ui.app_core.service"><path d="M162.2,318.38 C162.2,342.52 162.2,378.51 162.2,402.66" fill="none" id="ui.app-to-core.service" style="stroke:#424242;stroke-width:2;"/><polygon fill="#424242" points="162.2,408.66,166.2,399.66,162.2,403.66,158.2,399.66,162.2,408.66" style="stroke:#424242;stroke-width:2;"/></g><!--link ui.controller to core.dto--><g class="link" data-entity-1="ui.controller" data-entity-2="core.dto" data-source-line="78" data-uid="lnk32" id="link_ui.controller_core.dto"><path d="M42.34,318.18 C42.34,371.64 42.34,523.72 42.34,523.72 C42.34,523.72 108.33,523.72 144.61,523.72" fill="none" id="ui.controller-to-core.dto" style="stroke:#424242;stroke-width:2;"/><polygon fill="#424242" points="150.61,523.72,141.61,519.72,145.61,523.72,141.61,527.72,150.61,523.72" style="stroke:#424242;stroke-width:2;"/></g><!--link ui.controller to core.service--><g class="link" data-entity-1="ui.controller" data-entity-2="core.service" data-source-line="79" data-uid="lnk33" id="link_ui.controller_core.service"><path d="M81.66,318.31 C81.66,353.49 81.66,426.72 81.66,426.72 C81.66,426.72 111.37,426.72 138.85,426.72" fill="none" id="ui.controller-to-core.service" style="stroke:#424242;stroke-width:2;"/><polygon fill="#424242" points="144.85,426.72,135.85,422.72,139.85,426.72,135.85,430.72,144.85,426.72" style="stroke:#424242;stroke-width:2;"/></g><!--link ui.controller to core.util--><g class="link" data-entity-1="ui.controller" data-entity-2="core.util" data-source-line="80" data-uid="lnk34" id="link_ui.controller_core.util"><path d="M62,318.35 C62,363.5 62,475.72 62,475.72 C62,475.72 264.43,475.72 264.43,475.72 C264.43,475.72 264.43,485.49 264.43,498.92" fill="none" id="ui.controller-to-core.util" style="stroke:#424242;stroke-width:2;"/><polygon fill="#424242" points="264.43,504.92,268.43,495.92,264.43,499.92,260.43,495.92,264.43,504.92" style="stroke:#424242;stroke-width:2;"/></g><g class="legend" data-source-line="83"><rect fill="none" height="166.5433" rx="7.5" ry="7.5" style="stroke:#000000;stroke-width:1;" width="244.4571" x="189.5429" y="574.72"/><text fill="#000000" font-family="sans-serif" font-size="14" font-weight="bold" lengthAdjust="spacing" textLength="37.3694" x="198.1829" y="596.6859">Color</text><text fill="#000000" font-family="sans-serif" font-size="14" font-weight="bold" lengthAdjust="spacing" textLength="52.5628" x="242.8322" y="596.6859">Module</text><text fill="#000000" filter="url(#bclr4fr9viyr0)" font-family="sans-serif" font-size="14" lengthAdjust="spacing" textLength="10.92" x="194.5429" y="615.7539">&#160;&#160;&#160;</text><text fill="#000000" font-family="sans-serif" font-size="14" lengthAdjust="spacing" textLength="30.9959" x="242.8322" y="615.7539">Core</text><text fill="#000000" filter="url(#bclr4fr9viyr1)" font-family="sans-serif" font-size="14" lengthAdjust="spacing" textLength="10.92" x="194.5429" y="634.8218">&#160;&#160;&#160;</text><text fill="#000000" font-family="sans-serif" font-size="14" lengthAdjust="spacing" textLength="75.3897" x="242.8322" y="634.8218">Persistence</text><text fill="#000000" filter="url(#bclr4fr9viyr2)" font-family="sans-serif" font-size="14" lengthAdjust="spacing" textLength="10.92" x="194.5429" y="653.8897">&#160;&#160;&#160;</text><text fill="#000000" font-family="sans-serif" font-size="14" lengthAdjust="spacing" textLength="57.7638" x="242.8322" y="653.8897">REST API</text><text fill="#000000" filter="url(#bclr4fr9viyr3)" font-family="sans-serif" font-size="14" lengthAdjust="spacing" textLength="10.92" x="194.5429" y="672.9576">&#160;&#160;&#160;</text><text fill="#000000" font-family="sans-serif" font-size="14" lengthAdjust="spacing" textLength="14.9799" x="242.8322" y="672.9576">UI</text><line style="stroke:#000000;stroke-width:1;" x1="194.5429" x2="321.8619" y1="581.72" y2="581.72"/><line style="stroke:#000000;stroke-width:1;" x1="194.5429" x2="321.8619" y1="600.7879" y2="600.7879"/><line style="stroke:#000000;stroke-width:1;" x1="194.5429" x2="321.8619" y1="619.8558" y2="619.8558"/><line style="stroke:#000000;stroke-width:1;" x1="194.5429" x2="321.8619" y1="638.9238" y2="638.9238"/><line style="stroke:#000000;stroke-width:1;" x1="194.5429" x2="321.8619" y1="657.9917" y2="657.9917"/><line style="stroke:#000000;stroke-width:1;" x1="194.5429" x2="321.8619" y1="677.0596" y2="677.0596"/><line style="stroke:#000000;stroke-width:1;" x1="194.5429" x2="194.5429" y1="581.72" y2="677.0596"/><line style="stroke:#000000;stroke-width:1;" x1="239.1923" x2="239.1923" y1="581.72" y2="677.0596"/><line style="stroke:#000000;stroke-width:1;" x1="321.8619" x2="321.8619" y1="581.72" y2="677.0596"/><text fill="#000000" font-family="sans-serif" font-size="14" lengthAdjust="spacing" textLength="3.64" x="194.5429" y="694.0255">&#160;</text><text fill="#000000" font-family="sans-serif" font-size="14" lengthAdjust="spacing" textLength="208.1792" x="194.5429" y="713.0934">Solid lines: Direct dependencies</text><text fill="#000000" font-family="sans-serif" font-size="14" lengthAdjust="spacing" textLength="234.4571" x="194.5429" y="732.1614">Dotted lines: Internal dependencies</text></g><!--SRC=[XLNHRjem57tFLxZiOKzbNHdILh587IGIKZSGbEV9JIx18jYHxGonjVy-smcn7H8A4i7t7Dld-5xVtAIm9HJGTB6AVayNJuiL-X1zZSVHj-2cXfRHQZrVFpVeABwFPmswYYmKn_4ekckWpRm1Hj4u7WU1s1DQO8uFY4CYCSroGFy2f3u_SBBFE2jfEcKvusOjzQamnbFWTVpBlVuwyUSTIVOKX41LD6PK_i87G8-SuBm9hSbVG9yjPIrFQlCNbgSc97OuPKT2CxJ5kO3WpHMRApVoL01YNEwO0xpqgBQCzhg1koxcd1th0xYqPrNVcR5hLCdxgAPmG0UMbif8ePJW34HW3tQGA7o09XFz34CtnTMM3ZMLR82mG9ewL8CshdQ1t3BCiCqHmF-G12oh3hHvfIJEKdfKsLa25qH8eCbLLuMbQNFEK7dqQ_N29eU22I8PFna1pjoXXNhrkdGhMr-0Qtev2Ac5wgTIwDoN2tcuACn6cZfKWpQUCBebcQLKumwMv2pFWNlCEdOjQuRwNjOCoThVpA-PBucsNX9blEa6lRPBqcFQjQD8ZXaZOGO5q5IbXO10Ho9tX9hQgeK5RZ6YszlGLhajPXitrjghRZaxkFb7aXbsq5r2ThNgflImXiFmigWwjzQ7VjuJOPgwqu9MXdsBlM2bh0lsog1Dq9fj2RZKpgKliEvfFJUnsSZtr7b49McIKXMIdNFsujMElsGFzCxCSyAU85DgWjmy42VPJfeoVlrUztNrvsTrIruhOA9V7G-s9OSgEFcaW-5hrTWzejVNFAxRDRqfjj5uVDEk7fTpdto-d1vrSoQPdpNBIMfUXU81pOY-eIXric18CoObDAmvbS0fpdsU-bSTLF0V]--></g></svg>