<svg xmlns="http://www.w3.org/2000/svg" xmlns:xlink="http://www.w3.org/1999/xlink" contentStyleType="text/css" data-diagram-type="SEQUENCE" height="631px" preserveAspectRatio="none" style="width:1664px;height:631px;background:#FFFFFF;" version="1.1" viewBox="0 0 1664 631" width="1664px" zoomAndPan="magnify"><defs/><g><g><title>User</title><rect fill="#000000" fill-opacity="0.00000" height="463.8842" width="8" x="19.3089" y="84.0679"/><line style="stroke:#181818;stroke-width:0.5;stroke-dasharray:5,5;" x1="23" x2="23" y1="84.0679" y2="547.9521"/></g><g><title>LoginController .UI.</title><rect fill="#000000" fill-opacity="0.00000" height="463.8842" width="8" x="222.8131" y="84.0679"/><line style="stroke:#181818;stroke-width:0.5;stroke-dasharray:5,5;" x1="225.8743" x2="225.8743" y1="84.0679" y2="547.9521"/></g><g><title>ApiClient .UI.</title><rect fill="#000000" fill-opacity="0.00000" height="463.8842" width="8" x="433.5973" y="84.0679"/><line style="stroke:#181818;stroke-width:0.5;stroke-dasharray:5,5;" x1="436.6664" x2="436.6664" y1="84.0679" y2="547.9521"/></g><g><title>REST API</title><rect fill="#000000" fill-opacity="0.00000" height="463.8842" width="8" x="669.8875" y="84.0679"/><line style="stroke:#181818;stroke-width:0.5;stroke-dasharray:5,5;" x1="673.0056" x2="673.0056" y1="84.0679" y2="547.9521"/></g><g><title>AuthController .REST.</title><rect fill="#000000" fill-opacity="0.00000" height="463.8842" width="8" x="880.6716" y="84.0679"/><line style="stroke:#181818;stroke-width:0.5;stroke-dasharray:5,5;" x1="883.9299" x2="883.9299" y1="84.0679" y2="547.9521"/></g><g><title>LoginService .REST.</title><rect fill="#000000" fill-opacity="0.00000" height="463.8842" width="8" x="1099.3338" y="84.0679"/><line style="stroke:#181818;stroke-width:0.5;stroke-dasharray:5,5;" x1="1102.6411" x2="1102.6411" y1="84.0679" y2="547.9521"/></g><g><title>UserRepository .Persistence.</title><rect fill="#000000" fill-opacity="0.00000" height="463.8842" width="8" x="1392.9021" y="84.0679"/><line style="stroke:#181818;stroke-width:0.5;stroke-dasharray:5,5;" x1="1396.6544" x2="1396.6544" y1="84.0679" y2="547.9521"/></g><g><title>SessionManager .UI.</title><rect fill="#000000" fill-opacity="0.00000" height="463.8842" width="8" x="1579.1964" y="84.0679"/><line style="stroke:#181818;stroke-width:0.5;stroke-dasharray:5,5;" x1="1583.1497" x2="1583.1497" y1="84.0679" y2="547.9521"/></g><g class="participant participant-head" data-participant="User"><text fill="#000000" font-family="sans-serif" font-size="14" lengthAdjust="spacing" textLength="30.6179" x="5" y="79.9659">User</text><ellipse cx="23.3089" cy="13.5" fill="#E2E2F0" rx="8" ry="8" style="stroke:#181818;stroke-width:0.5;"/><path d="M23.3089,21.5 L23.3089,48.5 M10.3089,29.5 L36.3089,29.5 M23.3089,48.5 L10.3089,63.5 M23.3089,48.5 L36.3089,63.5" fill="none" style="stroke:#181818;stroke-width:0.5;"/></g><g class="participant participant-tail" data-participant="User"><text fill="#000000" font-family="sans-serif" font-size="14" lengthAdjust="spacing" textLength="30.6179" x="5" y="561.9181">User</text><ellipse cx="23.3089" cy="574.5201" fill="#E2E2F0" rx="8" ry="8" style="stroke:#181818;stroke-width:0.5;"/><path d="M23.3089,582.5201 L23.3089,609.5201 M10.3089,590.5201 L36.3089,590.5201 M23.3089,609.5201 L10.3089,624.5201 M23.3089,609.5201 L36.3089,624.5201" fill="none" style="stroke:#181818;stroke-width:0.5;"/></g><g class="participant participant-head" data-participant="UI"><rect fill="#E2E2F0" height="33.0679" rx="2.5" ry="2.5" style="stroke:#181818;stroke-width:0.5;" width="143.8775" x="154.8743" y="50"/><text fill="#000000" font-family="sans-serif" font-size="14" lengthAdjust="spacing" textLength="129.8775" x="161.8743" y="71.9659">LoginController (UI)</text></g><g class="participant participant-tail" data-participant="UI"><rect fill="#E2E2F0" height="33.0679" rx="2.5" ry="2.5" style="stroke:#181818;stroke-width:0.5;" width="143.8775" x="154.8743" y="546.9521"/><text fill="#000000" font-family="sans-serif" font-size="14" lengthAdjust="spacing" textLength="129.8775" x="161.8743" y="568.9181">LoginController (UI)</text></g><g class="participant participant-head" data-participant="ApiClient"><rect fill="#E2E2F0" height="33.0679" rx="2.5" ry="2.5" style="stroke:#181818;stroke-width:0.5;" width="99.8617" x="387.6664" y="50"/><text fill="#000000" font-family="sans-serif" font-size="14" lengthAdjust="spacing" textLength="85.8617" x="394.6664" y="71.9659">ApiClient (UI)</text></g><g class="participant participant-tail" data-participant="ApiClient"><rect fill="#E2E2F0" height="33.0679" rx="2.5" ry="2.5" style="stroke:#181818;stroke-width:0.5;" width="99.8617" x="387.6664" y="546.9521"/><text fill="#000000" font-family="sans-serif" font-size="14" lengthAdjust="spacing" textLength="85.8617" x="394.6664" y="568.9181">ApiClient (UI)</text></g><g class="participant participant-head" data-participant="RestAPI"><rect fill="#E2E2F0" height="33.0679" rx="2.5" ry="2.5" style="stroke:#181818;stroke-width:0.5;" width="71.7638" x="638.0056" y="50"/><text fill="#000000" font-family="sans-serif" font-size="14" lengthAdjust="spacing" textLength="57.7638" x="645.0056" y="71.9659">REST API</text></g><g class="participant participant-tail" data-participant="RestAPI"><rect fill="#E2E2F0" height="33.0679" rx="2.5" ry="2.5" style="stroke:#181818;stroke-width:0.5;" width="71.7638" x="638.0056" y="546.9521"/><text fill="#000000" font-family="sans-serif" font-size="14" lengthAdjust="spacing" textLength="57.7638" x="645.0056" y="568.9181">REST API</text></g><g class="participant participant-head" data-participant="AuthController"><rect fill="#E2E2F0" height="33.0679" rx="2.5" ry="2.5" style="stroke:#181818;stroke-width:0.5;" width="155.4834" x="806.9299" y="50"/><text fill="#000000" font-family="sans-serif" font-size="14" lengthAdjust="spacing" textLength="141.4834" x="813.9299" y="71.9659">AuthController (REST)</text></g><g class="participant participant-tail" data-participant="AuthController"><rect fill="#E2E2F0" height="33.0679" rx="2.5" ry="2.5" style="stroke:#181818;stroke-width:0.5;" width="155.4834" x="806.9299" y="546.9521"/><text fill="#000000" font-family="sans-serif" font-size="14" lengthAdjust="spacing" textLength="141.4834" x="813.9299" y="568.9181">AuthController (REST)</text></g><g class="participant participant-head" data-participant="LoginService"><rect fill="#E2E2F0" height="33.0679" rx="2.5" ry="2.5" style="stroke:#181818;stroke-width:0.5;" width="141.3855" x="1032.6411" y="50"/><text fill="#000000" font-family="sans-serif" font-size="14" lengthAdjust="spacing" textLength="127.3855" x="1039.6411" y="71.9659">LoginService (REST)</text></g><g class="participant participant-tail" data-participant="LoginService"><rect fill="#E2E2F0" height="33.0679" rx="2.5" ry="2.5" style="stroke:#181818;stroke-width:0.5;" width="141.3855" x="1032.6411" y="546.9521"/><text fill="#000000" font-family="sans-serif" font-size="14" lengthAdjust="spacing" textLength="127.3855" x="1039.6411" y="568.9181">LoginService (REST)</text></g><g class="participant participant-head" data-participant="UserRepository"><rect fill="#E2E2F0" height="33.0679" rx="2.5" ry="2.5" style="stroke:#181818;stroke-width:0.5;" width="202.4953" x="1295.6544" y="50"/><text fill="#000000" font-family="sans-serif" font-size="14" lengthAdjust="spacing" textLength="188.4953" x="1302.6544" y="71.9659">UserRepository (Persistence)</text></g><g class="participant participant-tail" data-participant="UserRepository"><rect fill="#E2E2F0" height="33.0679" rx="2.5" ry="2.5" style="stroke:#181818;stroke-width:0.5;" width="202.4953" x="1295.6544" y="546.9521"/><text fill="#000000" font-family="sans-serif" font-size="14" lengthAdjust="spacing" textLength="188.4953" x="1302.6544" y="568.9181">UserRepository (Persistence)</text></g><g class="participant participant-head" data-participant="SessionManager"><rect fill="#E2E2F0" height="33.0679" rx="2.5" ry="2.5" style="stroke:#181818;stroke-width:0.5;" width="150.0935" x="1508.1497" y="50"/><text fill="#000000" font-family="sans-serif" font-size="14" lengthAdjust="spacing" textLength="136.0935" x="1515.1497" y="71.9659">SessionManager (UI)</text></g><g class="participant participant-tail" data-participant="SessionManager"><rect fill="#E2E2F0" height="33.0679" rx="2.5" ry="2.5" style="stroke:#181818;stroke-width:0.5;" width="150.0935" x="1508.1497" y="546.9521"/><text fill="#000000" font-family="sans-serif" font-size="14" lengthAdjust="spacing" textLength="136.0935" x="1515.1497" y="568.9181">SessionManager (UI)</text></g><g class="message" data-participant-1="User" data-participant-2="UI"><polygon fill="#181818" points="214.8131,113.7739,224.8131,117.7739,214.8131,121.7739,218.8131,117.7739" style="stroke:#181818;stroke-width:1;"/><line style="stroke:#181818;stroke-width:1;" x1="23.3089" x2="220.8131" y1="117.7739" y2="117.7739"/><text fill="#000000" font-family="sans-serif" font-size="13" lengthAdjust="spacing" textLength="179.5042" x="30.3089" y="111.9649">Enters username &amp; password</text></g><g class="message" data-participant-1="UI" data-participant-2="ApiClient"><polygon fill="#181818" points="425.5973,145.4799,435.5973,149.4799,425.5973,153.4799,429.5973,149.4799" style="stroke:#181818;stroke-width:1;"/><line style="stroke:#181818;stroke-width:1;" x1="226.8131" x2="431.5973" y1="149.4799" y2="149.4799"/><text fill="#000000" font-family="sans-serif" font-size="13" lengthAdjust="spacing" textLength="166.2312" x="233.8131" y="143.6709">login(username, password)</text></g><g class="message" data-participant-1="ApiClient" data-participant-2="RestAPI"><polygon fill="#181818" points="661.8875,177.186,671.8875,181.186,661.8875,185.186,665.8875,181.186" style="stroke:#181818;stroke-width:1;"/><line style="stroke:#181818;stroke-width:1;" x1="437.5973" x2="667.8875" y1="181.186" y2="181.186"/><text fill="#000000" font-family="sans-serif" font-size="13" lengthAdjust="spacing" textLength="212.2902" x="444.5973" y="175.377">POST /login {username, password}</text></g><g class="message" data-participant-1="RestAPI" data-participant-2="AuthController"><polygon fill="#181818" points="872.6716,208.892,882.6716,212.892,872.6716,216.892,876.6716,212.892" style="stroke:#181818;stroke-width:1;"/><line style="stroke:#181818;stroke-width:1;" x1="673.8875" x2="878.6716" y1="212.892" y2="212.892"/><text fill="#000000" font-family="sans-serif" font-size="13" lengthAdjust="spacing" textLength="85.3841" x="680.8875" y="207.083">login(request)</text></g><g class="message" data-participant-1="AuthController" data-participant-2="LoginService"><polygon fill="#181818" points="1091.3338,240.598,1101.3338,244.598,1091.3338,248.598,1095.3338,244.598" style="stroke:#181818;stroke-width:1;"/><line style="stroke:#181818;stroke-width:1;" x1="884.6716" x2="1097.3338" y1="244.598" y2="244.598"/><text fill="#000000" font-family="sans-serif" font-size="13" lengthAdjust="spacing" textLength="194.6622" x="891.6716" y="238.789">loginUser(username, password)</text></g><g class="message" data-participant-1="LoginService" data-participant-2="UserRepository"><polygon fill="#181818" points="1384.9021,272.304,1394.9021,276.304,1384.9021,280.304,1388.9021,276.304" style="stroke:#181818;stroke-width:1;"/><line style="stroke:#181818;stroke-width:1;" x1="1103.3338" x2="1390.9021" y1="276.304" y2="276.304"/><text fill="#000000" font-family="sans-serif" font-size="13" lengthAdjust="spacing" textLength="269.5682" x="1110.3338" y="270.495">findByUsernameOrEmail(usernameOrEmail)</text></g><g class="message" data-participant-1="UserRepository" data-participant-2="LoginService"><polygon fill="#181818" points="1114.3338,304.01,1104.3338,308.01,1114.3338,312.01,1110.3338,308.01" style="stroke:#181818;stroke-width:1;"/><line style="stroke:#181818;stroke-width:1;stroke-dasharray:2,2;" x1="1108.3338" x2="1395.9021" y1="308.01" y2="308.01"/><text fill="#000000" font-family="sans-serif" font-size="13" lengthAdjust="spacing" textLength="59.085" x="1120.3338" y="302.201">User data</text></g><g class="message" data-participant-1="LoginService" data-participant-2="AuthController"><polygon fill="#181818" points="895.6716,335.716,885.6716,339.716,895.6716,343.716,891.6716,339.716" style="stroke:#181818;stroke-width:1;"/><line style="stroke:#181818;stroke-width:1;stroke-dasharray:2,2;" x1="889.6716" x2="1102.3338" y1="339.716" y2="339.716"/><text fill="#000000" font-family="sans-serif" font-size="13" lengthAdjust="spacing" textLength="79.4171" x="901.6716" y="333.907">User (if valid)</text></g><g class="message" data-participant-1="AuthController" data-participant-2="RestAPI"><polygon fill="#181818" points="684.8875,367.4221,674.8875,371.4221,684.8875,375.4221,680.8875,371.4221" style="stroke:#181818;stroke-width:1;"/><line style="stroke:#181818;stroke-width:1;stroke-dasharray:2,2;" x1="678.8875" x2="883.6716" y1="371.4221" y2="371.4221"/><text fill="#000000" font-family="sans-serif" font-size="13" lengthAdjust="spacing" textLength="186.7842" x="690.8875" y="365.6131">ApiResponse&lt;LoginResponse&gt;</text></g><g class="message" data-participant-1="RestAPI" data-participant-2="ApiClient"><polygon fill="#181818" points="448.5973,399.1281,438.5973,403.1281,448.5973,407.1281,444.5973,403.1281" style="stroke:#181818;stroke-width:1;"/><line style="stroke:#181818;stroke-width:1;stroke-dasharray:2,2;" x1="442.5973" x2="672.8875" y1="403.1281" y2="403.1281"/><text fill="#000000" font-family="sans-serif" font-size="13" lengthAdjust="spacing" textLength="186.7842" x="454.5973" y="397.3191">ApiResponse&lt;LoginResponse&gt;</text></g><g class="message" data-participant-1="ApiClient" data-participant-2="UI"><polygon fill="#181818" points="237.8131,430.8341,227.8131,434.8341,237.8131,438.8341,233.8131,434.8341" style="stroke:#181818;stroke-width:1;"/><line style="stroke:#181818;stroke-width:1;stroke-dasharray:2,2;" x1="231.8131" x2="436.5973" y1="434.8341" y2="434.8341"/><text fill="#000000" font-family="sans-serif" font-size="13" lengthAdjust="spacing" textLength="186.7842" x="243.8131" y="429.0251">ApiResponse&lt;LoginResponse&gt;</text></g><g class="message" data-participant-1="UI" data-participant-2="SessionManager"><polygon fill="#181818" points="1571.1964,462.5401,1581.1964,466.5401,1571.1964,470.5401,1575.1964,466.5401" style="stroke:#181818;stroke-width:1;"/><line style="stroke:#181818;stroke-width:1;" x1="226.8131" x2="1577.1964" y1="466.5401" y2="466.5401"/><text fill="#000000" font-family="sans-serif" font-size="13" lengthAdjust="spacing" textLength="131.5602" x="233.8131" y="460.7311">login(LoginResponse)</text></g><g class="message" data-participant-1="SessionManager" data-participant-2="UI"><polygon fill="#181818" points="237.8131,494.2461,227.8131,498.2461,237.8131,502.2461,233.8131,498.2461" style="stroke:#181818;stroke-width:1;"/><line style="stroke:#181818;stroke-width:1;stroke-dasharray:2,2;" x1="231.8131" x2="1582.1964" y1="498.2461" y2="498.2461"/><text fill="#000000" font-family="sans-serif" font-size="13" lengthAdjust="spacing" textLength="107.7831" x="243.8131" y="492.4371">Session initialized</text></g><g class="message" data-participant-1="UI" data-participant-2="User"><polygon fill="#181818" points="34.3089,525.9521,24.3089,529.9521,34.3089,533.9521,30.3089,529.9521" style="stroke:#181818;stroke-width:1;"/><line style="stroke:#181818;stroke-width:1;" x1="28.3089" x2="225.8131" y1="529.9521" y2="529.9521"/><text fill="#000000" font-family="sans-serif" font-size="13" lengthAdjust="spacing" textLength="149.3701" x="40.3089" y="524.1431">Navigates to home page</text></g><!--SRC=[VPBFRi8m3CRlUGgBmzHAGxjN4n9372fj0y7w055hm599kYGmiMdlFgTBImE8M-f-d__yR5awRQ2mQ4GZZQEI6gaSZ5xrbjHCAsTqNQE1fCZJ4KWBHHuBfmtDQa9-zf8-52jNy_K7J9TvgrcXTVo-o7Lmks5DxmWfepytMbsZELA9Gyym7Zlyk2jij2KU_WJ94eqbwr2L68QC1B5vZTQILczIoUqGJ1mNmkU0yOI1PJ1NZal0WKDAxX4Ue97MVcbJYIBteXvP1hLlE-caZxqo5MVKx0W0CrWk6EjJwuAVQzkl2CgsJ8IngsNmyy0QBX3pPyEGOP3xkMws5-t13nv1p613gdev5S6vCFEzfBhF5BvJSR6SyLKNBTXAEdbHySPyhJIX3HnbJTNrW4EEJ9VVZLOMdzl4tTVaJ33Ur1t7O5NX1Ew8_qyWlfzkDv4q5HV7roKFOI15ZdZKR-mEonF8u5qUQIiTMd0QTfeli67_7m00]--></g></svg>