<svg xmlns="http://www.w3.org/2000/svg" xmlns:xlink="http://www.w3.org/1999/xlink" contentStyleType="text/css" data-diagram-type="CLASS" height="996px" preserveAspectRatio="none" style="width:805px;height:996px;background:#FFFFFF;" version="1.1" viewBox="0 0 805 996" width="805px" zoomAndPan="magnify"><defs/><g><!--class User--><g class="entity" data-entity="User" data-source-line="2" data-uid="ent0002" id="entity_User"><rect fill="#F1F1F1" height="105.2038" rx="2.5" ry="2.5" style="stroke:#181818;stroke-width:0.5;" width="139.3156" x="514.49" y="883.82"/><ellipse cx="564.5888" cy="899.82" fill="#ADD1B2" rx="11" ry="11" style="stroke:#181818;stroke-width:1;"/><path d="M564.6982,895.3512 Q563.7763,895.3512 563.042,895.6637 Q562.3232,895.9762 561.8232,896.57 Q561.3232,897.1481 561.042,898.0231 Q560.7763,898.8981 560.7763,899.9919 Q560.7763,901.4294 561.2138,902.4762 Q561.667,903.5231 562.5107,904.07 Q563.3701,904.6169 564.6826,904.6169 Q565.4638,904.6169 566.1513,904.4919 Q566.8545,904.3512 567.8545,904.0387 L567.8545,905.9137 Q566.9951,906.2419 566.2295,906.3669 Q565.4795,906.4919 564.4638,906.4919 Q562.542,906.4919 561.2295,905.695 Q559.9326,904.8825 559.2763,903.4137 Q558.6201,901.9294 558.6201,899.9606 Q558.6201,898.5387 559.0107,897.3669 Q559.417,896.1794 560.1982,895.3044 Q560.9795,894.4294 562.1201,893.9606 Q563.2607,893.4762 564.7295,893.4762 Q565.6826,893.4762 566.5732,893.6794 Q567.4795,893.8669 568.417,894.3356 L567.5888,896.1169 Q566.8076,895.7419 566.1513,895.5544 Q565.4951,895.3512 564.6982,895.3512 Z " fill="#000000"/><text fill="#000000" font-family="sans-serif" font-size="14" lengthAdjust="spacing" textLength="30.6179" x="585.0888" y="905.252">User</text><line style="stroke:#181818;stroke-width:0.5;" x1="515.49" x2="652.8056" y1="915.82" y2="915.82"/><rect fill="none" height="6" style="stroke:#C82930;stroke-width:1;" width="6" x="522.49" y="927.854"/><text fill="#000000" font-family="sans-serif" font-size="14" lengthAdjust="spacing" textLength="113.3156" x="534.49" y="934.7859">username: String</text><rect fill="none" height="6" style="stroke:#C82930;stroke-width:1;" width="6" x="522.49" y="946.9219"/><text fill="#000000" font-family="sans-serif" font-size="14" lengthAdjust="spacing" textLength="82.8517" x="534.49" y="953.8539">email: String</text><rect fill="none" height="6" style="stroke:#C82930;stroke-width:1;" width="6" x="522.49" y="965.9898"/><text fill="#000000" font-family="sans-serif" font-size="14" lengthAdjust="spacing" textLength="110.5296" x="534.49" y="972.9218">password: String</text><line style="stroke:#181818;stroke-width:0.5;" x1="515.49" x2="652.8056" y1="981.0238" y2="981.0238"/></g><!--class UserDto--><g class="entity" data-entity="UserDto" data-source-line="8" data-uid="ent0003" id="entity_UserDto"><rect fill="#F1F1F1" height="86.1358" rx="2.5" ry="2.5" style="stroke:#181818;stroke-width:0.5;" width="139.3156" x="442.49" y="7"/><ellipse cx="481.3192" cy="23" fill="#ADD1B2" rx="11" ry="11" style="stroke:#181818;stroke-width:1;"/><path d="M481.4286,18.5313 Q480.5067,18.5313 479.7723,18.8438 Q479.0536,19.1563 478.5536,19.75 Q478.0536,20.3281 477.7723,21.2031 Q477.5067,22.0781 477.5067,23.1719 Q477.5067,24.6094 477.9442,25.6563 Q478.3973,26.7031 479.2411,27.25 Q480.1004,27.7969 481.4129,27.7969 Q482.1942,27.7969 482.8817,27.6719 Q483.5848,27.5313 484.5848,27.2188 L484.5848,29.0938 Q483.7254,29.4219 482.9598,29.5469 Q482.2098,29.6719 481.1942,29.6719 Q479.2723,29.6719 477.9598,28.875 Q476.6629,28.0625 476.0067,26.5938 Q475.3504,25.1094 475.3504,23.1406 Q475.3504,21.7188 475.7411,20.5469 Q476.1473,19.3594 476.9286,18.4844 Q477.7098,17.6094 478.8504,17.1406 Q479.9911,16.6563 481.4598,16.6563 Q482.4129,16.6563 483.3036,16.8594 Q484.2098,17.0469 485.1473,17.5156 L484.3192,19.2969 Q483.5379,18.9219 482.8817,18.7344 Q482.2254,18.5313 481.4286,18.5313 Z " fill="#000000"/><text fill="#000000" font-family="sans-serif" font-size="14" lengthAdjust="spacing" textLength="54.3618" x="500.6146" y="28.432">UserDto</text><line style="stroke:#181818;stroke-width:0.5;" x1="443.49" x2="580.8056" y1="39" y2="39"/><rect fill="none" height="6" style="stroke:#C82930;stroke-width:1;" width="6" x="450.49" y="51.034"/><text fill="#000000" font-family="sans-serif" font-size="14" lengthAdjust="spacing" textLength="113.3156" x="462.49" y="57.9659">username: String</text><rect fill="none" height="6" style="stroke:#C82930;stroke-width:1;" width="6" x="450.49" y="70.1019"/><text fill="#000000" font-family="sans-serif" font-size="14" lengthAdjust="spacing" textLength="82.8517" x="462.49" y="77.0339">email: String</text><line style="stroke:#181818;stroke-width:0.5;" x1="443.49" x2="580.8056" y1="85.1358" y2="85.1358"/></g><!--class LoginRequest--><g class="entity" data-entity="LoginRequest" data-source-line="13" data-uid="ent0004" id="entity_LoginRequest"><rect fill="#F1F1F1" height="86.1358" rx="2.5" ry="2.5" style="stroke:#181818;stroke-width:0.5;" width="139.3156" x="616.49" y="7"/><ellipse cx="639.1913" cy="23" fill="#ADD1B2" rx="11" ry="11" style="stroke:#181818;stroke-width:1;"/><path d="M639.3006,18.5313 Q638.3788,18.5313 637.6444,18.8438 Q636.9256,19.1563 636.4256,19.75 Q635.9256,20.3281 635.6444,21.2031 Q635.3788,22.0781 635.3788,23.1719 Q635.3788,24.6094 635.8163,25.6563 Q636.2694,26.7031 637.1131,27.25 Q637.9725,27.7969 639.285,27.7969 Q640.0663,27.7969 640.7538,27.6719 Q641.4569,27.5313 642.4569,27.2188 L642.4569,29.0938 Q641.5975,29.4219 640.8319,29.5469 Q640.0819,29.6719 639.0663,29.6719 Q637.1444,29.6719 635.8319,28.875 Q634.535,28.0625 633.8788,26.5938 Q633.2225,25.1094 633.2225,23.1406 Q633.2225,21.7188 633.6131,20.5469 Q634.0194,19.3594 634.8006,18.4844 Q635.5819,17.6094 636.7225,17.1406 Q637.8631,16.6563 639.3319,16.6563 Q640.285,16.6563 641.1756,16.8594 Q642.0819,17.0469 643.0194,17.5156 L642.1913,19.2969 Q641.41,18.9219 640.7538,18.7344 Q640.0975,18.5313 639.3006,18.5313 Z " fill="#000000"/><text fill="#000000" font-family="sans-serif" font-size="14" lengthAdjust="spacing" textLength="90.2016" x="654.9027" y="28.432">LoginRequest</text><line style="stroke:#181818;stroke-width:0.5;" x1="617.49" x2="754.8056" y1="39" y2="39"/><rect fill="none" height="6" style="stroke:#C82930;stroke-width:1;" width="6" x="624.49" y="51.034"/><text fill="#000000" font-family="sans-serif" font-size="14" lengthAdjust="spacing" textLength="113.3156" x="636.49" y="57.9659">username: String</text><rect fill="none" height="6" style="stroke:#C82930;stroke-width:1;" width="6" x="624.49" y="70.1019"/><text fill="#000000" font-family="sans-serif" font-size="14" lengthAdjust="spacing" textLength="110.5296" x="636.49" y="77.0339">password: String</text><line style="stroke:#181818;stroke-width:0.5;" x1="617.49" x2="754.8056" y1="85.1358" y2="85.1358"/></g><!--class LoginResponse--><g class="entity" data-entity="LoginResponse" data-source-line="18" data-uid="ent0005" id="entity_LoginResponse"><rect fill="#F1F1F1" height="105.2038" rx="2.5" ry="2.5" style="stroke:#181818;stroke-width:0.5;" width="161.8135" x="154.24" y="337.41"/><ellipse cx="182.5104" cy="353.41" fill="#ADD1B2" rx="11" ry="11" style="stroke:#181818;stroke-width:1;"/><path d="M182.6198,348.9412 Q181.6979,348.9412 180.9636,349.2537 Q180.2448,349.5662 179.7448,350.16 Q179.2448,350.7381 178.9636,351.6131 Q178.6979,352.4881 178.6979,353.5819 Q178.6979,355.0194 179.1354,356.0662 Q179.5886,357.1131 180.4323,357.66 Q181.2917,358.2069 182.6042,358.2069 Q183.3854,358.2069 184.0729,358.0819 Q184.7761,357.9412 185.7761,357.6287 L185.7761,359.5037 Q184.9167,359.8319 184.1511,359.9569 Q183.4011,360.0819 182.3854,360.0819 Q180.4636,360.0819 179.1511,359.285 Q177.8542,358.4725 177.1979,357.0037 Q176.5417,355.5194 176.5417,353.5506 Q176.5417,352.1287 176.9323,350.9569 Q177.3386,349.7694 178.1198,348.8944 Q178.9011,348.0194 180.0417,347.5506 Q181.1823,347.0662 182.6511,347.0662 Q183.6042,347.0662 184.4948,347.2694 Q185.4011,347.4569 186.3386,347.9256 L185.5104,349.7069 Q184.7292,349.3319 184.0729,349.1444 Q183.4167,348.9412 182.6198,348.9412 Z " fill="#000000"/><text fill="#000000" font-family="sans-serif" font-size="14" lengthAdjust="spacing" textLength="100.3236" x="199.4594" y="358.842">LoginResponse</text><line style="stroke:#181818;stroke-width:0.5;" x1="155.24" x2="315.0535" y1="369.41" y2="369.41"/><rect fill="none" height="6" style="stroke:#C82930;stroke-width:1;" width="6" x="162.24" y="381.444"/><text fill="#000000" font-family="sans-serif" font-size="14" lengthAdjust="spacing" textLength="113.3156" x="174.24" y="388.3759">username: String</text><rect fill="none" height="6" style="stroke:#C82930;stroke-width:1;" width="6" x="162.24" y="400.5119"/><text fill="#000000" font-family="sans-serif" font-size="14" lengthAdjust="spacing" textLength="82.8517" x="174.24" y="407.4439">email: String</text><rect fill="none" height="6" style="stroke:#C82930;stroke-width:1;" width="6" x="162.24" y="419.5798"/><text fill="#000000" font-family="sans-serif" font-size="14" lengthAdjust="spacing" textLength="135.8135" x="174.24" y="426.5118">sessionToken: String</text><line style="stroke:#181818;stroke-width:0.5;" x1="155.24" x2="315.0535" y1="434.6138" y2="434.6138"/></g><!--class ApiResponse--><g class="entity" data-entity="ApiResponse" data-source-line="24" data-uid="ent0006" id="entity_ApiResponse"><rect fill="#F1F1F1" height="105.2038" rx="2.5" ry="2.5" style="stroke:#181818;stroke-width:0.5;" width="137.0616" x="359.62" y="337.41"/><ellipse cx="383.7325" cy="353.41" fill="#ADD1B2" rx="11" ry="11" style="stroke:#181818;stroke-width:1;"/><path d="M383.8418,348.9412 Q382.92,348.9412 382.1856,349.2537 Q381.4668,349.5662 380.9668,350.16 Q380.4668,350.7381 380.1856,351.6131 Q379.92,352.4881 379.92,353.5819 Q379.92,355.0194 380.3575,356.0662 Q380.8106,357.1131 381.6543,357.66 Q382.5137,358.2069 383.8262,358.2069 Q384.6075,358.2069 385.295,358.0819 Q385.9981,357.9412 386.9981,357.6287 L386.9981,359.5037 Q386.1387,359.8319 385.3731,359.9569 Q384.6231,360.0819 383.6075,360.0819 Q381.6856,360.0819 380.3731,359.285 Q379.0762,358.4725 378.42,357.0037 Q377.7637,355.5194 377.7637,353.5506 Q377.7637,352.1287 378.1543,350.9569 Q378.5606,349.7694 379.3418,348.8944 Q380.1231,348.0194 381.2637,347.5506 Q382.4043,347.0662 383.8731,347.0662 Q384.8262,347.0662 385.7168,347.2694 Q386.6231,347.4569 387.5606,347.9256 L386.7325,349.7069 Q385.9512,349.3319 385.295,349.1444 Q384.6387,348.9412 383.8418,348.9412 Z " fill="#000000"/><text fill="#000000" font-family="sans-serif" font-size="14" lengthAdjust="spacing" textLength="84.8117" x="399.7574" y="358.842">ApiResponse</text><line style="stroke:#181818;stroke-width:0.5;" x1="360.62" x2="495.6816" y1="369.41" y2="369.41"/><rect fill="none" height="6" style="stroke:#C82930;stroke-width:1;" width="6" x="367.62" y="381.444"/><text fill="#000000" font-family="sans-serif" font-size="14" lengthAdjust="spacing" textLength="111.0616" x="379.62" y="388.3759">success: boolean</text><rect fill="none" height="6" style="stroke:#C82930;stroke-width:1;" width="6" x="367.62" y="400.5119"/><text fill="#000000" font-family="sans-serif" font-size="14" lengthAdjust="spacing" textLength="105.5456" x="379.62" y="407.4439">message: String</text><rect fill="none" height="6" style="stroke:#C82930;stroke-width:1;" width="6" x="367.62" y="419.5798"/><text fill="#000000" font-family="sans-serif" font-size="14" lengthAdjust="spacing" textLength="44.5478" x="379.62" y="426.5118">data: T</text><line style="stroke:#181818;stroke-width:0.5;" x1="360.62" x2="495.6816" y1="434.6138" y2="434.6138"/></g><!--class LoginController--><g class="entity" data-entity="LoginController" data-source-line="31" data-uid="ent0007" id="entity_LoginController"><rect fill="#F1F1F1" height="67.0679" rx="2.5" ry="2.5" style="stroke:#181818;stroke-width:0.5;" width="161.3375" x="246.48" y="16.54"/><ellipse cx="273.3959" cy="32.54" fill="#ADD1B2" rx="11" ry="11" style="stroke:#181818;stroke-width:1;"/><path d="M273.5053,28.0712 Q272.5834,28.0712 271.8491,28.3837 Q271.1303,28.6962 270.6303,29.29 Q270.1303,29.8681 269.8491,30.7431 Q269.5834,31.6181 269.5834,32.7119 Q269.5834,34.1494 270.0209,35.1962 Q270.4741,36.2431 271.3178,36.79 Q272.1772,37.3369 273.4897,37.3369 Q274.2709,37.3369 274.9584,37.2119 Q275.6616,37.0712 276.6616,36.7587 L276.6616,38.6337 Q275.8022,38.9619 275.0366,39.0869 Q274.2866,39.2119 273.2709,39.2119 Q271.3491,39.2119 270.0366,38.415 Q268.7397,37.6025 268.0834,36.1337 Q267.4272,34.6494 267.4272,32.6806 Q267.4272,31.2587 267.8178,30.0869 Q268.2241,28.8994 269.0053,28.0244 Q269.7866,27.1494 270.9272,26.6806 Q272.0678,26.1962 273.5366,26.1962 Q274.4897,26.1962 275.3803,26.3994 Q276.2866,26.5869 277.2241,27.0556 L276.3959,28.8369 Q275.6147,28.4619 274.9584,28.2744 Q274.3022,28.0712 273.5053,28.0712 Z " fill="#000000"/><text fill="#000000" font-family="sans-serif" font-size="14" lengthAdjust="spacing" textLength="102.8576" x="290.0439" y="37.972">LoginController</text><line style="stroke:#181818;stroke-width:0.5;" x1="247.48" x2="406.8175" y1="48.54" y2="48.54"/><line style="stroke:#181818;stroke-width:0.5;" x1="247.48" x2="406.8175" y1="56.54" y2="56.54"/><ellipse cx="257.48" cy="71.574" fill="#84BE84" rx="3" ry="3" style="stroke:#038048;stroke-width:1;"/><text fill="#000000" font-family="sans-serif" font-size="14" lengthAdjust="spacing" textLength="135.3375" x="266.48" y="75.5059">handleLoginButton()</text></g><!--class SessionManager--><g class="entity" data-entity="SessionManager" data-source-line="34" data-uid="ent0008" id="entity_SessionManager"><rect fill="#F1F1F1" height="124.2717" rx="2.5" ry="2.5" style="stroke:#181818;stroke-width:0.5;" width="167.6794" x="133.31" y="153.14"/><ellipse cx="160.2826" cy="169.14" fill="#ADD1B2" rx="11" ry="11" style="stroke:#181818;stroke-width:1;"/><path d="M160.392,164.6713 Q159.4701,164.6713 158.7358,164.9838 Q158.017,165.2963 157.517,165.89 Q157.017,166.4681 156.7358,167.3431 Q156.4701,168.2181 156.4701,169.3119 Q156.4701,170.7494 156.9076,171.7963 Q157.3608,172.8431 158.2045,173.39 Q159.0639,173.9369 160.3764,173.9369 Q161.1576,173.9369 161.8451,173.8119 Q162.5483,173.6713 163.5483,173.3588 L163.5483,175.2338 Q162.6889,175.5619 161.9233,175.6869 Q161.1733,175.8119 160.1576,175.8119 Q158.2358,175.8119 156.9233,175.015 Q155.6264,174.2025 154.9701,172.7338 Q154.3139,171.2494 154.3139,169.2806 Q154.3139,167.8588 154.7045,166.6869 Q155.1108,165.4994 155.892,164.6244 Q156.6733,163.7494 157.8139,163.2806 Q158.9545,162.7963 160.4233,162.7963 Q161.3764,162.7963 162.267,162.9994 Q163.1733,163.1869 164.1108,163.6556 L163.2826,165.4369 Q162.5014,165.0619 161.8451,164.8744 Q161.1889,164.6713 160.392,164.6713 Z " fill="#000000"/><text fill="#000000" font-family="sans-serif" font-size="14" lengthAdjust="spacing" textLength="109.0736" x="176.9432" y="174.572">SessionManager</text><line style="stroke:#181818;stroke-width:0.5;" x1="134.31" x2="299.9894" y1="185.14" y2="185.14"/><rect fill="none" height="6" style="stroke:#C82930;stroke-width:1;" width="6" x="141.31" y="197.174"/><text fill="#000000" font-family="sans-serif" font-size="14" lengthAdjust="spacing" textLength="135.8135" x="153.31" y="204.1059">sessionToken: String</text><rect fill="none" height="6" style="stroke:#C82930;stroke-width:1;" width="6" x="141.31" y="216.2419"/><text fill="#000000" font-family="sans-serif" font-size="14" lengthAdjust="spacing" textLength="113.3156" x="153.31" y="223.1739">username: String</text><rect fill="none" height="6" style="stroke:#C82930;stroke-width:1;" width="6" x="141.31" y="235.3098"/><text fill="#000000" font-family="sans-serif" font-size="14" lengthAdjust="spacing" textLength="82.8517" x="153.31" y="242.2418">email: String</text><line style="stroke:#181818;stroke-width:0.5;" x1="134.31" x2="299.9894" y1="250.3438" y2="250.3438"/><ellipse cx="144.31" cy="265.3777" fill="#84BE84" rx="3" ry="3" style="stroke:#038048;stroke-width:1;"/><text fill="#000000" font-family="sans-serif" font-size="14" lengthAdjust="spacing" textLength="141.6794" x="153.31" y="269.3097">login(LoginResponse)</text></g><!--class ApiClient--><g class="entity" data-entity="ApiClient" data-source-line="40" data-uid="ent0009" id="entity_ApiClient"><rect fill="#F1F1F1" height="67.0679" rx="2.5" ry="2.5" style="stroke:#181818;stroke-width:0.5;" width="205.0173" x="335.64" y="181.74"/><ellipse cx="404.4778" cy="197.74" fill="#ADD1B2" rx="11" ry="11" style="stroke:#181818;stroke-width:1;"/><path d="M404.5872,193.2713 Q403.6653,193.2713 402.9309,193.5838 Q402.2122,193.8963 401.7122,194.49 Q401.2122,195.0681 400.9309,195.9431 Q400.6653,196.8181 400.6653,197.9119 Q400.6653,199.3494 401.1028,200.3963 Q401.5559,201.4431 402.3997,201.99 Q403.259,202.5369 404.5715,202.5369 Q405.3528,202.5369 406.0403,202.4119 Q406.7434,202.2713 407.7434,201.9588 L407.7434,203.8338 Q406.884,204.1619 406.1184,204.2869 Q405.3684,204.4119 404.3528,204.4119 Q402.4309,204.4119 401.1184,203.615 Q399.8215,202.8025 399.1653,201.3338 Q398.509,199.8494 398.509,197.8806 Q398.509,196.4588 398.8997,195.2869 Q399.3059,194.0994 400.0872,193.2244 Q400.8684,192.3494 402.009,191.8806 Q403.1497,191.3963 404.6184,191.3963 Q405.5715,191.3963 406.4622,191.5994 Q407.3684,191.7869 408.3059,192.2556 L407.4778,194.0369 Q406.6965,193.6619 406.0403,193.4744 Q405.384,193.2713 404.5872,193.2713 Z " fill="#000000"/><text fill="#000000" font-family="sans-serif" font-size="14" lengthAdjust="spacing" textLength="58.8418" x="424.9778" y="203.172">ApiClient</text><line style="stroke:#181818;stroke-width:0.5;" x1="336.64" x2="539.6573" y1="213.74" y2="213.74"/><line style="stroke:#181818;stroke-width:0.5;" x1="336.64" x2="539.6573" y1="221.74" y2="221.74"/><ellipse cx="346.64" cy="236.774" fill="#84BE84" rx="3" ry="3" style="stroke:#038048;stroke-width:1;"/><text fill="#000000" font-family="sans-serif" font-size="14" lengthAdjust="spacing" textLength="179.0173" x="355.64" y="240.7059">login(username, password)</text></g><!--class AuthController--><g class="entity" data-entity="AuthController" data-source-line="45" data-uid="ent0010" id="entity_AuthController"><rect fill="#F1F1F1" height="67.0679" rx="2.5" ry="2.5" style="stroke:#181818;stroke-width:0.5;" width="157.5575" x="531.37" y="356.48"/><ellipse cx="559.0041" cy="372.48" fill="#ADD1B2" rx="11" ry="11" style="stroke:#181818;stroke-width:1;"/><path d="M559.1135,368.0113 Q558.1916,368.0113 557.4573,368.3238 Q556.7385,368.6363 556.2385,369.23 Q555.7385,369.8081 555.4573,370.6831 Q555.1916,371.5581 555.1916,372.6519 Q555.1916,374.0894 555.6291,375.1363 Q556.0823,376.1831 556.926,376.73 Q557.7854,377.2769 559.0979,377.2769 Q559.8791,377.2769 560.5666,377.1519 Q561.2698,377.0113 562.2698,376.6988 L562.2698,378.5738 Q561.4104,378.9019 560.6448,379.0269 Q559.8948,379.1519 558.8791,379.1519 Q556.9573,379.1519 555.6448,378.355 Q554.3479,377.5425 553.6916,376.0738 Q553.0354,374.5894 553.0354,372.6206 Q553.0354,371.1988 553.426,370.0269 Q553.8323,368.8394 554.6135,367.9644 Q555.3948,367.0894 556.5354,366.6206 Q557.676,366.1363 559.1448,366.1363 Q560.0979,366.1363 560.9885,366.3394 Q561.8948,366.5269 562.8323,366.9956 L562.0041,368.7769 Q561.2229,368.4019 560.5666,368.2144 Q559.9104,368.0113 559.1135,368.0113 Z " fill="#000000"/><text fill="#000000" font-family="sans-serif" font-size="14" lengthAdjust="spacing" textLength="97.4816" x="575.8117" y="377.912">AuthController</text><line style="stroke:#181818;stroke-width:0.5;" x1="532.37" x2="687.9275" y1="388.48" y2="388.48"/><line style="stroke:#181818;stroke-width:0.5;" x1="532.37" x2="687.9275" y1="396.48" y2="396.48"/><ellipse cx="542.37" cy="411.514" fill="#84BE84" rx="3" ry="3" style="stroke:#038048;stroke-width:1;"/><text fill="#000000" font-family="sans-serif" font-size="14" lengthAdjust="spacing" textLength="131.5575" x="551.37" y="415.4459">login(LoginRequest)</text></g><!--class LoginService--><g class="entity" data-entity="LoginService" data-source-line="48" data-uid="ent0011" id="entity_LoginService"><rect fill="#F1F1F1" height="67.0679" rx="2.5" ry="2.5" style="stroke:#181818;stroke-width:0.5;" width="288.303" x="356" y="502.61"/><ellipse cx="454.2097" cy="518.61" fill="#ADD1B2" rx="11" ry="11" style="stroke:#181818;stroke-width:1;"/><path d="M454.319,514.1412 Q453.3972,514.1412 452.6628,514.4537 Q451.944,514.7662 451.444,515.36 Q450.944,515.9381 450.6628,516.8131 Q450.3972,517.6881 450.3972,518.7819 Q450.3972,520.2194 450.8347,521.2662 Q451.2878,522.3131 452.1315,522.86 Q452.9909,523.4069 454.3034,523.4069 Q455.0847,523.4069 455.7722,523.2819 Q456.4753,523.1412 457.4753,522.8287 L457.4753,524.7037 Q456.6159,525.0319 455.8503,525.1569 Q455.1003,525.2819 454.0847,525.2819 Q452.1628,525.2819 450.8503,524.485 Q449.5534,523.6725 448.8972,522.2037 Q448.2409,520.7194 448.2409,518.7506 Q448.2409,517.3287 448.6315,516.1569 Q449.0378,514.9694 449.819,514.0944 Q450.6003,513.2194 451.7409,512.7506 Q452.8815,512.2662 454.3503,512.2662 Q455.3034,512.2662 456.194,512.4694 Q457.1003,512.6569 458.0378,513.1256 L457.2097,514.9069 Q456.4284,514.5319 455.7722,514.3444 Q455.1159,514.1412 454.319,514.1412 Z " fill="#000000"/><text fill="#000000" font-family="sans-serif" font-size="14" lengthAdjust="spacing" textLength="83.3837" x="474.7097" y="524.042">LoginService</text><line style="stroke:#181818;stroke-width:0.5;" x1="357" x2="643.303" y1="534.61" y2="534.61"/><line style="stroke:#181818;stroke-width:0.5;" x1="357" x2="643.303" y1="542.61" y2="542.61"/><ellipse cx="367" cy="557.644" fill="#84BE84" rx="3" ry="3" style="stroke:#038048;stroke-width:1;"/><text fill="#000000" font-family="sans-serif" font-size="14" lengthAdjust="spacing" textLength="262.303" x="376" y="561.5759">loginUser(usernameOrEmail, password)</text></g><!--class UserService--><g class="entity" data-entity="UserService" data-source-line="51" data-uid="ent0012" id="entity_UserService"><rect fill="#F1F1F1" height="67.0679" rx="2.5" ry="2.5" style="stroke:#181818;stroke-width:0.5;" width="316.3029" x="7" y="629.68"/><ellipse cx="122.2406" cy="645.68" fill="#ADD1B2" rx="11" ry="11" style="stroke:#181818;stroke-width:1;"/><path d="M122.35,641.2113 Q121.4281,641.2113 120.6937,641.5238 Q119.975,641.8363 119.475,642.43 Q118.975,643.0081 118.6937,643.8831 Q118.4281,644.7581 118.4281,645.8519 Q118.4281,647.2894 118.8656,648.3363 Q119.3187,649.3831 120.1625,649.93 Q121.0218,650.4769 122.3343,650.4769 Q123.1156,650.4769 123.8031,650.3519 Q124.5062,650.2113 125.5062,649.8988 L125.5062,651.7738 Q124.6468,652.1019 123.8812,652.2269 Q123.1312,652.3519 122.1156,652.3519 Q120.1937,652.3519 118.8812,651.555 Q117.5843,650.7425 116.9281,649.2738 Q116.2718,647.7894 116.2718,645.8206 Q116.2718,644.3988 116.6625,643.2269 Q117.0687,642.0394 117.85,641.1644 Q118.6312,640.2894 119.7718,639.8206 Q120.9125,639.3363 122.3812,639.3363 Q123.3343,639.3363 124.225,639.5394 Q125.1312,639.7269 126.0687,640.1956 L125.2406,641.9769 Q124.4593,641.6019 123.8031,641.4144 Q123.1468,641.2113 122.35,641.2113 Z " fill="#000000"/><text fill="#000000" font-family="sans-serif" font-size="14" lengthAdjust="spacing" textLength="77.3217" x="142.7406" y="651.112">UserService</text><line style="stroke:#181818;stroke-width:0.5;" x1="8" x2="322.3029" y1="661.68" y2="661.68"/><line style="stroke:#181818;stroke-width:0.5;" x1="8" x2="322.3029" y1="669.68" y2="669.68"/><ellipse cx="18" cy="684.714" fill="#84BE84" rx="3" ry="3" style="stroke:#038048;stroke-width:1;"/><text fill="#000000" font-family="sans-serif" font-size="14" lengthAdjust="spacing" textLength="290.3029" x="27" y="688.6459">findByUsernameOrEmail(usernameOrEmail)</text></g><!--class PasswordService--><g class="entity" data-entity="PasswordService" data-source-line="54" data-uid="ent0013" id="entity_PasswordService"><rect fill="#F1F1F1" height="67.0679" rx="2.5" ry="2.5" style="stroke:#181818;stroke-width:0.5;" width="237.3572" x="358.47" y="629.68"/><ellipse cx="417.7458" cy="645.68" fill="#ADD1B2" rx="11" ry="11" style="stroke:#181818;stroke-width:1;"/><path d="M417.8552,641.2113 Q416.9333,641.2113 416.1989,641.5238 Q415.4802,641.8363 414.9802,642.43 Q414.4802,643.0081 414.1989,643.8831 Q413.9333,644.7581 413.9333,645.8519 Q413.9333,647.2894 414.3708,648.3363 Q414.8239,649.3831 415.6677,649.93 Q416.5271,650.4769 417.8396,650.4769 Q418.6208,650.4769 419.3083,650.3519 Q420.0114,650.2113 421.0114,649.8988 L421.0114,651.7738 Q420.1521,652.1019 419.3864,652.2269 Q418.6364,652.3519 417.6208,652.3519 Q415.6989,652.3519 414.3864,651.555 Q413.0896,650.7425 412.4333,649.2738 Q411.7771,647.7894 411.7771,645.8206 Q411.7771,644.3988 412.1677,643.2269 Q412.5739,642.0394 413.3552,641.1644 Q414.1364,640.2894 415.2771,639.8206 Q416.4177,639.3363 417.8864,639.3363 Q418.8396,639.3363 419.7302,639.5394 Q420.6364,639.7269 421.5739,640.1956 L420.7458,641.9769 Q419.9646,641.6019 419.3083,641.4144 Q418.6521,641.2113 417.8552,641.2113 Z " fill="#000000"/><text fill="#000000" font-family="sans-serif" font-size="14" lengthAdjust="spacing" textLength="110.3056" x="438.2458" y="651.112">PasswordService</text><line style="stroke:#181818;stroke-width:0.5;" x1="359.47" x2="594.8272" y1="661.68" y2="661.68"/><line style="stroke:#181818;stroke-width:0.5;" x1="359.47" x2="594.8272" y1="669.68" y2="669.68"/><ellipse cx="369.47" cy="684.714" fill="#84BE84" rx="3" ry="3" style="stroke:#038048;stroke-width:1;"/><text fill="#000000" font-family="sans-serif" font-size="14" lengthAdjust="spacing" textLength="211.3572" x="378.47" y="688.6459">verifyPassword(password, hash)</text></g><!--class SessionService--><g class="entity" data-entity="SessionService" data-source-line="57" data-uid="ent0014" id="entity_SessionService"><rect fill="#F1F1F1" height="67.0679" rx="2.5" ry="2.5" style="stroke:#181818;stroke-width:0.5;" width="155.9475" x="642.18" y="756.75"/><ellipse cx="669.5621" cy="772.75" fill="#ADD1B2" rx="11" ry="11" style="stroke:#181818;stroke-width:1;"/><path d="M669.6715,768.2813 Q668.7496,768.2813 668.0153,768.5938 Q667.2965,768.9063 666.7965,769.5 Q666.2965,770.0781 666.0153,770.9531 Q665.7496,771.8281 665.7496,772.9219 Q665.7496,774.3594 666.1871,775.4063 Q666.6403,776.4531 667.484,777 Q668.3434,777.5469 669.6559,777.5469 Q670.4371,777.5469 671.1246,777.4219 Q671.8278,777.2813 672.8278,776.9688 L672.8278,778.8438 Q671.9684,779.1719 671.2028,779.2969 Q670.4528,779.4219 669.4371,779.4219 Q667.5153,779.4219 666.2028,778.625 Q664.9059,777.8125 664.2496,776.3438 Q663.5934,774.8594 663.5934,772.8906 Q663.5934,771.4688 663.984,770.2969 Q664.3903,769.1094 665.1715,768.2344 Q665.9528,767.3594 667.0934,766.8906 Q668.234,766.4063 669.7028,766.4063 Q670.6559,766.4063 671.5465,766.6094 Q672.4528,766.7969 673.3903,767.2656 L672.5621,769.0469 Q671.7809,768.6719 671.1246,768.4844 Q670.4684,768.2813 669.6715,768.2813 Z " fill="#000000"/><text fill="#000000" font-family="sans-serif" font-size="14" lengthAdjust="spacing" textLength="96.4316" x="686.3137" y="778.182">SessionService</text><line style="stroke:#181818;stroke-width:0.5;" x1="643.18" x2="797.1275" y1="788.75" y2="788.75"/><line style="stroke:#181818;stroke-width:0.5;" x1="643.18" x2="797.1275" y1="796.75" y2="796.75"/><ellipse cx="653.18" cy="811.784" fill="#84BE84" rx="3" ry="3" style="stroke:#038048;stroke-width:1;"/><text fill="#000000" font-family="sans-serif" font-size="14" lengthAdjust="spacing" textLength="129.9475" x="662.18" y="815.7159">createSession(User)</text></g><!--class UserRepository--><g class="entity" data-entity="UserRepository" data-source-line="62" data-uid="ent0015" id="entity_UserRepository"><rect fill="#F1F1F1" height="67.0679" rx="2.5" ry="2.5" style="stroke:#181818;stroke-width:0.5;" width="316.3029" x="291" y="756.75"/><ellipse cx="394.3686" cy="772.75" fill="#ADD1B2" rx="11" ry="11" style="stroke:#181818;stroke-width:1;"/><path d="M394.478,768.2813 Q393.5561,768.2813 392.8218,768.5938 Q392.103,768.9063 391.603,769.5 Q391.103,770.0781 390.8218,770.9531 Q390.5561,771.8281 390.5561,772.9219 Q390.5561,774.3594 390.9936,775.4063 Q391.4468,776.4531 392.2905,777 Q393.1499,777.5469 394.4624,777.5469 Q395.2436,777.5469 395.9311,777.4219 Q396.6343,777.2813 397.6343,776.9688 L397.6343,778.8438 Q396.7749,779.1719 396.0093,779.2969 Q395.2593,779.4219 394.2436,779.4219 Q392.3218,779.4219 391.0093,778.625 Q389.7124,777.8125 389.0561,776.3438 Q388.3999,774.8594 388.3999,772.8906 Q388.3999,771.4688 388.7905,770.2969 Q389.1968,769.1094 389.978,768.2344 Q390.7593,767.3594 391.8999,766.8906 Q393.0405,766.4063 394.5093,766.4063 Q395.4624,766.4063 396.353,766.6094 Q397.2593,766.7969 398.1968,767.2656 L397.3686,769.0469 Q396.5874,768.6719 395.9311,768.4844 Q395.2749,768.2813 394.478,768.2813 Z " fill="#000000"/><text fill="#000000" font-family="sans-serif" font-size="14" lengthAdjust="spacing" textLength="101.0656" x="414.8686" y="778.182">UserRepository</text><line style="stroke:#181818;stroke-width:0.5;" x1="292" x2="606.3029" y1="788.75" y2="788.75"/><line style="stroke:#181818;stroke-width:0.5;" x1="292" x2="606.3029" y1="796.75" y2="796.75"/><ellipse cx="302" cy="811.784" fill="#84BE84" rx="3" ry="3" style="stroke:#038048;stroke-width:1;"/><text fill="#000000" font-family="sans-serif" font-size="14" lengthAdjust="spacing" textLength="290.3029" x="311" y="815.7159">findByUsernameOrEmail(usernameOrEmail)</text></g><!--link LoginController to ApiClient--><g class="link" data-entity-1="LoginController" data-entity-2="ApiClient" data-source-line="67" data-uid="lnk16" id="link_LoginController_ApiClient"><path codeLine="67" d="M349.61,84.1 C368.87,112.41 393.0962,148.0284 412.3462,176.3384" fill="none" id="LoginController-to-ApiClient" style="stroke:#181818;stroke-width:1;"/><polygon fill="#181818" points="415.72,181.3,413.9671,171.6084,412.9085,177.1653,407.3516,176.1067,415.72,181.3" style="stroke:#181818;stroke-width:1;"/></g><!--link LoginController to SessionManager--><g class="link" data-entity-1="LoginController" data-entity-2="SessionManager" data-source-line="68" data-uid="lnk17" id="link_LoginController_SessionManager"><path codeLine="68" d="M304.89,84.1 C291.58,103.84 277.6027,124.5741 261.8627,147.9341" fill="none" id="LoginController-to-SessionManager" style="stroke:#181818;stroke-width:1;"/><polygon fill="#181818" points="258.51,152.91,266.8563,147.6814,261.3039,148.7635,260.2219,143.2111,258.51,152.91" style="stroke:#181818;stroke-width:1;"/></g><!--link ApiClient to AuthController--><g class="link" data-entity-1="ApiClient" data-entity-2="AuthController" data-source-line="69" data-uid="lnk18" id="link_ApiClient_AuthController"><path codeLine="69" d="M470.91,249.17 C501.51,279.91 542.7164,321.2884 573.2864,351.9884" fill="none" id="ApiClient-to-AuthController" style="stroke:#181818;stroke-width:1;"/><polygon fill="#181818" points="577.52,356.24,574.004,347.0401,573.992,352.697,568.3351,352.685,577.52,356.24" style="stroke:#181818;stroke-width:1;"/></g><!--link AuthController to LoginService--><g class="link" data-entity-1="AuthController" data-entity-2="LoginService" data-source-line="70" data-uid="lnk19" id="link_AuthController_LoginService"><path codeLine="70" d="M585.19,423.72 C567.19,447.31 546.63,474.2403 528.65,497.8003" fill="none" id="AuthController-to-LoginService" style="stroke:#181818;stroke-width:1;"/><polygon fill="#181818" points="525.01,502.57,533.6499,497.8421,528.0434,498.5952,527.2903,492.9887,525.01,502.57" style="stroke:#181818;stroke-width:1;"/></g><!--link LoginService to UserService--><g class="link" data-entity-1="LoginService" data-entity-2="UserService" data-source-line="71" data-uid="lnk20" id="link_LoginService_UserService"><path codeLine="71" d="M411.7,570.17 C362.85,588.41 307.9812,608.8918 259.1412,627.1218" fill="none" id="LoginService-to-UserService" style="stroke:#181818;stroke-width:1;"/><polygon fill="#181818" points="253.52,629.22,263.3506,629.8202,258.2043,627.4715,260.553,622.3253,253.52,629.22" style="stroke:#181818;stroke-width:1;"/></g><!--link LoginService to PasswordService--><g class="link" data-entity-1="LoginService" data-entity-2="PasswordService" data-source-line="72" data-uid="lnk21" id="link_LoginService_PasswordService"><path codeLine="72" d="M494.11,570.01 C490.73,588.39 487.6175,605.3294 484.2375,623.6694" fill="none" id="LoginService-to-PasswordService" style="stroke:#181818;stroke-width:1;"/><polygon fill="#181818" points="483.15,629.57,488.715,621.444,484.0562,624.6528,480.8474,619.9941,483.15,629.57" style="stroke:#181818;stroke-width:1;"/></g><!--link LoginService to UserRepository--><g class="link" data-entity-1="LoginService" data-entity-2="UserRepository" data-source-line="73" data-uid="lnk22" id="link_LoginService_UserRepository"><path codeLine="73" d="M558.93,569.99 C580.09,585.16 601.59,605.27 613.15,629.68 C625.91,656.62 628.18,671.01 613.15,696.75 C597.82,723 577.2889,739.5943 550.6089,753.6443" fill="none" id="LoginService-to-UserRepository" style="stroke:#181818;stroke-width:1;"/><polygon fill="#181818" points="545.3,756.44,555.1271,755.7857,549.7241,754.1102,551.3995,748.7072,545.3,756.44" style="stroke:#181818;stroke-width:1;"/></g><!--link AuthController to SessionService--><g class="link" data-entity-1="AuthController" data-entity-2="SessionService" data-source-line="74" data-uid="lnk23" id="link_AuthController_SessionService"><path codeLine="74" d="M627.98,423.87 C639.17,445.66 653.13,475.2 662.15,502.61 C691.59,592.09 708.0202,696.4635 715.2802,750.4435" fill="none" id="AuthController-to-SessionService" style="stroke:#181818;stroke-width:1;"/><polygon fill="#181818" points="716.08,756.39,718.8447,746.9371,715.4135,751.4346,710.916,748.0035,716.08,756.39" style="stroke:#181818;stroke-width:1;"/></g><!--link SessionService to User--><g class="link" data-entity-1="SessionService" data-entity-2="User" data-source-line="75" data-uid="lnk24" id="link_SessionService_User"><path codeLine="75" d="M689.29,823.99 C672.75,841.51 656.1075,859.1558 637.4075,878.9758" fill="none" id="SessionService-to-User" style="stroke:#181818;stroke-width:1;"/><polygon fill="#181818" points="633.29,883.34,642.3757,879.5388,636.7213,879.7032,636.5569,874.0487,633.29,883.34" style="stroke:#181818;stroke-width:1;"/></g><!--link UserService to UserRepository--><g class="link" data-entity-1="UserService" data-entity-2="UserRepository" data-source-line="76" data-uid="lnk25" id="link_UserService_UserRepository"><path codeLine="76" d="M240.14,697.24 C281.55,715.48 327.3388,735.642 368.7388,753.872" fill="none" id="UserService-to-UserRepository" style="stroke:#181818;stroke-width:1;"/><polygon fill="#181818" points="374.23,756.29,367.6052,749.0022,369.654,754.275,364.3812,756.3238,374.23,756.29" style="stroke:#181818;stroke-width:1;"/></g><!--link UserRepository to User--><g class="link" data-entity-1="UserRepository" data-entity-2="User" data-source-line="77" data-uid="lnk26" id="link_UserRepository_User"><path codeLine="77" d="M479.79,823.99 C496.2,841.51 512.7089,859.1404 531.2689,878.9604" fill="none" id="UserRepository-to-User" style="stroke:#181818;stroke-width:1;"/><polygon fill="#181818" points="535.37,883.34,532.138,874.0366,531.9524,879.6904,526.2986,879.5047,535.37,883.34" style="stroke:#181818;stroke-width:1;"/></g><!--link SessionManager to LoginResponse--><g class="link" data-entity-1="SessionManager" data-entity-2="LoginResponse" data-source-line="78" data-uid="lnk27" id="link_SessionManager_LoginResponse"><path codeLine="78" d="M223.55,277.66 C225.57,297.05 227.1567,312.3225 229.1067,330.9925" fill="none" id="SessionManager-to-LoginResponse" style="stroke:#181818;stroke-width:1;"/><polygon fill="#181818" points="229.73,336.96,232.7734,327.5932,229.2106,331.9871,224.8167,328.4242,229.73,336.96" style="stroke:#181818;stroke-width:1;"/></g><!--link ApiClient to LoginResponse--><g class="link" data-entity-1="ApiClient" data-entity-2="LoginResponse" data-source-line="79" data-uid="lnk28" id="link_ApiClient_LoginResponse"><path codeLine="79" d="M399.49,249.17 C370.27,274.03 334.1693,304.7513 300.5993,333.3213" fill="none" id="ApiClient-to-LoginResponse" style="stroke:#181818;stroke-width:1;"/><polygon fill="#181818" points="296.03,337.21,305.4763,334.4231,299.8377,333.9694,300.2914,328.3308,296.03,337.21" style="stroke:#181818;stroke-width:1;"/></g><!--link ApiClient to ApiResponse--><g class="link" data-entity-1="ApiClient" data-entity-2="ApiResponse" data-source-line="80" data-uid="lnk29" id="link_ApiClient_ApiResponse"><path codeLine="80" d="M436.25,249.17 C434.81,274.03 433.1459,302.65 431.4959,331.22" fill="none" id="ApiClient-to-ApiResponse" style="stroke:#181818;stroke-width:1;"/><polygon fill="#181818" points="431.15,337.21,435.6623,328.4556,431.4383,332.2183,427.6756,327.9943,431.15,337.21" style="stroke:#181818;stroke-width:1;"/></g><!--SRC=[bLJBRi8m4BpxAtmZ2F8372e1vL2fLH613t2JXLWrTcexLAZglzTsddPI12UYtSpCpiw62LuB2JWJPq8vJXbH2XHol_YWGE8VX76CI_F8oHaMED6IyfChWi4mhr8OsBUGMLlyHJskPotkfskHh-94-Gw-Ib3w5ln_xPf15O8hUCoGMOQYWk_59_0XyRAW0QqgqzH05lX320Q4k-BPLCZ9byg89WkyjrmJV7W9DkycNWkkfM2i3c66Sy8p1gwtAhKMF9eQV8L8ga7V23TAJMgZqz_jVeQPbOgyzNMAnloQKU2wdgvwkM6UjtbCAu-xJR8FN2vBdGzCUfekz4xILHEG5vf2_tLxNAtokznO8_u0tH7wy2FbsUfwyA4XLKUmhIbzaWj8UhmslQZHdPl0L3w8oCUc4eY6kXNPGUfzRK4ggZJm57hJxw0GYceXhuyQi1408zh8g9mM2eKt5iTFNQQZNV_6K7S03kg5YO9ixHlzz90NfUtsiXasWxsFexlTZAdxsqT160q7wf_8276GGGiBFh_MRlFP1CkwrUlzgQ0_]--></g></svg>