<svg xmlns="http://www.w3.org/2000/svg" xmlns:xlink="http://www.w3.org/1999/xlink" contentStyleType="text/css" data-diagram-type="CLASS" height="1053px" preserveAspectRatio="none" style="width:733px;height:1053px;background:#FFFFFF;" version="1.1" viewBox="0 0 733 1053" width="733px" zoomAndPan="magnify"><defs/><g><!--class User--><g class="entity" data-entity="User" data-source-line="2" data-uid="ent0002" id="entity_User"><rect fill="#F1F1F1" height="124.2717" rx="2.5" ry="2.5" style="stroke:#181818;stroke-width:0.5;" width="139.3156" x="306.49" y="921.95"/><ellipse cx="356.5888" cy="937.95" fill="#ADD1B2" rx="11" ry="11" style="stroke:#181818;stroke-width:1;"/><path d="M356.6982,933.4813 Q355.7763,933.4813 355.042,933.7938 Q354.3232,934.1063 353.8232,934.7 Q353.3232,935.2781 353.042,936.1531 Q352.7763,937.0281 352.7763,938.1219 Q352.7763,939.5594 353.2138,940.6063 Q353.667,941.6531 354.5107,942.2 Q355.3701,942.7469 356.6826,942.7469 Q357.4638,942.7469 358.1513,942.6219 Q358.8545,942.4813 359.8545,942.1688 L359.8545,944.0438 Q358.9951,944.3719 358.2295,944.4969 Q357.4795,944.6219 356.4638,944.6219 Q354.542,944.6219 353.2295,943.825 Q351.9326,943.0125 351.2763,941.5438 Q350.6201,940.0594 350.6201,938.0906 Q350.6201,936.6688 351.0107,935.4969 Q351.417,934.3094 352.1982,933.4344 Q352.9795,932.5594 354.1201,932.0906 Q355.2607,931.6063 356.7295,931.6063 Q357.6826,931.6063 358.5732,931.8094 Q359.4795,931.9969 360.417,932.4656 L359.5888,934.2469 Q358.8076,933.8719 358.1513,933.6844 Q357.4951,933.4813 356.6982,933.4813 Z " fill="#000000"/><text fill="#000000" font-family="sans-serif" font-size="14" lengthAdjust="spacing" textLength="30.6179" x="377.0888" y="943.382">User</text><line style="stroke:#181818;stroke-width:0.5;" x1="307.49" x2="444.8056" y1="953.95" y2="953.95"/><rect fill="none" height="6" style="stroke:#C82930;stroke-width:1;" width="6" x="314.49" y="965.984"/><text fill="#000000" font-family="sans-serif" font-size="14" lengthAdjust="spacing" textLength="113.3156" x="326.49" y="972.9159">username: String</text><rect fill="none" height="6" style="stroke:#C82930;stroke-width:1;" width="6" x="314.49" y="985.0519"/><text fill="#000000" font-family="sans-serif" font-size="14" lengthAdjust="spacing" textLength="82.8517" x="326.49" y="991.9839">email: String</text><rect fill="none" height="6" style="stroke:#C82930;stroke-width:1;" width="6" x="314.49" y="1004.1198"/><text fill="#000000" font-family="sans-serif" font-size="14" lengthAdjust="spacing" textLength="110.5296" x="326.49" y="1011.0518">password: String</text><rect fill="none" height="6" style="stroke:#C82930;stroke-width:1;" width="6" x="314.49" y="1023.1877"/><text fill="#000000" font-family="sans-serif" font-size="14" lengthAdjust="spacing" textLength="90.7897" x="326.49" y="1030.1197">userID: String</text><line style="stroke:#181818;stroke-width:0.5;" x1="307.49" x2="444.8056" y1="1038.2217" y2="1038.2217"/></g><!--class UserDto--><g class="entity" data-entity="UserDto" data-source-line="9" data-uid="ent0003" id="entity_UserDto"><rect fill="#F1F1F1" height="86.1358" rx="2.5" ry="2.5" style="stroke:#181818;stroke-width:0.5;" width="139.3156" x="383.49" y="7"/><ellipse cx="422.3192" cy="23" fill="#ADD1B2" rx="11" ry="11" style="stroke:#181818;stroke-width:1;"/><path d="M422.4286,18.5313 Q421.5067,18.5313 420.7723,18.8438 Q420.0536,19.1563 419.5536,19.75 Q419.0536,20.3281 418.7723,21.2031 Q418.5067,22.0781 418.5067,23.1719 Q418.5067,24.6094 418.9442,25.6563 Q419.3973,26.7031 420.2411,27.25 Q421.1004,27.7969 422.4129,27.7969 Q423.1942,27.7969 423.8817,27.6719 Q424.5848,27.5313 425.5848,27.2188 L425.5848,29.0938 Q424.7254,29.4219 423.9598,29.5469 Q423.2098,29.6719 422.1942,29.6719 Q420.2723,29.6719 418.9598,28.875 Q417.6629,28.0625 417.0067,26.5938 Q416.3504,25.1094 416.3504,23.1406 Q416.3504,21.7188 416.7411,20.5469 Q417.1473,19.3594 417.9286,18.4844 Q418.7098,17.6094 419.8504,17.1406 Q420.9911,16.6563 422.4598,16.6563 Q423.4129,16.6563 424.3036,16.8594 Q425.2098,17.0469 426.1473,17.5156 L425.3192,19.2969 Q424.5379,18.9219 423.8817,18.7344 Q423.2254,18.5313 422.4286,18.5313 Z " fill="#000000"/><text fill="#000000" font-family="sans-serif" font-size="14" lengthAdjust="spacing" textLength="54.3618" x="441.6146" y="28.432">UserDto</text><line style="stroke:#181818;stroke-width:0.5;" x1="384.49" x2="521.8056" y1="39" y2="39"/><rect fill="none" height="6" style="stroke:#C82930;stroke-width:1;" width="6" x="391.49" y="51.034"/><text fill="#000000" font-family="sans-serif" font-size="14" lengthAdjust="spacing" textLength="113.3156" x="403.49" y="57.9659">username: String</text><rect fill="none" height="6" style="stroke:#C82930;stroke-width:1;" width="6" x="391.49" y="70.1019"/><text fill="#000000" font-family="sans-serif" font-size="14" lengthAdjust="spacing" textLength="82.8517" x="403.49" y="77.0339">email: String</text><line style="stroke:#181818;stroke-width:0.5;" x1="384.49" x2="521.8056" y1="85.1358" y2="85.1358"/></g><!--class LoginRequest--><g class="entity" data-entity="LoginRequest" data-source-line="14" data-uid="ent0004" id="entity_LoginRequest"><rect fill="#F1F1F1" height="86.1358" rx="2.5" ry="2.5" style="stroke:#181818;stroke-width:0.5;" width="139.3156" x="557.49" y="7"/><ellipse cx="580.1913" cy="23" fill="#ADD1B2" rx="11" ry="11" style="stroke:#181818;stroke-width:1;"/><path d="M580.3006,18.5313 Q579.3788,18.5313 578.6444,18.8438 Q577.9256,19.1563 577.4256,19.75 Q576.9256,20.3281 576.6444,21.2031 Q576.3788,22.0781 576.3788,23.1719 Q576.3788,24.6094 576.8163,25.6563 Q577.2694,26.7031 578.1131,27.25 Q578.9725,27.7969 580.285,27.7969 Q581.0663,27.7969 581.7538,27.6719 Q582.4569,27.5313 583.4569,27.2188 L583.4569,29.0938 Q582.5975,29.4219 581.8319,29.5469 Q581.0819,29.6719 580.0663,29.6719 Q578.1444,29.6719 576.8319,28.875 Q575.535,28.0625 574.8788,26.5938 Q574.2225,25.1094 574.2225,23.1406 Q574.2225,21.7188 574.6131,20.5469 Q575.0194,19.3594 575.8006,18.4844 Q576.5819,17.6094 577.7225,17.1406 Q578.8631,16.6563 580.3319,16.6563 Q581.285,16.6563 582.1756,16.8594 Q583.0819,17.0469 584.0194,17.5156 L583.1913,19.2969 Q582.41,18.9219 581.7538,18.7344 Q581.0975,18.5313 580.3006,18.5313 Z " fill="#000000"/><text fill="#000000" font-family="sans-serif" font-size="14" lengthAdjust="spacing" textLength="90.2016" x="595.9027" y="28.432">LoginRequest</text><line style="stroke:#181818;stroke-width:0.5;" x1="558.49" x2="695.8056" y1="39" y2="39"/><rect fill="none" height="6" style="stroke:#C82930;stroke-width:1;" width="6" x="565.49" y="51.034"/><text fill="#000000" font-family="sans-serif" font-size="14" lengthAdjust="spacing" textLength="113.3156" x="577.49" y="57.9659">username: String</text><rect fill="none" height="6" style="stroke:#C82930;stroke-width:1;" width="6" x="565.49" y="70.1019"/><text fill="#000000" font-family="sans-serif" font-size="14" lengthAdjust="spacing" textLength="110.5296" x="577.49" y="77.0339">password: String</text><line style="stroke:#181818;stroke-width:0.5;" x1="558.49" x2="695.8056" y1="85.1358" y2="85.1358"/></g><!--class LoginResponse--><g class="entity" data-entity="LoginResponse" data-source-line="19" data-uid="ent0005" id="entity_LoginResponse"><rect fill="#F1F1F1" height="124.2717" rx="2.5" ry="2.5" style="stroke:#181818;stroke-width:0.5;" width="161.8135" x="95.24" y="356.47"/><ellipse cx="123.5104" cy="372.47" fill="#ADD1B2" rx="11" ry="11" style="stroke:#181818;stroke-width:1;"/><path d="M123.6198,368.0013 Q122.6979,368.0013 121.9636,368.3138 Q121.2448,368.6263 120.7448,369.22 Q120.2448,369.7981 119.9636,370.6731 Q119.6979,371.5481 119.6979,372.6419 Q119.6979,374.0794 120.1354,375.1263 Q120.5886,376.1731 121.4323,376.72 Q122.2917,377.2669 123.6042,377.2669 Q124.3854,377.2669 125.0729,377.1419 Q125.7761,377.0013 126.7761,376.6888 L126.7761,378.5638 Q125.9167,378.8919 125.1511,379.0169 Q124.4011,379.1419 123.3854,379.1419 Q121.4636,379.1419 120.1511,378.345 Q118.8542,377.5325 118.1979,376.0638 Q117.5417,374.5794 117.5417,372.6106 Q117.5417,371.1888 117.9323,370.0169 Q118.3386,368.8294 119.1198,367.9544 Q119.9011,367.0794 121.0417,366.6106 Q122.1823,366.1263 123.6511,366.1263 Q124.6042,366.1263 125.4948,366.3294 Q126.4011,366.5169 127.3386,366.9856 L126.5104,368.7669 Q125.7292,368.3919 125.0729,368.2044 Q124.4167,368.0013 123.6198,368.0013 Z " fill="#000000"/><text fill="#000000" font-family="sans-serif" font-size="14" lengthAdjust="spacing" textLength="100.3236" x="140.4594" y="377.902">LoginResponse</text><line style="stroke:#181818;stroke-width:0.5;" x1="96.24" x2="256.0535" y1="388.47" y2="388.47"/><rect fill="none" height="6" style="stroke:#C82930;stroke-width:1;" width="6" x="103.24" y="400.504"/><text fill="#000000" font-family="sans-serif" font-size="14" lengthAdjust="spacing" textLength="113.3156" x="115.24" y="407.4359">username: String</text><rect fill="none" height="6" style="stroke:#C82930;stroke-width:1;" width="6" x="103.24" y="419.5719"/><text fill="#000000" font-family="sans-serif" font-size="14" lengthAdjust="spacing" textLength="82.8517" x="115.24" y="426.5039">email: String</text><rect fill="none" height="6" style="stroke:#C82930;stroke-width:1;" width="6" x="103.24" y="438.6398"/><text fill="#000000" font-family="sans-serif" font-size="14" lengthAdjust="spacing" textLength="135.8135" x="115.24" y="445.5718">sessionToken: String</text><rect fill="none" height="6" style="stroke:#C82930;stroke-width:1;" width="6" x="103.24" y="457.7077"/><text fill="#000000" font-family="sans-serif" font-size="14" lengthAdjust="spacing" textLength="89.1797" x="115.24" y="464.6397">userId: String</text><line style="stroke:#181818;stroke-width:0.5;" x1="96.24" x2="256.0535" y1="472.7417" y2="472.7417"/></g><!--class ApiResponse--><g class="entity" data-entity="ApiResponse" data-source-line="26" data-uid="ent0006" id="entity_ApiResponse"><rect fill="#F1F1F1" height="105.2038" rx="2.5" ry="2.5" style="stroke:#181818;stroke-width:0.5;" width="137.0616" x="300.62" y="366.01"/><ellipse cx="320.227" cy="382.01" fill="#ADD1B2" rx="11" ry="11" style="stroke:#181818;stroke-width:1;"/><path d="M320.3364,377.5413 Q319.4145,377.5413 318.6802,377.8538 Q317.9614,378.1663 317.4614,378.76 Q316.9614,379.3381 316.6802,380.2131 Q316.4145,381.0881 316.4145,382.1819 Q316.4145,383.6194 316.852,384.6663 Q317.3052,385.7131 318.1489,386.26 Q319.0083,386.8069 320.3208,386.8069 Q321.102,386.8069 321.7895,386.6819 Q322.4927,386.5413 323.4927,386.2288 L323.4927,388.1038 Q322.6333,388.4319 321.8677,388.5569 Q321.1177,388.6819 320.102,388.6819 Q318.1802,388.6819 316.8677,387.885 Q315.5708,387.0725 314.9145,385.6038 Q314.2583,384.1194 314.2583,382.1506 Q314.2583,380.7288 314.6489,379.5569 Q315.0552,378.3694 315.8364,377.4944 Q316.6177,376.6194 317.7583,376.1506 Q318.8989,375.6663 320.3677,375.6663 Q321.3208,375.6663 322.2114,375.8694 Q323.1177,376.0569 324.0552,376.5256 L323.227,378.3069 Q322.4458,377.9319 321.7895,377.7444 Q321.1333,377.5413 320.3364,377.5413 Z " fill="#000000"/><text fill="#000000" font-family="sans-serif" font-size="14" lengthAdjust="spacing" textLength="84.8117" x="335.2508" y="387.442">ApiResponse</text><rect fill="#FFFFFF" height="18.3441" style="stroke:#181818;stroke-width:1;stroke-dasharray:2,2;" width="8.012" x="432.6695" y="363.01"/><text fill="#000000" font-family="sans-serif" font-size="12" font-style="italic" lengthAdjust="spacing" textLength="6.012" x="433.6695" y="376.8381">T</text><line style="stroke:#181818;stroke-width:0.5;" x1="301.62" x2="436.6816" y1="398.01" y2="398.01"/><rect fill="none" height="6" style="stroke:#C82930;stroke-width:1;" width="6" x="308.62" y="410.044"/><text fill="#000000" font-family="sans-serif" font-size="14" lengthAdjust="spacing" textLength="111.0616" x="320.62" y="416.9759">success: boolean</text><rect fill="none" height="6" style="stroke:#C82930;stroke-width:1;" width="6" x="308.62" y="429.1119"/><text fill="#000000" font-family="sans-serif" font-size="14" lengthAdjust="spacing" textLength="105.5456" x="320.62" y="436.0439">message: String</text><rect fill="none" height="6" style="stroke:#C82930;stroke-width:1;" width="6" x="308.62" y="448.1798"/><text fill="#000000" font-family="sans-serif" font-size="14" lengthAdjust="spacing" textLength="44.5478" x="320.62" y="455.1118">data: T</text><line style="stroke:#181818;stroke-width:0.5;" x1="301.62" x2="436.6816" y1="463.2138" y2="463.2138"/></g><!--class LoginController--><g class="entity" data-entity="LoginController" data-source-line="33" data-uid="ent0007" id="entity_LoginController"><rect fill="#F1F1F1" height="67.0679" rx="2.5" ry="2.5" style="stroke:#181818;stroke-width:0.5;" width="161.3375" x="187.48" y="16.53"/><ellipse cx="214.3959" cy="32.53" fill="#ADD1B2" rx="11" ry="11" style="stroke:#181818;stroke-width:1;"/><path d="M214.5053,28.0612 Q213.5834,28.0612 212.8491,28.3737 Q212.1303,28.6862 211.6303,29.28 Q211.1303,29.8581 210.8491,30.7331 Q210.5834,31.6081 210.5834,32.7019 Q210.5834,34.1394 211.0209,35.1862 Q211.4741,36.2331 212.3178,36.78 Q213.1772,37.3269 214.4897,37.3269 Q215.2709,37.3269 215.9584,37.2019 Q216.6616,37.0612 217.6616,36.7487 L217.6616,38.6237 Q216.8022,38.9519 216.0366,39.0769 Q215.2866,39.2019 214.2709,39.2019 Q212.3491,39.2019 211.0366,38.405 Q209.7397,37.5925 209.0834,36.1237 Q208.4272,34.6394 208.4272,32.6706 Q208.4272,31.2487 208.8178,30.0769 Q209.2241,28.8894 210.0053,28.0144 Q210.7866,27.1394 211.9272,26.6706 Q213.0678,26.1862 214.5366,26.1862 Q215.4897,26.1862 216.3803,26.3894 Q217.2866,26.5769 218.2241,27.0456 L217.3959,28.8269 Q216.6147,28.4519 215.9584,28.2644 Q215.3022,28.0612 214.5053,28.0612 Z " fill="#000000"/><text fill="#000000" font-family="sans-serif" font-size="14" lengthAdjust="spacing" textLength="102.8576" x="231.0439" y="37.962">LoginController</text><line style="stroke:#181818;stroke-width:0.5;" x1="188.48" x2="347.8175" y1="48.53" y2="48.53"/><line style="stroke:#181818;stroke-width:0.5;" x1="188.48" x2="347.8175" y1="56.53" y2="56.53"/><ellipse cx="198.48" cy="71.564" fill="#84BE84" rx="3" ry="3" style="stroke:#038048;stroke-width:1;"/><text fill="#000000" font-family="sans-serif" font-size="14" lengthAdjust="spacing" textLength="135.3375" x="207.48" y="75.4959">handleLoginButton()</text></g><!--class SessionManager--><g class="entity" data-entity="SessionManager" data-source-line="36" data-uid="ent0008" id="entity_SessionManager"><rect fill="#F1F1F1" height="143.3396" rx="2.5" ry="2.5" style="stroke:#181818;stroke-width:0.5;" width="167.6794" x="74.31" y="153.13"/><ellipse cx="101.2826" cy="169.13" fill="#ADD1B2" rx="11" ry="11" style="stroke:#181818;stroke-width:1;"/><path d="M101.392,164.6613 Q100.4701,164.6613 99.7358,164.9738 Q99.017,165.2863 98.517,165.88 Q98.017,166.4581 97.7358,167.3331 Q97.4701,168.2081 97.4701,169.3019 Q97.4701,170.7394 97.9076,171.7863 Q98.3608,172.8331 99.2045,173.38 Q100.0639,173.9269 101.3764,173.9269 Q102.1576,173.9269 102.8451,173.8019 Q103.5483,173.6613 104.5483,173.3488 L104.5483,175.2238 Q103.6889,175.5519 102.9233,175.6769 Q102.1733,175.8019 101.1576,175.8019 Q99.2358,175.8019 97.9233,175.005 Q96.6264,174.1925 95.9701,172.7238 Q95.3139,171.2394 95.3139,169.2706 Q95.3139,167.8488 95.7045,166.6769 Q96.1108,165.4894 96.892,164.6144 Q97.6733,163.7394 98.8139,163.2706 Q99.9545,162.7863 101.4233,162.7863 Q102.3764,162.7863 103.267,162.9894 Q104.1733,163.1769 105.1108,163.6456 L104.2826,165.4269 Q103.5014,165.0519 102.8451,164.8644 Q102.1889,164.6613 101.392,164.6613 Z " fill="#000000"/><text fill="#000000" font-family="sans-serif" font-size="14" lengthAdjust="spacing" textLength="109.0736" x="117.9432" y="174.562">SessionManager</text><line style="stroke:#181818;stroke-width:0.5;" x1="75.31" x2="240.9894" y1="185.13" y2="185.13"/><rect fill="none" height="6" style="stroke:#C82930;stroke-width:1;" width="6" x="82.31" y="197.164"/><text fill="#000000" font-family="sans-serif" font-size="14" lengthAdjust="spacing" textLength="135.8135" x="94.31" y="204.0959">sessionToken: String</text><rect fill="none" height="6" style="stroke:#C82930;stroke-width:1;" width="6" x="82.31" y="216.2319"/><text fill="#000000" font-family="sans-serif" font-size="14" lengthAdjust="spacing" textLength="113.3156" x="94.31" y="223.1639">username: String</text><rect fill="none" height="6" style="stroke:#C82930;stroke-width:1;" width="6" x="82.31" y="235.2998"/><text fill="#000000" font-family="sans-serif" font-size="14" lengthAdjust="spacing" textLength="82.8517" x="94.31" y="242.2318">email: String</text><rect fill="none" height="6" style="stroke:#C82930;stroke-width:1;" width="6" x="82.31" y="254.3677"/><text fill="#000000" font-family="sans-serif" font-size="14" lengthAdjust="spacing" textLength="89.1797" x="94.31" y="261.2997">userId: String</text><line style="stroke:#181818;stroke-width:0.5;" x1="75.31" x2="240.9894" y1="269.4017" y2="269.4017"/><ellipse cx="85.31" cy="284.4356" fill="#84BE84" rx="3" ry="3" style="stroke:#038048;stroke-width:1;"/><text fill="#000000" font-family="sans-serif" font-size="14" lengthAdjust="spacing" textLength="141.6794" x="94.31" y="288.3676">login(LoginResponse)</text></g><!--class ApiClient--><g class="entity" data-entity="ApiClient" data-source-line="43" data-uid="ent0009" id="entity_ApiClient"><rect fill="#F1F1F1" height="67.0679" rx="2.5" ry="2.5" style="stroke:#181818;stroke-width:0.5;" width="205.0173" x="276.64" y="191.27"/><ellipse cx="345.4778" cy="207.27" fill="#ADD1B2" rx="11" ry="11" style="stroke:#181818;stroke-width:1;"/><path d="M345.5872,202.8012 Q344.6653,202.8012 343.9309,203.1137 Q343.2122,203.4262 342.7122,204.02 Q342.2122,204.5981 341.9309,205.4731 Q341.6653,206.3481 341.6653,207.4419 Q341.6653,208.8794 342.1028,209.9262 Q342.5559,210.9731 343.3997,211.52 Q344.259,212.0669 345.5715,212.0669 Q346.3528,212.0669 347.0403,211.9419 Q347.7434,211.8012 348.7434,211.4887 L348.7434,213.3637 Q347.884,213.6919 347.1184,213.8169 Q346.3684,213.9419 345.3528,213.9419 Q343.4309,213.9419 342.1184,213.145 Q340.8215,212.3325 340.1653,210.8637 Q339.509,209.3794 339.509,207.4106 Q339.509,205.9887 339.8997,204.8169 Q340.3059,203.6294 341.0872,202.7544 Q341.8684,201.8794 343.009,201.4106 Q344.1497,200.9262 345.6184,200.9262 Q346.5715,200.9262 347.4622,201.1294 Q348.3684,201.3169 349.3059,201.7856 L348.4778,203.5669 Q347.6965,203.1919 347.0403,203.0044 Q346.384,202.8012 345.5872,202.8012 Z " fill="#000000"/><text fill="#000000" font-family="sans-serif" font-size="14" lengthAdjust="spacing" textLength="58.8418" x="365.9778" y="212.702">ApiClient</text><line style="stroke:#181818;stroke-width:0.5;" x1="277.64" x2="480.6573" y1="223.27" y2="223.27"/><line style="stroke:#181818;stroke-width:0.5;" x1="277.64" x2="480.6573" y1="231.27" y2="231.27"/><ellipse cx="287.64" cy="246.304" fill="#84BE84" rx="3" ry="3" style="stroke:#038048;stroke-width:1;"/><text fill="#000000" font-family="sans-serif" font-size="14" lengthAdjust="spacing" textLength="179.0173" x="296.64" y="250.2359">login(username, password)</text></g><!--class AuthController--><g class="entity" data-entity="AuthController" data-source-line="48" data-uid="ent0010" id="entity_AuthController"><rect fill="#F1F1F1" height="67.0679" rx="2.5" ry="2.5" style="stroke:#181818;stroke-width:0.5;" width="157.5575" x="472.37" y="385.07"/><ellipse cx="500.0041" cy="401.07" fill="#ADD1B2" rx="11" ry="11" style="stroke:#181818;stroke-width:1;"/><path d="M500.1135,396.6013 Q499.1916,396.6013 498.4573,396.9138 Q497.7385,397.2263 497.2385,397.82 Q496.7385,398.3981 496.4573,399.2731 Q496.1916,400.1481 496.1916,401.2419 Q496.1916,402.6794 496.6291,403.7263 Q497.0823,404.7731 497.926,405.32 Q498.7854,405.8669 500.0979,405.8669 Q500.8791,405.8669 501.5666,405.7419 Q502.2698,405.6013 503.2698,405.2888 L503.2698,407.1638 Q502.4104,407.4919 501.6448,407.6169 Q500.8948,407.7419 499.8791,407.7419 Q497.9573,407.7419 496.6448,406.945 Q495.3479,406.1325 494.6916,404.6638 Q494.0354,403.1794 494.0354,401.2106 Q494.0354,399.7888 494.426,398.6169 Q494.8323,397.4294 495.6135,396.5544 Q496.3948,395.6794 497.5354,395.2106 Q498.676,394.7263 500.1448,394.7263 Q501.0979,394.7263 501.9885,394.9294 Q502.8948,395.1169 503.8323,395.5856 L503.0041,397.3669 Q502.2229,396.9919 501.5666,396.8044 Q500.9104,396.6013 500.1135,396.6013 Z " fill="#000000"/><text fill="#000000" font-family="sans-serif" font-size="14" lengthAdjust="spacing" textLength="97.4816" x="516.8117" y="406.502">AuthController</text><line style="stroke:#181818;stroke-width:0.5;" x1="473.37" x2="628.9275" y1="417.07" y2="417.07"/><line style="stroke:#181818;stroke-width:0.5;" x1="473.37" x2="628.9275" y1="425.07" y2="425.07"/><ellipse cx="483.37" cy="440.104" fill="#84BE84" rx="3" ry="3" style="stroke:#038048;stroke-width:1;"/><text fill="#000000" font-family="sans-serif" font-size="14" lengthAdjust="spacing" textLength="131.5575" x="492.37" y="444.0359">login(LoginRequest)</text></g><!--class LoginService--><g class="entity" data-entity="LoginService" data-source-line="51" data-uid="ent0011" id="entity_LoginService"><rect fill="#F1F1F1" height="67.0679" rx="2.5" ry="2.5" style="stroke:#181818;stroke-width:0.5;" width="288.303" x="308" y="540.74"/><ellipse cx="406.2097" cy="556.74" fill="#ADD1B2" rx="11" ry="11" style="stroke:#181818;stroke-width:1;"/><path d="M406.319,552.2713 Q405.3972,552.2713 404.6628,552.5838 Q403.944,552.8963 403.444,553.49 Q402.944,554.0681 402.6628,554.9431 Q402.3972,555.8181 402.3972,556.9119 Q402.3972,558.3494 402.8347,559.3963 Q403.2878,560.4431 404.1315,560.99 Q404.9909,561.5369 406.3034,561.5369 Q407.0847,561.5369 407.7722,561.4119 Q408.4753,561.2713 409.4753,560.9588 L409.4753,562.8338 Q408.6159,563.1619 407.8503,563.2869 Q407.1003,563.4119 406.0847,563.4119 Q404.1628,563.4119 402.8503,562.615 Q401.5534,561.8025 400.8972,560.3338 Q400.2409,558.8494 400.2409,556.8806 Q400.2409,555.4588 400.6315,554.2869 Q401.0378,553.0994 401.819,552.2244 Q402.6003,551.3494 403.7409,550.8806 Q404.8815,550.3963 406.3503,550.3963 Q407.3034,550.3963 408.194,550.5994 Q409.1003,550.7869 410.0378,551.2556 L409.2097,553.0369 Q408.4284,552.6619 407.7722,552.4744 Q407.1159,552.2713 406.319,552.2713 Z " fill="#000000"/><text fill="#000000" font-family="sans-serif" font-size="14" lengthAdjust="spacing" textLength="83.3837" x="426.7097" y="562.172">LoginService</text><line style="stroke:#181818;stroke-width:0.5;" x1="309" x2="595.303" y1="572.74" y2="572.74"/><line style="stroke:#181818;stroke-width:0.5;" x1="309" x2="595.303" y1="580.74" y2="580.74"/><ellipse cx="319" cy="595.774" fill="#84BE84" rx="3" ry="3" style="stroke:#038048;stroke-width:1;"/><text fill="#000000" font-family="sans-serif" font-size="14" lengthAdjust="spacing" textLength="262.303" x="328" y="599.7059">loginUser(usernameOrEmail, password)</text></g><!--class UserService--><g class="entity" data-entity="UserService" data-source-line="54" data-uid="ent0012" id="entity_UserService"><rect fill="#F1F1F1" height="67.0679" rx="2.5" ry="2.5" style="stroke:#181818;stroke-width:0.5;" width="316.3029" x="7" y="667.81"/><ellipse cx="122.2406" cy="683.81" fill="#ADD1B2" rx="11" ry="11" style="stroke:#181818;stroke-width:1;"/><path d="M122.35,679.3413 Q121.4281,679.3413 120.6937,679.6538 Q119.975,679.9663 119.475,680.56 Q118.975,681.1381 118.6937,682.0131 Q118.4281,682.8881 118.4281,683.9819 Q118.4281,685.4194 118.8656,686.4663 Q119.3187,687.5131 120.1625,688.06 Q121.0218,688.6069 122.3343,688.6069 Q123.1156,688.6069 123.8031,688.4819 Q124.5062,688.3413 125.5062,688.0288 L125.5062,689.9038 Q124.6468,690.2319 123.8812,690.3569 Q123.1312,690.4819 122.1156,690.4819 Q120.1937,690.4819 118.8812,689.685 Q117.5843,688.8725 116.9281,687.4038 Q116.2718,685.9194 116.2718,683.9506 Q116.2718,682.5288 116.6625,681.3569 Q117.0687,680.1694 117.85,679.2944 Q118.6312,678.4194 119.7718,677.9506 Q120.9125,677.4663 122.3812,677.4663 Q123.3343,677.4663 124.225,677.6694 Q125.1312,677.8569 126.0687,678.3256 L125.2406,680.1069 Q124.4593,679.7319 123.8031,679.5444 Q123.1468,679.3413 122.35,679.3413 Z " fill="#000000"/><text fill="#000000" font-family="sans-serif" font-size="14" lengthAdjust="spacing" textLength="77.3217" x="142.7406" y="689.242">UserService</text><line style="stroke:#181818;stroke-width:0.5;" x1="8" x2="322.3029" y1="699.81" y2="699.81"/><line style="stroke:#181818;stroke-width:0.5;" x1="8" x2="322.3029" y1="707.81" y2="707.81"/><ellipse cx="18" cy="722.844" fill="#84BE84" rx="3" ry="3" style="stroke:#038048;stroke-width:1;"/><text fill="#000000" font-family="sans-serif" font-size="14" lengthAdjust="spacing" textLength="290.3029" x="27" y="726.7759">findByUsernameOrEmail(usernameOrEmail)</text></g><!--class PasswordService--><g class="entity" data-entity="PasswordService" data-source-line="57" data-uid="ent0013" id="entity_PasswordService"><rect fill="#F1F1F1" height="67.0679" rx="2.5" ry="2.5" style="stroke:#181818;stroke-width:0.5;" width="237.3572" x="358.47" y="667.81"/><ellipse cx="417.7458" cy="683.81" fill="#ADD1B2" rx="11" ry="11" style="stroke:#181818;stroke-width:1;"/><path d="M417.8552,679.3413 Q416.9333,679.3413 416.1989,679.6538 Q415.4802,679.9663 414.9802,680.56 Q414.4802,681.1381 414.1989,682.0131 Q413.9333,682.8881 413.9333,683.9819 Q413.9333,685.4194 414.3708,686.4663 Q414.8239,687.5131 415.6677,688.06 Q416.5271,688.6069 417.8396,688.6069 Q418.6208,688.6069 419.3083,688.4819 Q420.0114,688.3413 421.0114,688.0288 L421.0114,689.9038 Q420.1521,690.2319 419.3864,690.3569 Q418.6364,690.4819 417.6208,690.4819 Q415.6989,690.4819 414.3864,689.685 Q413.0896,688.8725 412.4333,687.4038 Q411.7771,685.9194 411.7771,683.9506 Q411.7771,682.5288 412.1677,681.3569 Q412.5739,680.1694 413.3552,679.2944 Q414.1364,678.4194 415.2771,677.9506 Q416.4177,677.4663 417.8864,677.4663 Q418.8396,677.4663 419.7302,677.6694 Q420.6364,677.8569 421.5739,678.3256 L420.7458,680.1069 Q419.9646,679.7319 419.3083,679.5444 Q418.6521,679.3413 417.8552,679.3413 Z " fill="#000000"/><text fill="#000000" font-family="sans-serif" font-size="14" lengthAdjust="spacing" textLength="110.3056" x="438.2458" y="689.242">PasswordService</text><line style="stroke:#181818;stroke-width:0.5;" x1="359.47" x2="594.8272" y1="699.81" y2="699.81"/><line style="stroke:#181818;stroke-width:0.5;" x1="359.47" x2="594.8272" y1="707.81" y2="707.81"/><ellipse cx="369.47" cy="722.844" fill="#84BE84" rx="3" ry="3" style="stroke:#038048;stroke-width:1;"/><text fill="#000000" font-family="sans-serif" font-size="14" lengthAdjust="spacing" textLength="211.3572" x="378.47" y="726.7759">verifyPassword(password, hash)</text></g><!--class SessionService--><g class="entity" data-entity="SessionService" data-source-line="60" data-uid="ent0014" id="entity_SessionService"><rect fill="#F1F1F1" height="67.0679" rx="2.5" ry="2.5" style="stroke:#181818;stroke-width:0.5;" width="155.9475" x="570.18" y="794.88"/><ellipse cx="597.5621" cy="810.88" fill="#ADD1B2" rx="11" ry="11" style="stroke:#181818;stroke-width:1;"/><path d="M597.6715,806.4113 Q596.7496,806.4113 596.0153,806.7238 Q595.2965,807.0363 594.7965,807.63 Q594.2965,808.2081 594.0153,809.0831 Q593.7496,809.9581 593.7496,811.0519 Q593.7496,812.4894 594.1871,813.5363 Q594.6403,814.5831 595.484,815.13 Q596.3434,815.6769 597.6559,815.6769 Q598.4371,815.6769 599.1246,815.5519 Q599.8278,815.4113 600.8278,815.0988 L600.8278,816.9738 Q599.9684,817.3019 599.2028,817.4269 Q598.4528,817.5519 597.4371,817.5519 Q595.5153,817.5519 594.2028,816.755 Q592.9059,815.9425 592.2496,814.4738 Q591.5934,812.9894 591.5934,811.0206 Q591.5934,809.5988 591.984,808.4269 Q592.3903,807.2394 593.1715,806.3644 Q593.9528,805.4894 595.0934,805.0206 Q596.234,804.5363 597.7028,804.5363 Q598.6559,804.5363 599.5465,804.7394 Q600.4528,804.9269 601.3903,805.3956 L600.5621,807.1769 Q599.7809,806.8019 599.1246,806.6144 Q598.4684,806.4113 597.6715,806.4113 Z " fill="#000000"/><text fill="#000000" font-family="sans-serif" font-size="14" lengthAdjust="spacing" textLength="96.4316" x="614.3137" y="816.312">SessionService</text><line style="stroke:#181818;stroke-width:0.5;" x1="571.18" x2="725.1275" y1="826.88" y2="826.88"/><line style="stroke:#181818;stroke-width:0.5;" x1="571.18" x2="725.1275" y1="834.88" y2="834.88"/><ellipse cx="581.18" cy="849.914" fill="#84BE84" rx="3" ry="3" style="stroke:#038048;stroke-width:1;"/><text fill="#000000" font-family="sans-serif" font-size="14" lengthAdjust="spacing" textLength="129.9475" x="590.18" y="853.8459">createSession(User)</text></g><!--class UserRepository--><g class="entity" data-entity="UserRepository" data-source-line="65" data-uid="ent0015" id="entity_UserRepository"><rect fill="#F1F1F1" height="67.0679" rx="2.5" ry="2.5" style="stroke:#181818;stroke-width:0.5;" width="316.3029" x="218" y="794.88"/><ellipse cx="321.3686" cy="810.88" fill="#ADD1B2" rx="11" ry="11" style="stroke:#181818;stroke-width:1;"/><path d="M321.478,806.4113 Q320.5561,806.4113 319.8218,806.7238 Q319.103,807.0363 318.603,807.63 Q318.103,808.2081 317.8218,809.0831 Q317.5561,809.9581 317.5561,811.0519 Q317.5561,812.4894 317.9936,813.5363 Q318.4468,814.5831 319.2905,815.13 Q320.1499,815.6769 321.4624,815.6769 Q322.2436,815.6769 322.9311,815.5519 Q323.6343,815.4113 324.6343,815.0988 L324.6343,816.9738 Q323.7749,817.3019 323.0093,817.4269 Q322.2593,817.5519 321.2436,817.5519 Q319.3218,817.5519 318.0093,816.755 Q316.7124,815.9425 316.0561,814.4738 Q315.3999,812.9894 315.3999,811.0206 Q315.3999,809.5988 315.7905,808.4269 Q316.1968,807.2394 316.978,806.3644 Q317.7593,805.4894 318.8999,805.0206 Q320.0405,804.5363 321.5093,804.5363 Q322.4624,804.5363 323.353,804.7394 Q324.2593,804.9269 325.1968,805.3956 L324.3686,807.1769 Q323.5874,806.8019 322.9311,806.6144 Q322.2749,806.4113 321.478,806.4113 Z " fill="#000000"/><text fill="#000000" font-family="sans-serif" font-size="14" lengthAdjust="spacing" textLength="101.0656" x="341.8686" y="816.312">UserRepository</text><line style="stroke:#181818;stroke-width:0.5;" x1="219" x2="533.3029" y1="826.88" y2="826.88"/><line style="stroke:#181818;stroke-width:0.5;" x1="219" x2="533.3029" y1="834.88" y2="834.88"/><ellipse cx="229" cy="849.914" fill="#84BE84" rx="3" ry="3" style="stroke:#038048;stroke-width:1;"/><text fill="#000000" font-family="sans-serif" font-size="14" lengthAdjust="spacing" textLength="290.3029" x="238" y="853.8459">findByUsernameOrEmail(usernameOrEmail)</text></g><!--link LoginController to ApiClient--><g class="link" data-entity-1="LoginController" data-entity-2="ApiClient" data-source-line="70" data-uid="lnk16" id="link_LoginController_ApiClient"><path codeLine="70" d="M289.29,83.96 C309.04,114.7 335.1273,155.2818 354.8473,185.9818" fill="none" id="LoginController-to-ApiClient" style="stroke:#181818;stroke-width:1;"/><polygon fill="#181818" points="358.09,191.03,356.5914,181.2958,355.3877,186.8231,349.8604,185.6194,358.09,191.03" style="stroke:#181818;stroke-width:1;"/></g><!--link LoginController to SessionManager--><g class="link" data-entity-1="LoginController" data-entity-2="SessionManager" data-source-line="71" data-uid="lnk17" id="link_LoginController_SessionManager"><path codeLine="71" d="M247.2,83.96 C234.8,103.44 221.8022,123.8386 206.6122,147.6986" fill="none" id="LoginController-to-SessionManager" style="stroke:#181818;stroke-width:1;"/><polygon fill="#181818" points="203.39,152.76,211.5976,147.3161,206.0752,148.5422,204.8491,143.0198,203.39,152.76" style="stroke:#181818;stroke-width:1;"/></g><!--link ApiClient to AuthController--><g class="link" data-entity-1="ApiClient" data-entity-2="AuthController" data-source-line="72" data-uid="lnk18" id="link_ApiClient_AuthController"><path codeLine="72" d="M408.72,258.78 C440.32,294.01 486.1146,345.0827 517.6746,380.2827" fill="none" id="ApiClient-to-AuthController" style="stroke:#181818;stroke-width:1;"/><polygon fill="#181818" points="521.68,384.75,518.6502,375.3788,518.3422,381.0272,512.6937,380.7193,521.68,384.75" style="stroke:#181818;stroke-width:1;"/></g><!--link AuthController to LoginService--><g class="link" data-entity-1="AuthController" data-entity-2="LoginService" data-source-line="73" data-uid="lnk19" id="link_AuthController_LoginService"><path codeLine="73" d="M529.91,452.57 C513.21,478.5 493.2997,509.4062 476.5997,535.3262" fill="none" id="AuthController-to-LoginService" style="stroke:#181818;stroke-width:1;"/><polygon fill="#181818" points="473.35,540.37,481.587,534.9708,476.058,536.1668,474.862,530.6379,473.35,540.37" style="stroke:#181818;stroke-width:1;"/></g><!--link LoginService to UserService--><g class="link" data-entity-1="LoginService" data-entity-2="UserService" data-source-line="74" data-uid="lnk20" id="link_LoginService_UserService"><path codeLine="74" d="M376.37,608.3 C334.52,626.54 288.2006,646.7234 246.3606,664.9534" fill="none" id="LoginService-to-UserService" style="stroke:#181818;stroke-width:1;"/><polygon fill="#181818" points="240.86,667.35,250.7086,667.4221,245.4438,665.3528,247.5131,660.088,240.86,667.35" style="stroke:#181818;stroke-width:1;"/></g><!--link LoginService to PasswordService--><g class="link" data-entity-1="LoginService" data-entity-2="PasswordService" data-source-line="75" data-uid="lnk21" id="link_LoginService_PasswordService"><path codeLine="75" d="M458.72,608.14 C462.39,626.52 465.7833,643.4765 469.4533,661.8265" fill="none" id="LoginService-to-PasswordService" style="stroke:#181818;stroke-width:1;"/><polygon fill="#181818" points="470.63,667.71,472.7873,658.1003,469.6494,662.8071,464.9426,659.6692,470.63,667.71" style="stroke:#181818;stroke-width:1;"/></g><!--link AuthController to SessionService--><g class="link" data-entity-1="AuthController" data-entity-2="SessionService" data-source-line="76" data-uid="lnk22" id="link_AuthController_SessionService"><path codeLine="76" d="M572.37,452.4 C586.58,476.01 604.42,509.14 614.15,540.74 C641.52,629.59 646.9715,734.201 647.9515,788.381" fill="none" id="AuthController-to-SessionService" style="stroke:#181818;stroke-width:1;"/><polygon fill="#181818" points="648.06,794.38,651.8966,785.3091,647.9696,789.3808,643.8979,785.4538,648.06,794.38" style="stroke:#181818;stroke-width:1;"/></g><!--link SessionService to User--><g class="link" data-entity-1="SessionService" data-entity-2="User" data-source-line="77" data-uid="lnk23" id="link_SessionService_User"><path codeLine="77" d="M589.8,862.38 C547.65,886.19 495.764,915.5087 451.194,940.6887" fill="none" id="SessionService-to-User" style="stroke:#181818;stroke-width:1;"/><polygon fill="#181818" points="445.97,943.64,455.7735,942.6957,450.3233,941.1806,451.8384,935.7304,445.97,943.64" style="stroke:#181818;stroke-width:1;"/></g><!--link UserService to UserRepository--><g class="link" data-entity-1="UserService" data-entity-2="UserRepository" data-source-line="78" data-uid="lnk24" id="link_UserService_UserRepository"><path codeLine="78" d="M220.87,735.37 C251.63,753.61 284.5684,773.131 315.3284,791.361" fill="none" id="UserService-to-UserRepository" style="stroke:#181818;stroke-width:1;"/><polygon fill="#181818" points="320.49,794.42,314.7869,786.3904,316.1887,791.8708,310.7082,793.2725,320.49,794.42" style="stroke:#181818;stroke-width:1;"/></g><!--link UserService to User--><g class="link" data-entity-1="UserService" data-entity-2="User" data-source-line="79" data-uid="lnk25" id="link_UserService_User"><path codeLine="79" d="M165.45,735.36 C167.26,769.7 174.43,823.69 200.15,861.95 C226.23,900.73 264.0166,927.7913 301.0066,948.2013" fill="none" id="UserService-to-User" style="stroke:#181818;stroke-width:1;"/><polygon fill="#181818" points="306.26,951.1,300.3124,943.2498,301.8822,948.6845,296.4475,950.2543,306.26,951.1" style="stroke:#181818;stroke-width:1;"/></g><!--link UserRepository to User--><g class="link" data-entity-1="UserRepository" data-entity-2="User" data-source-line="80" data-uid="lnk26" id="link_UserRepository_User"><path codeLine="80" d="M376.15,862.38 C376.15,879.67 376.15,895.41 376.15,915.66" fill="none" id="UserRepository-to-User" style="stroke:#181818;stroke-width:1;"/><polygon fill="#181818" points="376.15,921.66,380.15,912.66,376.15,916.66,372.15,912.66,376.15,921.66" style="stroke:#181818;stroke-width:1;"/></g><!--link SessionManager to LoginResponse--><g class="link" data-entity-1="SessionManager" data-entity-2="LoginResponse" data-source-line="81" data-uid="lnk27" id="link_SessionManager_LoginResponse"><path codeLine="81" d="M164.83,296.95 C166.65,316.36 168.0513,331.2361 169.8113,350.0561" fill="none" id="SessionManager-to-LoginResponse" style="stroke:#181818;stroke-width:1;"/><polygon fill="#181818" points="170.37,356.03,173.5146,346.6967,169.9044,351.0517,165.5494,347.4415,170.37,356.03" style="stroke:#181818;stroke-width:1;"/></g><!--link ApiClient to LoginResponse--><g class="link" data-entity-1="ApiClient" data-entity-2="LoginResponse" data-source-line="82" data-uid="lnk28" id="link_ApiClient_LoginResponse"><path codeLine="82" d="M344.25,258.78 C316.03,285.45 279.8608,319.6189 245.6708,351.9289" fill="none" id="ApiClient-to-LoginResponse" style="stroke:#181818;stroke-width:1;"/><polygon fill="#181818" points="241.31,356.05,250.5986,352.7756,244.944,352.6158,245.1039,346.9612,241.31,356.05" style="stroke:#181818;stroke-width:1;"/></g><!--link ApiClient to ApiResponse--><g class="link" data-entity-1="ApiClient" data-entity-2="ApiResponse" data-source-line="83" data-uid="lnk29" id="link_ApiClient_ApiResponse"><path codeLine="83" d="M377.43,258.78 C375.9,288.12 373.9534,325.5582 372.1734,359.5882" fill="none" id="ApiClient-to-ApiResponse" style="stroke:#181818;stroke-width:1;"/><polygon fill="#181818" points="371.86,365.58,376.3247,356.8012,372.1212,360.5868,368.3356,356.3833,371.86,365.58" style="stroke:#181818;stroke-width:1;"/></g><!--SRC=[bLJBRi8m4BpxAtmZgF03g4BYTK1gLKJ21xZ9GgmQExKTAbJrtskRlEn424v4kvcTdPaD8xmI4d0cpeHod3AY52ZaVl51WSI_2ECfBiqZ9sUOuLXBoa-k20R3l4fXO3z2PbxHOhVhflI7EkFNMZpEq23Vn8doFNoNeFGzU6-TS88g15Vmd4RZZwA29-8BU5_d0DUYe3NJQpAlo5IPfcRG37yAmO1mLpoR2Zdv2sH4anbExBWHFco3Y9oEbU1Q2iQgj5vmJdZ6mFMMfTQ2HsE3lo7Ys_hlX1kcEjwxcXxm991kTs2MFV9yRfSmbgmO1QwhXMylrsIJ9hZnJVP-4oU1y4MfyvvkZzDTHqlfgZ782qsX-xgzmeRvGswiDd-1zbfz-97oR7az-D1mL3jWLutqXrn0qkErxaKrxyHagF9UQZusbK0qLAt8BbBvjGEfgDB0K-XiluT2AAg5l3uhm4O0Z6X3et9QA1IUtNGwRpCTxFfdXze3S50lJ1HaQz_efeUyA6staqs_6VW-DDrt5mLcrmoeUm9riJLri8q2uvjwy1as6kjl9N3eNg_p_uB-0G00]--></g></svg>