<svg xmlns="http://www.w3.org/2000/svg" xmlns:xlink="http://www.w3.org/1999/xlink" contentStyleType="text/css" data-diagram-type="CLASS" height="293px" preserveAspectRatio="none" style="width:2952px;height:293px;background:#FFFFFF;" version="1.1" viewBox="0 0 2952 293" width="2952px" zoomAndPan="magnify"><defs/><g><!--cluster core--><g class="cluster" data-entity="core" data-source-line="2" data-uid="ent0002" id="cluster_core"><path d="M8.5,6.602 L40.1179,6.602 A3.75,3.75 0 0 1 42.6179,9.102 L49.6179,31.6699 L622.5,31.6699 A2.5,2.5 0 0 1 625,34.1699 L625,284.102 A2.5,2.5 0 0 1 622.5,286.602 L8.5,286.602 A2.5,2.5 0 0 1 6,284.102 L6,9.102 A2.5,2.5 0 0 1 8.5,6.602" fill="none" style="stroke:#000000;stroke-width:1.5;"/><line style="stroke:#000000;stroke-width:1.5;" x1="6" x2="49.6179" y1="31.6699" y2="31.6699"/><text fill="#000000" font-family="sans-serif" font-size="14" font-weight="bold" lengthAdjust="spacing" textLength="30.6179" x="10" y="23.5679">core</text></g><!--cluster dto--><g class="cluster" data-entity="dto" data-source-line="3" data-uid="ent0003" id="cluster_dto"><path d="M32.5,52.602 L56.9464,52.602 A3.75,3.75 0 0 1 59.4464,55.102 L66.4464,77.6699 L480.5,77.6699 A2.5,2.5 0 0 1 483,80.1699 L483,260.102 A2.5,2.5 0 0 1 480.5,262.602 L32.5,262.602 A2.5,2.5 0 0 1 30,260.102 L30,55.102 A2.5,2.5 0 0 1 32.5,52.602" fill="none" style="stroke:#000000;stroke-width:1.5;"/><line style="stroke:#000000;stroke-width:1.5;" x1="30" x2="66.4464" y1="77.6699" y2="77.6699"/><text fill="#000000" font-family="sans-serif" font-size="14" font-weight="bold" lengthAdjust="spacing" textLength="23.4464" x="34" y="69.5679">dto</text></g><!--cluster model--><g class="cluster" data-entity="model" data-source-line="10" data-uid="ent0009" id="cluster_model"><path d="M509.5,52.602 L554.3653,52.602 A3.75,3.75 0 0 1 556.8653,55.102 L563.8653,77.6699 L598.5,77.6699 A2.5,2.5 0 0 1 601,80.1699 L601,152.102 A2.5,2.5 0 0 1 598.5,154.602 L509.5,154.602 A2.5,2.5 0 0 1 507,152.102 L507,55.102 A2.5,2.5 0 0 1 509.5,52.602" fill="none" style="stroke:#000000;stroke-width:1.5;"/><line style="stroke:#000000;stroke-width:1.5;" x1="507" x2="563.8653" y1="77.6699" y2="77.6699"/><text fill="#000000" font-family="sans-serif" font-size="14" font-weight="bold" lengthAdjust="spacing" textLength="43.8653" x="511" y="69.5679">model</text></g><!--cluster persistence--><g class="cluster" data-entity="persistence" data-source-line="15" data-uid="ent0011" id="cluster_persistence"><path d="M2733.5,6.602 L2814.8422,6.602 A3.75,3.75 0 0 1 2817.3422,9.102 L2824.3422,31.6699 L2942.5,31.6699 A2.5,2.5 0 0 1 2945,34.1699 L2945,176.102 A2.5,2.5 0 0 1 2942.5,178.602 L2733.5,178.602 A2.5,2.5 0 0 1 2731,176.102 L2731,9.102 A2.5,2.5 0 0 1 2733.5,6.602" fill="none" style="stroke:#000000;stroke-width:1.5;"/><line style="stroke:#000000;stroke-width:1.5;" x1="2731" x2="2824.3422" y1="31.6699" y2="31.6699"/><text fill="#000000" font-family="sans-serif" font-size="14" font-weight="bold" lengthAdjust="spacing" textLength="80.3422" x="2735" y="23.5679">persistence</text></g><!--cluster repository--><g class="cluster" data-entity="repository" data-source-line="16" data-uid="ent0012" id="cluster_repository"><path d="M2757.5,52.602 L2830.3968,52.602 A3.75,3.75 0 0 1 2832.8968,55.102 L2839.8968,77.6699 L2918.5,77.6699 A2.5,2.5 0 0 1 2921,80.1699 L2921,152.102 A2.5,2.5 0 0 1 2918.5,154.602 L2757.5,154.602 A2.5,2.5 0 0 1 2755,152.102 L2755,55.102 A2.5,2.5 0 0 1 2757.5,52.602" fill="none" style="stroke:#000000;stroke-width:1.5;"/><line style="stroke:#000000;stroke-width:1.5;" x1="2755" x2="2839.8968" y1="77.6699" y2="77.6699"/><text fill="#000000" font-family="sans-serif" font-size="14" font-weight="bold" lengthAdjust="spacing" textLength="71.8968" x="2759" y="69.5679">repository</text></g><!--cluster rest--><g class="cluster" data-entity="rest" data-source-line="21" data-uid="ent0014" id="cluster_rest"><path d="M651.5,6.602 L679.6879,6.602 A3.75,3.75 0 0 1 682.1879,9.102 L689.1879,31.6699 L1683.5,31.6699 A2.5,2.5 0 0 1 1686,34.1699 L1686,284.102 A2.5,2.5 0 0 1 1683.5,286.602 L651.5,286.602 A2.5,2.5 0 0 1 649,284.102 L649,9.102 A2.5,2.5 0 0 1 651.5,6.602" fill="none" style="stroke:#000000;stroke-width:1.5;"/><line style="stroke:#000000;stroke-width:1.5;" x1="649" x2="689.1879" y1="31.6699" y2="31.6699"/><text fill="#000000" font-family="sans-serif" font-size="14" font-weight="bold" lengthAdjust="spacing" textLength="27.1879" x="653" y="23.5679">rest</text></g><!--cluster app--><g class="cluster" data-entity="app" data-source-line="22" data-uid="ent0015" id="cluster_app"><path d="M675.5,52.602 L702.8864,52.602 A3.75,3.75 0 0 1 705.3864,55.102 L712.3864,77.6699 L836.5,77.6699 A2.5,2.5 0 0 1 839,80.1699 L839,152.102 A2.5,2.5 0 0 1 836.5,154.602 L675.5,154.602 A2.5,2.5 0 0 1 673,152.102 L673,55.102 A2.5,2.5 0 0 1 675.5,52.602" fill="none" style="stroke:#000000;stroke-width:1.5;"/><line style="stroke:#000000;stroke-width:1.5;" x1="673" x2="712.3864" y1="77.6699" y2="77.6699"/><text fill="#000000" font-family="sans-serif" font-size="14" font-weight="bold" lengthAdjust="spacing" textLength="26.3864" x="677" y="69.5679">app</text></g><!--cluster config--><g class="cluster" data-entity="config" data-source-line="25" data-uid="ent0017" id="cluster_config"><path d="M865.5,52.602 L910.0048,52.602 A3.75,3.75 0 0 1 912.5048,55.102 L919.5048,77.6699 L996.5,77.6699 A2.5,2.5 0 0 1 999,80.1699 L999,152.102 A2.5,2.5 0 0 1 996.5,154.602 L865.5,154.602 A2.5,2.5 0 0 1 863,152.102 L863,55.102 A2.5,2.5 0 0 1 865.5,52.602" fill="none" style="stroke:#000000;stroke-width:1.5;"/><line style="stroke:#000000;stroke-width:1.5;" x1="863" x2="919.5048" y1="77.6699" y2="77.6699"/><text fill="#000000" font-family="sans-serif" font-size="14" font-weight="bold" lengthAdjust="spacing" textLength="43.5048" x="867" y="69.5679">config</text></g><!--cluster controller--><g class="cluster" data-entity="controller" data-source-line="28" data-uid="ent0019" id="cluster_controller"><path d="M1025.5,52.602 L1094.9248,52.602 A3.75,3.75 0 0 1 1097.4248,55.102 L1104.4248,77.6699 L1182.5,77.6699 A2.5,2.5 0 0 1 1185,80.1699 L1185,152.102 A2.5,2.5 0 0 1 1182.5,154.602 L1025.5,154.602 A2.5,2.5 0 0 1 1023,152.102 L1023,55.102 A2.5,2.5 0 0 1 1025.5,52.602" fill="none" style="stroke:#000000;stroke-width:1.5;"/><line style="stroke:#000000;stroke-width:1.5;" x1="1023" x2="1104.4248" y1="77.6699" y2="77.6699"/><text fill="#000000" font-family="sans-serif" font-size="14" font-weight="bold" lengthAdjust="spacing" textLength="68.4248" x="1027" y="69.5679">controller</text></g><!--cluster service--><g class="cluster" data-entity="service" data-source-line="31" data-uid="ent0021" id="cluster_service"><path d="M1211.5,52.602 L1261.2863,52.602 A3.75,3.75 0 0 1 1263.7863,55.102 L1270.7863,77.6699 L1659.5,77.6699 A2.5,2.5 0 0 1 1662,80.1699 L1662,260.102 A2.5,2.5 0 0 1 1659.5,262.602 L1211.5,262.602 A2.5,2.5 0 0 1 1209,260.102 L1209,55.102 A2.5,2.5 0 0 1 1211.5,52.602" fill="none" style="stroke:#000000;stroke-width:1.5;"/><line style="stroke:#000000;stroke-width:1.5;" x1="1209" x2="1270.7863" y1="77.6699" y2="77.6699"/><text fill="#000000" font-family="sans-serif" font-size="14" font-weight="bold" lengthAdjust="spacing" textLength="48.7863" x="1213" y="69.5679">service</text></g><!--cluster ui--><g class="cluster" data-entity="ui" data-source-line="40" data-uid="ent0027" id="cluster_ui"><path d="M1712.5,6.602 L1726.6389,6.602 A3.75,3.75 0 0 1 1729.1389,9.102 L1736.1389,31.6699 L2704.5,31.6699 A2.5,2.5 0 0 1 2707,34.1699 L2707,284.102 A2.5,2.5 0 0 1 2704.5,286.602 L1712.5,286.602 A2.5,2.5 0 0 1 1710,284.102 L1710,9.102 A2.5,2.5 0 0 1 1712.5,6.602" fill="none" style="stroke:#000000;stroke-width:1.5;"/><line style="stroke:#000000;stroke-width:1.5;" x1="1710" x2="1736.1389" y1="31.6699" y2="31.6699"/><text fill="#000000" font-family="sans-serif" font-size="14" font-weight="bold" lengthAdjust="spacing" textLength="13.1389" x="1714" y="23.5679">ui</text></g><!--cluster app--><g class="cluster" data-entity="app" data-source-line="41" data-uid="ent0028" id="cluster_app"><path d="M1736.5,52.602 L1763.8864,52.602 A3.75,3.75 0 0 1 1766.3864,55.102 L1773.3864,77.6699 L1821.5,77.6699 A2.5,2.5 0 0 1 1824,80.1699 L1824,152.102 A2.5,2.5 0 0 1 1821.5,154.602 L1736.5,154.602 A2.5,2.5 0 0 1 1734,152.102 L1734,55.102 A2.5,2.5 0 0 1 1736.5,52.602" fill="none" style="stroke:#000000;stroke-width:1.5;"/><line style="stroke:#000000;stroke-width:1.5;" x1="1734" x2="1773.3864" y1="77.6699" y2="77.6699"/><text fill="#000000" font-family="sans-serif" font-size="14" font-weight="bold" lengthAdjust="spacing" textLength="26.3864" x="1738" y="69.5679">app</text></g><!--cluster controller--><g class="cluster" data-entity="controller" data-source-line="44" data-uid="ent0030" id="cluster_controller"><path d="M1850.5,52.602 L1919.9248,52.602 A3.75,3.75 0 0 1 1922.4248,55.102 L1929.4248,77.6699 L2357.5,77.6699 A2.5,2.5 0 0 1 2360,80.1699 L2360,260.102 A2.5,2.5 0 0 1 2357.5,262.602 L1850.5,262.602 A2.5,2.5 0 0 1 1848,260.102 L1848,55.102 A2.5,2.5 0 0 1 1850.5,52.602" fill="none" style="stroke:#000000;stroke-width:1.5;"/><line style="stroke:#000000;stroke-width:1.5;" x1="1848" x2="1929.4248" y1="77.6699" y2="77.6699"/><text fill="#000000" font-family="sans-serif" font-size="14" font-weight="bold" lengthAdjust="spacing" textLength="68.4248" x="1852" y="69.5679">controller</text></g><!--cluster service--><g class="cluster" data-entity="service" data-source-line="51" data-uid="ent0036" id="cluster_service"><path d="M2386.5,52.602 L2436.2863,52.602 A3.75,3.75 0 0 1 2438.7863,55.102 L2445.7863,77.6699 L2680.5,77.6699 A2.5,2.5 0 0 1 2683,80.1699 L2683,152.102 A2.5,2.5 0 0 1 2680.5,154.602 L2386.5,154.602 A2.5,2.5 0 0 1 2384,152.102 L2384,55.102 A2.5,2.5 0 0 1 2386.5,52.602" fill="none" style="stroke:#000000;stroke-width:1.5;"/><line style="stroke:#000000;stroke-width:1.5;" x1="2384" x2="2445.7863" y1="77.6699" y2="77.6699"/><text fill="#000000" font-family="sans-serif" font-size="14" font-weight="bold" lengthAdjust="spacing" textLength="48.7863" x="2388" y="69.5679">service</text></g><!--class LoginResponse--><g class="entity" data-entity="LoginResponse" data-source-line="4" data-uid="ent0004" id="entity_LoginResponse"><rect fill="#F1F1F1" height="48" rx="2.5" ry="2.5" style="stroke:#181818;stroke-width:0.5;" width="132.3236" x="45.84" y="90.602"/><ellipse cx="60.84" cy="106.602" fill="#ADD1B2" rx="11" ry="11" style="stroke:#181818;stroke-width:1;"/><path d="M60.9494,102.1332 Q60.0275,102.1332 59.2931,102.4457 Q58.5744,102.7582 58.0744,103.352 Q57.5744,103.9301 57.2931,104.8051 Q57.0275,105.6801 57.0275,106.7739 Q57.0275,108.2114 57.465,109.2582 Q57.9181,110.3051 58.7619,110.852 Q59.6213,111.3989 60.9338,111.3989 Q61.715,111.3989 62.4025,111.2739 Q63.1056,111.1332 64.1056,110.8207 L64.1056,112.6957 Q63.2463,113.0239 62.4806,113.1489 Q61.7306,113.2739 60.715,113.2739 Q58.7931,113.2739 57.4806,112.477 Q56.1838,111.6645 55.5275,110.1957 Q54.8713,108.7114 54.8713,106.7426 Q54.8713,105.3207 55.2619,104.1489 Q55.6681,102.9614 56.4494,102.0864 Q57.2306,101.2114 58.3713,100.7426 Q59.5119,100.2582 60.9806,100.2582 Q61.9338,100.2582 62.8244,100.4614 Q63.7306,100.6489 64.6681,101.1176 L63.84,102.8989 Q63.0588,102.5239 62.4025,102.3364 Q61.7463,102.1332 60.9494,102.1332 Z " fill="#000000"/><text fill="#000000" font-family="sans-serif" font-size="14" lengthAdjust="spacing" textLength="100.3236" x="74.84" y="112.034">LoginResponse</text><line style="stroke:#181818;stroke-width:0.5;" x1="46.84" x2="177.1636" y1="122.602" y2="122.602"/><line style="stroke:#181818;stroke-width:0.5;" x1="46.84" x2="177.1636" y1="130.602" y2="130.602"/></g><!--class UserDto--><g class="entity" data-entity="UserDto" data-source-line="5" data-uid="ent0005" id="entity_UserDto"><rect fill="#F1F1F1" height="48" rx="2.5" ry="2.5" style="stroke:#181818;stroke-width:0.5;" width="86.3618" x="212.82" y="90.602"/><ellipse cx="227.82" cy="106.602" fill="#ADD1B2" rx="11" ry="11" style="stroke:#181818;stroke-width:1;"/><path d="M227.9294,102.1332 Q227.0075,102.1332 226.2731,102.4457 Q225.5544,102.7582 225.0544,103.352 Q224.5544,103.9301 224.2731,104.8051 Q224.0075,105.6801 224.0075,106.7739 Q224.0075,108.2114 224.445,109.2582 Q224.8981,110.3051 225.7419,110.852 Q226.6013,111.3989 227.9138,111.3989 Q228.695,111.3989 229.3825,111.2739 Q230.0856,111.1332 231.0856,110.8207 L231.0856,112.6957 Q230.2263,113.0239 229.4606,113.1489 Q228.7106,113.2739 227.695,113.2739 Q225.7731,113.2739 224.4606,112.477 Q223.1638,111.6645 222.5075,110.1957 Q221.8513,108.7114 221.8513,106.7426 Q221.8513,105.3207 222.2419,104.1489 Q222.6481,102.9614 223.4294,102.0864 Q224.2106,101.2114 225.3513,100.7426 Q226.4919,100.2582 227.9606,100.2582 Q228.9138,100.2582 229.8044,100.4614 Q230.7106,100.6489 231.6481,101.1176 L230.82,102.8989 Q230.0388,102.5239 229.3825,102.3364 Q228.7263,102.1332 227.9294,102.1332 Z " fill="#000000"/><text fill="#000000" font-family="sans-serif" font-size="14" lengthAdjust="spacing" textLength="54.3618" x="241.82" y="112.034">UserDto</text><line style="stroke:#181818;stroke-width:0.5;" x1="213.82" x2="298.1818" y1="122.602" y2="122.602"/><line style="stroke:#181818;stroke-width:0.5;" x1="213.82" x2="298.1818" y1="130.602" y2="130.602"/></g><!--class SignUpRequest--><g class="entity" data-entity="SignUpRequest" data-source-line="6" data-uid="ent0006" id="entity_SignUpRequest"><rect fill="#F1F1F1" height="48" rx="2.5" ry="2.5" style="stroke:#181818;stroke-width:0.5;" width="132.9256" x="334.54" y="90.602"/><ellipse cx="349.54" cy="106.602" fill="#ADD1B2" rx="11" ry="11" style="stroke:#181818;stroke-width:1;"/><path d="M349.6494,102.1332 Q348.7275,102.1332 347.9931,102.4457 Q347.2744,102.7582 346.7744,103.352 Q346.2744,103.9301 345.9931,104.8051 Q345.7275,105.6801 345.7275,106.7739 Q345.7275,108.2114 346.165,109.2582 Q346.6181,110.3051 347.4619,110.852 Q348.3213,111.3989 349.6338,111.3989 Q350.415,111.3989 351.1025,111.2739 Q351.8056,111.1332 352.8056,110.8207 L352.8056,112.6957 Q351.9463,113.0239 351.1806,113.1489 Q350.4306,113.2739 349.415,113.2739 Q347.4931,113.2739 346.1806,112.477 Q344.8838,111.6645 344.2275,110.1957 Q343.5713,108.7114 343.5713,106.7426 Q343.5713,105.3207 343.9619,104.1489 Q344.3681,102.9614 345.1494,102.0864 Q345.9306,101.2114 347.0713,100.7426 Q348.2119,100.2582 349.6806,100.2582 Q350.6338,100.2582 351.5244,100.4614 Q352.4306,100.6489 353.3681,101.1176 L352.54,102.8989 Q351.7588,102.5239 351.1025,102.3364 Q350.4463,102.1332 349.6494,102.1332 Z " fill="#000000"/><text fill="#000000" font-family="sans-serif" font-size="14" lengthAdjust="spacing" textLength="100.9256" x="363.54" y="112.034">SignUpRequest</text><line style="stroke:#181818;stroke-width:0.5;" x1="335.54" x2="466.4656" y1="122.602" y2="122.602"/><line style="stroke:#181818;stroke-width:0.5;" x1="335.54" x2="466.4656" y1="130.602" y2="130.602"/></g><!--class LoginRequest--><g class="entity" data-entity="LoginRequest" data-source-line="7" data-uid="ent0007" id="entity_LoginRequest"><rect fill="#F1F1F1" height="48" rx="2.5" ry="2.5" style="stroke:#181818;stroke-width:0.5;" width="122.2016" x="50.9" y="198.602"/><ellipse cx="65.9" cy="214.602" fill="#ADD1B2" rx="11" ry="11" style="stroke:#181818;stroke-width:1;"/><path d="M66.0094,210.1332 Q65.0875,210.1332 64.3531,210.4457 Q63.6344,210.7582 63.1344,211.352 Q62.6344,211.9301 62.3531,212.8051 Q62.0875,213.6801 62.0875,214.7739 Q62.0875,216.2114 62.525,217.2582 Q62.9781,218.3051 63.8219,218.852 Q64.6813,219.3989 65.9938,219.3989 Q66.775,219.3989 67.4625,219.2739 Q68.1656,219.1332 69.1656,218.8207 L69.1656,220.6957 Q68.3063,221.0239 67.5406,221.1489 Q66.7906,221.2739 65.775,221.2739 Q63.8531,221.2739 62.5406,220.477 Q61.2438,219.6645 60.5875,218.1957 Q59.9313,216.7114 59.9313,214.7426 Q59.9313,213.3207 60.3219,212.1489 Q60.7281,210.9614 61.5094,210.0864 Q62.2906,209.2114 63.4313,208.7426 Q64.5719,208.2582 66.0406,208.2582 Q66.9938,208.2582 67.8844,208.4614 Q68.7906,208.6489 69.7281,209.1176 L68.9,210.8989 Q68.1188,210.5239 67.4625,210.3364 Q66.8063,210.1332 66.0094,210.1332 Z " fill="#000000"/><text fill="#000000" font-family="sans-serif" font-size="14" lengthAdjust="spacing" textLength="90.2016" x="79.9" y="220.034">LoginRequest</text><line style="stroke:#181818;stroke-width:0.5;" x1="51.9" x2="172.1016" y1="230.602" y2="230.602"/><line style="stroke:#181818;stroke-width:0.5;" x1="51.9" x2="172.1016" y1="238.602" y2="238.602"/></g><!--class ApiResponse--><g class="entity" data-entity="ApiResponse" data-source-line="8" data-uid="ent0008" id="entity_ApiResponse"><rect fill="#F1F1F1" height="48" rx="2.5" ry="2.5" style="stroke:#181818;stroke-width:0.5;" width="116.8117" x="208.59" y="198.602"/><ellipse cx="223.59" cy="214.602" fill="#ADD1B2" rx="11" ry="11" style="stroke:#181818;stroke-width:1;"/><path d="M223.6994,210.1332 Q222.7775,210.1332 222.0431,210.4457 Q221.3244,210.7582 220.8244,211.352 Q220.3244,211.9301 220.0431,212.8051 Q219.7775,213.6801 219.7775,214.7739 Q219.7775,216.2114 220.215,217.2582 Q220.6681,218.3051 221.5119,218.852 Q222.3713,219.3989 223.6838,219.3989 Q224.465,219.3989 225.1525,219.2739 Q225.8556,219.1332 226.8556,218.8207 L226.8556,220.6957 Q225.9963,221.0239 225.2306,221.1489 Q224.4806,221.2739 223.465,221.2739 Q221.5431,221.2739 220.2306,220.477 Q218.9338,219.6645 218.2775,218.1957 Q217.6213,216.7114 217.6213,214.7426 Q217.6213,213.3207 218.0119,212.1489 Q218.4181,210.9614 219.1994,210.0864 Q219.9806,209.2114 221.1213,208.7426 Q222.2619,208.2582 223.7306,208.2582 Q224.6838,208.2582 225.5744,208.4614 Q226.4806,208.6489 227.4181,209.1176 L226.59,210.8989 Q225.8088,210.5239 225.1525,210.3364 Q224.4963,210.1332 223.6994,210.1332 Z " fill="#000000"/><text fill="#000000" font-family="sans-serif" font-size="14" lengthAdjust="spacing" textLength="84.8117" x="237.59" y="220.034">ApiResponse</text><line style="stroke:#181818;stroke-width:0.5;" x1="209.59" x2="324.4017" y1="230.602" y2="230.602"/><line style="stroke:#181818;stroke-width:0.5;" x1="209.59" x2="324.4017" y1="238.602" y2="238.602"/></g><!--class User--><g class="entity" data-entity="User" data-source-line="11" data-uid="ent0010" id="entity_User"><rect fill="#F1F1F1" height="48" rx="2.5" ry="2.5" style="stroke:#181818;stroke-width:0.5;" width="62.6179" x="522.69" y="90.602"/><ellipse cx="537.69" cy="106.602" fill="#ADD1B2" rx="11" ry="11" style="stroke:#181818;stroke-width:1;"/><path d="M537.7994,102.1332 Q536.8775,102.1332 536.1431,102.4457 Q535.4244,102.7582 534.9244,103.352 Q534.4244,103.9301 534.1431,104.8051 Q533.8775,105.6801 533.8775,106.7739 Q533.8775,108.2114 534.315,109.2582 Q534.7681,110.3051 535.6119,110.852 Q536.4713,111.3989 537.7838,111.3989 Q538.565,111.3989 539.2525,111.2739 Q539.9556,111.1332 540.9556,110.8207 L540.9556,112.6957 Q540.0963,113.0239 539.3306,113.1489 Q538.5806,113.2739 537.565,113.2739 Q535.6431,113.2739 534.3306,112.477 Q533.0338,111.6645 532.3775,110.1957 Q531.7213,108.7114 531.7213,106.7426 Q531.7213,105.3207 532.1119,104.1489 Q532.5181,102.9614 533.2994,102.0864 Q534.0806,101.2114 535.2213,100.7426 Q536.3619,100.2582 537.8306,100.2582 Q538.7838,100.2582 539.6744,100.4614 Q540.5806,100.6489 541.5181,101.1176 L540.69,102.8989 Q539.9088,102.5239 539.2525,102.3364 Q538.5963,102.1332 537.7994,102.1332 Z " fill="#000000"/><text fill="#000000" font-family="sans-serif" font-size="14" lengthAdjust="spacing" textLength="30.6179" x="551.69" y="112.034">User</text><line style="stroke:#181818;stroke-width:0.5;" x1="523.69" x2="584.3079" y1="122.602" y2="122.602"/><line style="stroke:#181818;stroke-width:0.5;" x1="523.69" x2="584.3079" y1="130.602" y2="130.602"/></g><!--class UserRepository--><g class="entity" data-entity="UserRepository" data-source-line="17" data-uid="ent0013" id="entity_UserRepository"><rect fill="#F1F1F1" height="48" rx="2.5" ry="2.5" style="stroke:#181818;stroke-width:0.5;" width="133.0656" x="2771.47" y="90.602"/><ellipse cx="2786.47" cy="106.602" fill="#ADD1B2" rx="11" ry="11" style="stroke:#181818;stroke-width:1;"/><path d="M2786.5794,102.1332 Q2785.6575,102.1332 2784.9231,102.4457 Q2784.2044,102.7582 2783.7044,103.352 Q2783.2044,103.9301 2782.9231,104.8051 Q2782.6575,105.6801 2782.6575,106.7739 Q2782.6575,108.2114 2783.095,109.2582 Q2783.5481,110.3051 2784.3919,110.852 Q2785.2513,111.3989 2786.5638,111.3989 Q2787.345,111.3989 2788.0325,111.2739 Q2788.7356,111.1332 2789.7356,110.8207 L2789.7356,112.6957 Q2788.8763,113.0239 2788.1106,113.1489 Q2787.3606,113.2739 2786.345,113.2739 Q2784.4231,113.2739 2783.1106,112.477 Q2781.8138,111.6645 2781.1575,110.1957 Q2780.5013,108.7114 2780.5013,106.7426 Q2780.5013,105.3207 2780.8919,104.1489 Q2781.2981,102.9614 2782.0794,102.0864 Q2782.8606,101.2114 2784.0013,100.7426 Q2785.1419,100.2582 2786.6106,100.2582 Q2787.5638,100.2582 2788.4544,100.4614 Q2789.3606,100.6489 2790.2981,101.1176 L2789.47,102.8989 Q2788.6888,102.5239 2788.0325,102.3364 Q2787.3763,102.1332 2786.5794,102.1332 Z " fill="#000000"/><text fill="#000000" font-family="sans-serif" font-size="14" lengthAdjust="spacing" textLength="101.0656" x="2800.47" y="112.034">UserRepository</text><line style="stroke:#181818;stroke-width:0.5;" x1="2772.47" x2="2903.5356" y1="122.602" y2="122.602"/><line style="stroke:#181818;stroke-width:0.5;" x1="2772.47" x2="2903.5356" y1="130.602" y2="130.602"/></g><!--class RestApplication--><g class="entity" data-entity="RestApplication" data-source-line="23" data-uid="ent0016" id="entity_RestApplication"><rect fill="#F1F1F1" height="48" rx="2.5" ry="2.5" style="stroke:#181818;stroke-width:0.5;" width="134.1156" x="688.94" y="90.602"/><ellipse cx="703.94" cy="106.602" fill="#ADD1B2" rx="11" ry="11" style="stroke:#181818;stroke-width:1;"/><path d="M704.0494,102.1332 Q703.1275,102.1332 702.3931,102.4457 Q701.6744,102.7582 701.1744,103.352 Q700.6744,103.9301 700.3931,104.8051 Q700.1275,105.6801 700.1275,106.7739 Q700.1275,108.2114 700.565,109.2582 Q701.0181,110.3051 701.8619,110.852 Q702.7213,111.3989 704.0338,111.3989 Q704.815,111.3989 705.5025,111.2739 Q706.2056,111.1332 707.2056,110.8207 L707.2056,112.6957 Q706.3463,113.0239 705.5806,113.1489 Q704.8306,113.2739 703.815,113.2739 Q701.8931,113.2739 700.5806,112.477 Q699.2838,111.6645 698.6275,110.1957 Q697.9713,108.7114 697.9713,106.7426 Q697.9713,105.3207 698.3619,104.1489 Q698.7681,102.9614 699.5494,102.0864 Q700.3306,101.2114 701.4713,100.7426 Q702.6119,100.2582 704.0806,100.2582 Q705.0338,100.2582 705.9244,100.4614 Q706.8306,100.6489 707.7681,101.1176 L706.94,102.8989 Q706.1588,102.5239 705.5025,102.3364 Q704.8463,102.1332 704.0494,102.1332 Z " fill="#000000"/><text fill="#000000" font-family="sans-serif" font-size="14" lengthAdjust="spacing" textLength="102.1156" x="717.94" y="112.034">RestApplication</text><line style="stroke:#181818;stroke-width:0.5;" x1="689.94" x2="822.0556" y1="122.602" y2="122.602"/><line style="stroke:#181818;stroke-width:0.5;" x1="689.94" x2="822.0556" y1="130.602" y2="130.602"/></g><!--class CorsConfig--><g class="entity" data-entity="CorsConfig" data-source-line="26" data-uid="ent0018" id="entity_CorsConfig"><rect fill="#F1F1F1" height="48" rx="2.5" ry="2.5" style="stroke:#181818;stroke-width:0.5;" width="104.8137" x="878.59" y="90.602"/><ellipse cx="893.59" cy="106.602" fill="#ADD1B2" rx="11" ry="11" style="stroke:#181818;stroke-width:1;"/><path d="M893.6994,102.1332 Q892.7775,102.1332 892.0431,102.4457 Q891.3244,102.7582 890.8244,103.352 Q890.3244,103.9301 890.0431,104.8051 Q889.7775,105.6801 889.7775,106.7739 Q889.7775,108.2114 890.215,109.2582 Q890.6681,110.3051 891.5119,110.852 Q892.3713,111.3989 893.6838,111.3989 Q894.465,111.3989 895.1525,111.2739 Q895.8556,111.1332 896.8556,110.8207 L896.8556,112.6957 Q895.9963,113.0239 895.2306,113.1489 Q894.4806,113.2739 893.465,113.2739 Q891.5431,113.2739 890.2306,112.477 Q888.9338,111.6645 888.2775,110.1957 Q887.6213,108.7114 887.6213,106.7426 Q887.6213,105.3207 888.0119,104.1489 Q888.4181,102.9614 889.1994,102.0864 Q889.9806,101.2114 891.1213,100.7426 Q892.2619,100.2582 893.7306,100.2582 Q894.6838,100.2582 895.5744,100.4614 Q896.4806,100.6489 897.4181,101.1176 L896.59,102.8989 Q895.8088,102.5239 895.1525,102.3364 Q894.4963,102.1332 893.6994,102.1332 Z " fill="#000000"/><text fill="#000000" font-family="sans-serif" font-size="14" lengthAdjust="spacing" textLength="72.8137" x="907.59" y="112.034">CorsConfig</text><line style="stroke:#181818;stroke-width:0.5;" x1="879.59" x2="982.4037" y1="122.602" y2="122.602"/><line style="stroke:#181818;stroke-width:0.5;" x1="879.59" x2="982.4037" y1="130.602" y2="130.602"/></g><!--class AuthController--><g class="entity" data-entity="AuthController" data-source-line="29" data-uid="ent0020" id="entity_AuthController"><rect fill="#F1F1F1" height="48" rx="2.5" ry="2.5" style="stroke:#181818;stroke-width:0.5;" width="129.4816" x="1039.26" y="90.602"/><ellipse cx="1054.26" cy="106.602" fill="#ADD1B2" rx="11" ry="11" style="stroke:#181818;stroke-width:1;"/><path d="M1054.3694,102.1332 Q1053.4475,102.1332 1052.7131,102.4457 Q1051.9944,102.7582 1051.4944,103.352 Q1050.9944,103.9301 1050.7131,104.8051 Q1050.4475,105.6801 1050.4475,106.7739 Q1050.4475,108.2114 1050.885,109.2582 Q1051.3381,110.3051 1052.1819,110.852 Q1053.0413,111.3989 1054.3538,111.3989 Q1055.135,111.3989 1055.8225,111.2739 Q1056.5256,111.1332 1057.5256,110.8207 L1057.5256,112.6957 Q1056.6663,113.0239 1055.9006,113.1489 Q1055.1506,113.2739 1054.135,113.2739 Q1052.2131,113.2739 1050.9006,112.477 Q1049.6038,111.6645 1048.9475,110.1957 Q1048.2913,108.7114 1048.2913,106.7426 Q1048.2913,105.3207 1048.6819,104.1489 Q1049.0881,102.9614 1049.8694,102.0864 Q1050.6506,101.2114 1051.7913,100.7426 Q1052.9319,100.2582 1054.4006,100.2582 Q1055.3538,100.2582 1056.2444,100.4614 Q1057.1506,100.6489 1058.0881,101.1176 L1057.26,102.8989 Q1056.4788,102.5239 1055.8225,102.3364 Q1055.1663,102.1332 1054.3694,102.1332 Z " fill="#000000"/><text fill="#000000" font-family="sans-serif" font-size="14" lengthAdjust="spacing" textLength="97.4816" x="1068.26" y="112.034">AuthController</text><line style="stroke:#181818;stroke-width:0.5;" x1="1040.26" x2="1167.7416" y1="122.602" y2="122.602"/><line style="stroke:#181818;stroke-width:0.5;" x1="1040.26" x2="1167.7416" y1="130.602" y2="130.602"/></g><!--class SignUpService--><g class="entity" data-entity="SignUpService" data-source-line="32" data-uid="ent0022" id="entity_SignUpService"><rect fill="#F1F1F1" height="48" rx="2.5" ry="2.5" style="stroke:#181818;stroke-width:0.5;" width="126.1076" x="1224.95" y="90.602"/><ellipse cx="1239.95" cy="106.602" fill="#ADD1B2" rx="11" ry="11" style="stroke:#181818;stroke-width:1;"/><path d="M1240.0594,102.1332 Q1239.1375,102.1332 1238.4031,102.4457 Q1237.6844,102.7582 1237.1844,103.352 Q1236.6844,103.9301 1236.4031,104.8051 Q1236.1375,105.6801 1236.1375,106.7739 Q1236.1375,108.2114 1236.575,109.2582 Q1237.0281,110.3051 1237.8719,110.852 Q1238.7313,111.3989 1240.0438,111.3989 Q1240.825,111.3989 1241.5125,111.2739 Q1242.2156,111.1332 1243.2156,110.8207 L1243.2156,112.6957 Q1242.3563,113.0239 1241.5906,113.1489 Q1240.8406,113.2739 1239.825,113.2739 Q1237.9031,113.2739 1236.5906,112.477 Q1235.2938,111.6645 1234.6375,110.1957 Q1233.9813,108.7114 1233.9813,106.7426 Q1233.9813,105.3207 1234.3719,104.1489 Q1234.7781,102.9614 1235.5594,102.0864 Q1236.3406,101.2114 1237.4813,100.7426 Q1238.6219,100.2582 1240.0906,100.2582 Q1241.0438,100.2582 1241.9344,100.4614 Q1242.8406,100.6489 1243.7781,101.1176 L1242.95,102.8989 Q1242.1688,102.5239 1241.5125,102.3364 Q1240.8563,102.1332 1240.0594,102.1332 Z " fill="#000000"/><text fill="#000000" font-family="sans-serif" font-size="14" lengthAdjust="spacing" textLength="94.1076" x="1253.95" y="112.034">SignUpService</text><line style="stroke:#181818;stroke-width:0.5;" x1="1225.95" x2="1350.0576" y1="122.602" y2="122.602"/><line style="stroke:#181818;stroke-width:0.5;" x1="1225.95" x2="1350.0576" y1="130.602" y2="130.602"/></g><!--class UserService--><g class="entity" data-entity="UserService" data-source-line="33" data-uid="ent0023" id="entity_UserService"><rect fill="#F1F1F1" height="48" rx="2.5" ry="2.5" style="stroke:#181818;stroke-width:0.5;" width="109.3217" x="1386.34" y="90.602"/><ellipse cx="1401.34" cy="106.602" fill="#ADD1B2" rx="11" ry="11" style="stroke:#181818;stroke-width:1;"/><path d="M1401.4494,102.1332 Q1400.5275,102.1332 1399.7931,102.4457 Q1399.0744,102.7582 1398.5744,103.352 Q1398.0744,103.9301 1397.7931,104.8051 Q1397.5275,105.6801 1397.5275,106.7739 Q1397.5275,108.2114 1397.965,109.2582 Q1398.4181,110.3051 1399.2619,110.852 Q1400.1213,111.3989 1401.4338,111.3989 Q1402.215,111.3989 1402.9025,111.2739 Q1403.6056,111.1332 1404.6056,110.8207 L1404.6056,112.6957 Q1403.7463,113.0239 1402.9806,113.1489 Q1402.2306,113.2739 1401.215,113.2739 Q1399.2931,113.2739 1397.9806,112.477 Q1396.6838,111.6645 1396.0275,110.1957 Q1395.3713,108.7114 1395.3713,106.7426 Q1395.3713,105.3207 1395.7619,104.1489 Q1396.1681,102.9614 1396.9494,102.0864 Q1397.7306,101.2114 1398.8713,100.7426 Q1400.0119,100.2582 1401.4806,100.2582 Q1402.4338,100.2582 1403.3244,100.4614 Q1404.2306,100.6489 1405.1681,101.1176 L1404.34,102.8989 Q1403.5588,102.5239 1402.9025,102.3364 Q1402.2463,102.1332 1401.4494,102.1332 Z " fill="#000000"/><text fill="#000000" font-family="sans-serif" font-size="14" lengthAdjust="spacing" textLength="77.3217" x="1415.34" y="112.034">UserService</text><line style="stroke:#181818;stroke-width:0.5;" x1="1387.34" x2="1494.6617" y1="122.602" y2="122.602"/><line style="stroke:#181818;stroke-width:0.5;" x1="1387.34" x2="1494.6617" y1="130.602" y2="130.602"/></g><!--class LoginService--><g class="entity" data-entity="LoginService" data-source-line="34" data-uid="ent0024" id="entity_LoginService"><rect fill="#F1F1F1" height="48" rx="2.5" ry="2.5" style="stroke:#181818;stroke-width:0.5;" width="115.3837" x="1530.31" y="90.602"/><ellipse cx="1545.31" cy="106.602" fill="#ADD1B2" rx="11" ry="11" style="stroke:#181818;stroke-width:1;"/><path d="M1545.4194,102.1332 Q1544.4975,102.1332 1543.7631,102.4457 Q1543.0444,102.7582 1542.5444,103.352 Q1542.0444,103.9301 1541.7631,104.8051 Q1541.4975,105.6801 1541.4975,106.7739 Q1541.4975,108.2114 1541.935,109.2582 Q1542.3881,110.3051 1543.2319,110.852 Q1544.0913,111.3989 1545.4038,111.3989 Q1546.185,111.3989 1546.8725,111.2739 Q1547.5756,111.1332 1548.5756,110.8207 L1548.5756,112.6957 Q1547.7163,113.0239 1546.9506,113.1489 Q1546.2006,113.2739 1545.185,113.2739 Q1543.2631,113.2739 1541.9506,112.477 Q1540.6538,111.6645 1539.9975,110.1957 Q1539.3413,108.7114 1539.3413,106.7426 Q1539.3413,105.3207 1539.7319,104.1489 Q1540.1381,102.9614 1540.9194,102.0864 Q1541.7006,101.2114 1542.8413,100.7426 Q1543.9819,100.2582 1545.4506,100.2582 Q1546.4038,100.2582 1547.2944,100.4614 Q1548.2006,100.6489 1549.1381,101.1176 L1548.31,102.8989 Q1547.5288,102.5239 1546.8725,102.3364 Q1546.2163,102.1332 1545.4194,102.1332 Z " fill="#000000"/><text fill="#000000" font-family="sans-serif" font-size="14" lengthAdjust="spacing" textLength="83.3837" x="1559.31" y="112.034">LoginService</text><line style="stroke:#181818;stroke-width:0.5;" x1="1531.31" x2="1644.6937" y1="122.602" y2="122.602"/><line style="stroke:#181818;stroke-width:0.5;" x1="1531.31" x2="1644.6937" y1="130.602" y2="130.602"/></g><!--class SessionService--><g class="entity" data-entity="SessionService" data-source-line="35" data-uid="ent0025" id="entity_SessionService"><rect fill="#F1F1F1" height="48" rx="2.5" ry="2.5" style="stroke:#181818;stroke-width:0.5;" width="128.4316" x="1224.78" y="198.602"/><ellipse cx="1239.78" cy="214.602" fill="#ADD1B2" rx="11" ry="11" style="stroke:#181818;stroke-width:1;"/><path d="M1239.8894,210.1332 Q1238.9675,210.1332 1238.2331,210.4457 Q1237.5144,210.7582 1237.0144,211.352 Q1236.5144,211.9301 1236.2331,212.8051 Q1235.9675,213.6801 1235.9675,214.7739 Q1235.9675,216.2114 1236.405,217.2582 Q1236.8581,218.3051 1237.7019,218.852 Q1238.5613,219.3989 1239.8738,219.3989 Q1240.655,219.3989 1241.3425,219.2739 Q1242.0456,219.1332 1243.0456,218.8207 L1243.0456,220.6957 Q1242.1863,221.0239 1241.4206,221.1489 Q1240.6706,221.2739 1239.655,221.2739 Q1237.7331,221.2739 1236.4206,220.477 Q1235.1238,219.6645 1234.4675,218.1957 Q1233.8113,216.7114 1233.8113,214.7426 Q1233.8113,213.3207 1234.2019,212.1489 Q1234.6081,210.9614 1235.3894,210.0864 Q1236.1706,209.2114 1237.3113,208.7426 Q1238.4519,208.2582 1239.9206,208.2582 Q1240.8738,208.2582 1241.7644,208.4614 Q1242.6706,208.6489 1243.6081,209.1176 L1242.78,210.8989 Q1241.9988,210.5239 1241.3425,210.3364 Q1240.6863,210.1332 1239.8894,210.1332 Z " fill="#000000"/><text fill="#000000" font-family="sans-serif" font-size="14" lengthAdjust="spacing" textLength="96.4316" x="1253.78" y="220.034">SessionService</text><line style="stroke:#181818;stroke-width:0.5;" x1="1225.78" x2="1352.2116" y1="230.602" y2="230.602"/><line style="stroke:#181818;stroke-width:0.5;" x1="1225.78" x2="1352.2116" y1="238.602" y2="238.602"/></g><!--class PasswordService--><g class="entity" data-entity="PasswordService" data-source-line="36" data-uid="ent0026" id="entity_PasswordService"><rect fill="#F1F1F1" height="48" rx="2.5" ry="2.5" style="stroke:#181818;stroke-width:0.5;" width="142.3056" x="1387.85" y="198.602"/><ellipse cx="1402.85" cy="214.602" fill="#ADD1B2" rx="11" ry="11" style="stroke:#181818;stroke-width:1;"/><path d="M1402.9594,210.1332 Q1402.0375,210.1332 1401.3031,210.4457 Q1400.5844,210.7582 1400.0844,211.352 Q1399.5844,211.9301 1399.3031,212.8051 Q1399.0375,213.6801 1399.0375,214.7739 Q1399.0375,216.2114 1399.475,217.2582 Q1399.9281,218.3051 1400.7719,218.852 Q1401.6313,219.3989 1402.9438,219.3989 Q1403.725,219.3989 1404.4125,219.2739 Q1405.1156,219.1332 1406.1156,218.8207 L1406.1156,220.6957 Q1405.2563,221.0239 1404.4906,221.1489 Q1403.7406,221.2739 1402.725,221.2739 Q1400.8031,221.2739 1399.4906,220.477 Q1398.1938,219.6645 1397.5375,218.1957 Q1396.8813,216.7114 1396.8813,214.7426 Q1396.8813,213.3207 1397.2719,212.1489 Q1397.6781,210.9614 1398.4594,210.0864 Q1399.2406,209.2114 1400.3813,208.7426 Q1401.5219,208.2582 1402.9906,208.2582 Q1403.9438,208.2582 1404.8344,208.4614 Q1405.7406,208.6489 1406.6781,209.1176 L1405.85,210.8989 Q1405.0688,210.5239 1404.4125,210.3364 Q1403.7563,210.1332 1402.9594,210.1332 Z " fill="#000000"/><text fill="#000000" font-family="sans-serif" font-size="14" lengthAdjust="spacing" textLength="110.3056" x="1416.85" y="220.034">PasswordService</text><line style="stroke:#181818;stroke-width:0.5;" x1="1388.85" x2="1529.1556" y1="230.602" y2="230.602"/><line style="stroke:#181818;stroke-width:0.5;" x1="1388.85" x2="1529.1556" y1="238.602" y2="238.602"/></g><!--class App--><g class="entity" data-entity="App" data-source-line="42" data-uid="ent0029" id="entity_App"><rect fill="#F1F1F1" height="48" rx="2.5" ry="2.5" style="stroke:#181818;stroke-width:0.5;" width="58.1659" x="1749.92" y="90.602"/><ellipse cx="1764.92" cy="106.602" fill="#ADD1B2" rx="11" ry="11" style="stroke:#181818;stroke-width:1;"/><path d="M1765.0294,102.1332 Q1764.1075,102.1332 1763.3731,102.4457 Q1762.6544,102.7582 1762.1544,103.352 Q1761.6544,103.9301 1761.3731,104.8051 Q1761.1075,105.6801 1761.1075,106.7739 Q1761.1075,108.2114 1761.545,109.2582 Q1761.9981,110.3051 1762.8419,110.852 Q1763.7013,111.3989 1765.0138,111.3989 Q1765.795,111.3989 1766.4825,111.2739 Q1767.1856,111.1332 1768.1856,110.8207 L1768.1856,112.6957 Q1767.3263,113.0239 1766.5606,113.1489 Q1765.8106,113.2739 1764.795,113.2739 Q1762.8731,113.2739 1761.5606,112.477 Q1760.2638,111.6645 1759.6075,110.1957 Q1758.9513,108.7114 1758.9513,106.7426 Q1758.9513,105.3207 1759.3419,104.1489 Q1759.7481,102.9614 1760.5294,102.0864 Q1761.3106,101.2114 1762.4513,100.7426 Q1763.5919,100.2582 1765.0606,100.2582 Q1766.0138,100.2582 1766.9044,100.4614 Q1767.8106,100.6489 1768.7481,101.1176 L1767.92,102.8989 Q1767.1388,102.5239 1766.4825,102.3364 Q1765.8263,102.1332 1765.0294,102.1332 Z " fill="#000000"/><text fill="#000000" font-family="sans-serif" font-size="14" lengthAdjust="spacing" textLength="26.1659" x="1778.92" y="112.034">App</text><line style="stroke:#181818;stroke-width:0.5;" x1="1750.92" x2="1807.0859" y1="122.602" y2="122.602"/><line style="stroke:#181818;stroke-width:0.5;" x1="1750.92" x2="1807.0859" y1="130.602" y2="130.602"/></g><!--class LoginController--><g class="entity" data-entity="LoginController" data-source-line="45" data-uid="ent0031" id="entity_LoginController"><rect fill="#F1F1F1" height="48" rx="2.5" ry="2.5" style="stroke:#181818;stroke-width:0.5;" width="134.8576" x="1863.57" y="90.602"/><ellipse cx="1878.57" cy="106.602" fill="#ADD1B2" rx="11" ry="11" style="stroke:#181818;stroke-width:1;"/><path d="M1878.6794,102.1332 Q1877.7575,102.1332 1877.0231,102.4457 Q1876.3044,102.7582 1875.8044,103.352 Q1875.3044,103.9301 1875.0231,104.8051 Q1874.7575,105.6801 1874.7575,106.7739 Q1874.7575,108.2114 1875.195,109.2582 Q1875.6481,110.3051 1876.4919,110.852 Q1877.3513,111.3989 1878.6638,111.3989 Q1879.445,111.3989 1880.1325,111.2739 Q1880.8356,111.1332 1881.8356,110.8207 L1881.8356,112.6957 Q1880.9763,113.0239 1880.2106,113.1489 Q1879.4606,113.2739 1878.445,113.2739 Q1876.5231,113.2739 1875.2106,112.477 Q1873.9138,111.6645 1873.2575,110.1957 Q1872.6013,108.7114 1872.6013,106.7426 Q1872.6013,105.3207 1872.9919,104.1489 Q1873.3981,102.9614 1874.1794,102.0864 Q1874.9606,101.2114 1876.1013,100.7426 Q1877.2419,100.2582 1878.7106,100.2582 Q1879.6638,100.2582 1880.5544,100.4614 Q1881.4606,100.6489 1882.3981,101.1176 L1881.57,102.8989 Q1880.7888,102.5239 1880.1325,102.3364 Q1879.4763,102.1332 1878.6794,102.1332 Z " fill="#000000"/><text fill="#000000" font-family="sans-serif" font-size="14" lengthAdjust="spacing" textLength="102.8576" x="1892.57" y="112.034">LoginController</text><line style="stroke:#181818;stroke-width:0.5;" x1="1864.57" x2="1997.4276" y1="122.602" y2="122.602"/><line style="stroke:#181818;stroke-width:0.5;" x1="1864.57" x2="1997.4276" y1="130.602" y2="130.602"/></g><!--class SignUpController--><g class="entity" data-entity="SignUpController" data-source-line="46" data-uid="ent0032" id="entity_SignUpController"><rect fill="#F1F1F1" height="48" rx="2.5" ry="2.5" style="stroke:#181818;stroke-width:0.5;" width="145.5816" x="2033.21" y="90.602"/><ellipse cx="2048.21" cy="106.602" fill="#ADD1B2" rx="11" ry="11" style="stroke:#181818;stroke-width:1;"/><path d="M2048.3194,102.1332 Q2047.3975,102.1332 2046.6631,102.4457 Q2045.9444,102.7582 2045.4444,103.352 Q2044.9444,103.9301 2044.6631,104.8051 Q2044.3975,105.6801 2044.3975,106.7739 Q2044.3975,108.2114 2044.835,109.2582 Q2045.2881,110.3051 2046.1319,110.852 Q2046.9913,111.3989 2048.3038,111.3989 Q2049.085,111.3989 2049.7725,111.2739 Q2050.4756,111.1332 2051.4756,110.8207 L2051.4756,112.6957 Q2050.6163,113.0239 2049.8506,113.1489 Q2049.1006,113.2739 2048.085,113.2739 Q2046.1631,113.2739 2044.8506,112.477 Q2043.5538,111.6645 2042.8975,110.1957 Q2042.2413,108.7114 2042.2413,106.7426 Q2042.2413,105.3207 2042.6319,104.1489 Q2043.0381,102.9614 2043.8194,102.0864 Q2044.6006,101.2114 2045.7413,100.7426 Q2046.8819,100.2582 2048.3506,100.2582 Q2049.3038,100.2582 2050.1944,100.4614 Q2051.1006,100.6489 2052.0381,101.1176 L2051.21,102.8989 Q2050.4288,102.5239 2049.7725,102.3364 Q2049.1163,102.1332 2048.3194,102.1332 Z " fill="#000000"/><text fill="#000000" font-family="sans-serif" font-size="14" lengthAdjust="spacing" textLength="113.5816" x="2062.21" y="112.034">SignUpController</text><line style="stroke:#181818;stroke-width:0.5;" x1="2034.21" x2="2177.7916" y1="122.602" y2="122.602"/><line style="stroke:#181818;stroke-width:0.5;" x1="2034.21" x2="2177.7916" y1="130.602" y2="130.602"/></g><!--class BaseController--><g class="entity" data-entity="BaseController" data-source-line="47" data-uid="ent0033" id="entity_BaseController"><rect fill="#F1F1F1" height="48" rx="2.5" ry="2.5" style="stroke:#181818;stroke-width:0.5;" width="129.7336" x="2214.13" y="90.602"/><ellipse cx="2229.13" cy="106.602" fill="#ADD1B2" rx="11" ry="11" style="stroke:#181818;stroke-width:1;"/><path d="M2229.2394,102.1332 Q2228.3175,102.1332 2227.5831,102.4457 Q2226.8644,102.7582 2226.3644,103.352 Q2225.8644,103.9301 2225.5831,104.8051 Q2225.3175,105.6801 2225.3175,106.7739 Q2225.3175,108.2114 2225.755,109.2582 Q2226.2081,110.3051 2227.0519,110.852 Q2227.9113,111.3989 2229.2238,111.3989 Q2230.005,111.3989 2230.6925,111.2739 Q2231.3956,111.1332 2232.3956,110.8207 L2232.3956,112.6957 Q2231.5363,113.0239 2230.7706,113.1489 Q2230.0206,113.2739 2229.005,113.2739 Q2227.0831,113.2739 2225.7706,112.477 Q2224.4738,111.6645 2223.8175,110.1957 Q2223.1613,108.7114 2223.1613,106.7426 Q2223.1613,105.3207 2223.5519,104.1489 Q2223.9581,102.9614 2224.7394,102.0864 Q2225.5206,101.2114 2226.6613,100.7426 Q2227.8019,100.2582 2229.2706,100.2582 Q2230.2238,100.2582 2231.1144,100.4614 Q2232.0206,100.6489 2232.9581,101.1176 L2232.13,102.8989 Q2231.3488,102.5239 2230.6925,102.3364 Q2230.0363,102.1332 2229.2394,102.1332 Z " fill="#000000"/><text fill="#000000" font-family="sans-serif" font-size="14" lengthAdjust="spacing" textLength="97.7336" x="2243.13" y="112.034">BaseController</text><line style="stroke:#181818;stroke-width:0.5;" x1="2215.13" x2="2342.8636" y1="122.602" y2="122.602"/><line style="stroke:#181818;stroke-width:0.5;" x1="2215.13" x2="2342.8636" y1="130.602" y2="130.602"/></g><!--class HomePageController--><g class="entity" data-entity="HomePageController" data-source-line="48" data-uid="ent0034" id="entity_HomePageController"><rect fill="#F1F1F1" height="48" rx="2.5" ry="2.5" style="stroke:#181818;stroke-width:0.5;" width="170.8375" x="1863.58" y="198.602"/><ellipse cx="1878.58" cy="214.602" fill="#ADD1B2" rx="11" ry="11" style="stroke:#181818;stroke-width:1;"/><path d="M1878.6894,210.1332 Q1877.7675,210.1332 1877.0331,210.4457 Q1876.3144,210.7582 1875.8144,211.352 Q1875.3144,211.9301 1875.0331,212.8051 Q1874.7675,213.6801 1874.7675,214.7739 Q1874.7675,216.2114 1875.205,217.2582 Q1875.6581,218.3051 1876.5019,218.852 Q1877.3613,219.3989 1878.6738,219.3989 Q1879.455,219.3989 1880.1425,219.2739 Q1880.8456,219.1332 1881.8456,218.8207 L1881.8456,220.6957 Q1880.9863,221.0239 1880.2206,221.1489 Q1879.4706,221.2739 1878.455,221.2739 Q1876.5331,221.2739 1875.2206,220.477 Q1873.9238,219.6645 1873.2675,218.1957 Q1872.6113,216.7114 1872.6113,214.7426 Q1872.6113,213.3207 1873.0019,212.1489 Q1873.4081,210.9614 1874.1894,210.0864 Q1874.9706,209.2114 1876.1113,208.7426 Q1877.2519,208.2582 1878.7206,208.2582 Q1879.6738,208.2582 1880.5644,208.4614 Q1881.4706,208.6489 1882.4081,209.1176 L1881.58,210.8989 Q1880.7988,210.5239 1880.1425,210.3364 Q1879.4863,210.1332 1878.6894,210.1332 Z " fill="#000000"/><text fill="#000000" font-family="sans-serif" font-size="14" lengthAdjust="spacing" textLength="138.8375" x="1892.58" y="220.034">HomePageController</text><line style="stroke:#181818;stroke-width:0.5;" x1="1864.58" x2="2033.4175" y1="230.602" y2="230.602"/><line style="stroke:#181818;stroke-width:0.5;" x1="1864.58" x2="2033.4175" y1="238.602" y2="238.602"/></g><!--class LoadingScreenController--><g class="entity" data-entity="LoadingScreenController" data-source-line="49" data-uid="ent0035" id="entity_LoadingScreenController"><rect fill="#F1F1F1" height="48" rx="2.5" ry="2.5" style="stroke:#181818;stroke-width:0.5;" width="195.9534" x="2069.02" y="198.602"/><ellipse cx="2084.02" cy="214.602" fill="#ADD1B2" rx="11" ry="11" style="stroke:#181818;stroke-width:1;"/><path d="M2084.1294,210.1332 Q2083.2075,210.1332 2082.4731,210.4457 Q2081.7544,210.7582 2081.2544,211.352 Q2080.7544,211.9301 2080.4731,212.8051 Q2080.2075,213.6801 2080.2075,214.7739 Q2080.2075,216.2114 2080.645,217.2582 Q2081.0981,218.3051 2081.9419,218.852 Q2082.8013,219.3989 2084.1138,219.3989 Q2084.895,219.3989 2085.5825,219.2739 Q2086.2856,219.1332 2087.2856,218.8207 L2087.2856,220.6957 Q2086.4263,221.0239 2085.6606,221.1489 Q2084.9106,221.2739 2083.895,221.2739 Q2081.9731,221.2739 2080.6606,220.477 Q2079.3638,219.6645 2078.7075,218.1957 Q2078.0513,216.7114 2078.0513,214.7426 Q2078.0513,213.3207 2078.4419,212.1489 Q2078.8481,210.9614 2079.6294,210.0864 Q2080.4106,209.2114 2081.5513,208.7426 Q2082.6919,208.2582 2084.1606,208.2582 Q2085.1138,208.2582 2086.0044,208.4614 Q2086.9106,208.6489 2087.8481,209.1176 L2087.02,210.8989 Q2086.2388,210.5239 2085.5825,210.3364 Q2084.9263,210.1332 2084.1294,210.1332 Z " fill="#000000"/><text fill="#000000" font-family="sans-serif" font-size="14" lengthAdjust="spacing" textLength="163.9534" x="2098.02" y="220.034">LoadingScreenController</text><line style="stroke:#181818;stroke-width:0.5;" x1="2070.02" x2="2263.9734" y1="230.602" y2="230.602"/><line style="stroke:#181818;stroke-width:0.5;" x1="2070.02" x2="2263.9734" y1="238.602" y2="238.602"/></g><!--class SessionManager--><g class="entity" data-entity="SessionManager" data-source-line="52" data-uid="ent0037" id="entity_SessionManager"><rect fill="#F1F1F1" height="48" rx="2.5" ry="2.5" style="stroke:#181818;stroke-width:0.5;" width="141.0736" x="2400.46" y="90.602"/><ellipse cx="2415.46" cy="106.602" fill="#ADD1B2" rx="11" ry="11" style="stroke:#181818;stroke-width:1;"/><path d="M2415.5694,102.1332 Q2414.6475,102.1332 2413.9131,102.4457 Q2413.1944,102.7582 2412.6944,103.352 Q2412.1944,103.9301 2411.9131,104.8051 Q2411.6475,105.6801 2411.6475,106.7739 Q2411.6475,108.2114 2412.085,109.2582 Q2412.5381,110.3051 2413.3819,110.852 Q2414.2413,111.3989 2415.5538,111.3989 Q2416.335,111.3989 2417.0225,111.2739 Q2417.7256,111.1332 2418.7256,110.8207 L2418.7256,112.6957 Q2417.8663,113.0239 2417.1006,113.1489 Q2416.3506,113.2739 2415.335,113.2739 Q2413.4131,113.2739 2412.1006,112.477 Q2410.8038,111.6645 2410.1475,110.1957 Q2409.4913,108.7114 2409.4913,106.7426 Q2409.4913,105.3207 2409.8819,104.1489 Q2410.2881,102.9614 2411.0694,102.0864 Q2411.8506,101.2114 2412.9913,100.7426 Q2414.1319,100.2582 2415.6006,100.2582 Q2416.5538,100.2582 2417.4444,100.4614 Q2418.3506,100.6489 2419.2881,101.1176 L2418.46,102.8989 Q2417.6788,102.5239 2417.0225,102.3364 Q2416.3663,102.1332 2415.5694,102.1332 Z " fill="#000000"/><text fill="#000000" font-family="sans-serif" font-size="14" lengthAdjust="spacing" textLength="109.0736" x="2429.46" y="112.034">SessionManager</text><line style="stroke:#181818;stroke-width:0.5;" x1="2401.46" x2="2540.5336" y1="122.602" y2="122.602"/><line style="stroke:#181818;stroke-width:0.5;" x1="2401.46" x2="2540.5336" y1="130.602" y2="130.602"/></g><!--class ApiClient--><g class="entity" data-entity="ApiClient" data-source-line="53" data-uid="ent0038" id="entity_ApiClient"><rect fill="#F1F1F1" height="48" rx="2.5" ry="2.5" style="stroke:#181818;stroke-width:0.5;" width="90.8418" x="2576.58" y="90.602"/><ellipse cx="2591.58" cy="106.602" fill="#ADD1B2" rx="11" ry="11" style="stroke:#181818;stroke-width:1;"/><path d="M2591.6894,102.1332 Q2590.7675,102.1332 2590.0331,102.4457 Q2589.3144,102.7582 2588.8144,103.352 Q2588.3144,103.9301 2588.0331,104.8051 Q2587.7675,105.6801 2587.7675,106.7739 Q2587.7675,108.2114 2588.205,109.2582 Q2588.6581,110.3051 2589.5019,110.852 Q2590.3613,111.3989 2591.6738,111.3989 Q2592.455,111.3989 2593.1425,111.2739 Q2593.8456,111.1332 2594.8456,110.8207 L2594.8456,112.6957 Q2593.9863,113.0239 2593.2206,113.1489 Q2592.4706,113.2739 2591.455,113.2739 Q2589.5331,113.2739 2588.2206,112.477 Q2586.9238,111.6645 2586.2675,110.1957 Q2585.6113,108.7114 2585.6113,106.7426 Q2585.6113,105.3207 2586.0019,104.1489 Q2586.4081,102.9614 2587.1894,102.0864 Q2587.9706,101.2114 2589.1113,100.7426 Q2590.2519,100.2582 2591.7206,100.2582 Q2592.6738,100.2582 2593.5644,100.4614 Q2594.4706,100.6489 2595.4081,101.1176 L2594.58,102.8989 Q2593.7988,102.5239 2593.1425,102.3364 Q2592.4863,102.1332 2591.6894,102.1332 Z " fill="#000000"/><text fill="#000000" font-family="sans-serif" font-size="14" lengthAdjust="spacing" textLength="58.8418" x="2605.58" y="112.034">ApiClient</text><line style="stroke:#181818;stroke-width:0.5;" x1="2577.58" x2="2666.4218" y1="122.602" y2="122.602"/><line style="stroke:#181818;stroke-width:0.5;" x1="2577.58" x2="2666.4218" y1="130.602" y2="130.602"/></g><!--SRC=[bL91JiCm4Bpd5LP_4iA1Gv6gH7s0vMp32jThTfqYXFhtceI6s8u4N7oOsHtFZEsrUTK3g9qXXftwh9JoTwWFD2DA6Qj5r9u6T2s89oUmmey2_1XeXNGukADluMq42QL23jSULxBNjOapzM1J6r_NJMFNgbhcFB2W170cZy7WIJ0GVvGoxS8LWXmjPahQ-rGYcWwrznQD3aWkzsx8dN18LnfYQIPyOpemMGkSRjHZU6aMBj-A8IvupvpMtyrK5hb4fqSfuGv4OgYIECJZdRZ_OTBcHlojjzZPNzDFvfBuQSXDwa4BR19FT8P3l6-Jt9FkqGsTOG3ttyRdifwrYpESVkt68hZmNTCD]--></g></svg>